<?xml version="1.0" encoding="utf-8"?>
<!-- Generator: Adobe Illustrator 26.0.1, SVG Export Plug-In . SVG Version: 6.00 Build 0)  -->
<svg version="1.1" xmlns="http://www.w3.org/2000/svg" xmlns:xlink="http://www.w3.org/1999/xlink" x="0px" y="0px" width="422.5px"
	 height="232px" viewBox="0 0 422.5 232" style="enable-background:new 0 0 422.5 232;" xml:space="preserve">
<style type="text/css">
	.st0{display:none;}
	.st1{display:inline;fill:#010002;}
	.st2{display:inline;}
	.st3{enable-background:new    ;}
	.st4{fill:#1B1B1B;}
	.st5{fill:none;stroke:#FFFFFF;stroke-width:0.5;stroke-linejoin:round;}
	.st6{fill:#FF0076;}
	.st7{fill:none;stroke:#FFFFFF;stroke-linecap:round;stroke-linejoin:round;}
	.st8{fill:#C3D11E;}
	.st9{fill:#539ED5;}
	.st10{fill:none;stroke:#FFFFFF;stroke-width:0.5;}
	.st11{fill:none;stroke:#FFFFFF;}
</style>
<g id="レイヤー_1" class="st0">
	<g id="レイヤー_3">
		<rect class="st1" width="422.5" height="232"/>
	</g>
	<g id="レイヤー_1_00000036240805078824498650000014926867380441132972_">
		<g id="グループ_18" transform="translate(-134 -164.5)" class="st2">
			<g transform="matrix(1, 0, 0, 1, 134, 164.5)">
				<g class="st3">
					<path class="st4" d="M11,30.1c2.5-2.3,4.3-4.2,5.6-5.7c1.2-1.6,1.9-2.9,1.9-4.2c0-0.8-0.2-1.4-0.6-1.9c-0.4-0.4-1-0.7-1.7-0.7
						c-0.6,0-1.1,0.2-1.5,0.5c-0.5,0.3-1,0.7-1.5,1.3l-2.3-2.3c0.9-1,1.8-1.7,2.7-2.1c0.9-0.4,2-0.7,3.2-0.7s2.2,0.2,3,0.7
						c0.9,0.5,1.6,1.1,2.1,2c0.5,0.8,0.7,1.8,0.7,3c0,2.5-1.8,5.6-5.4,9.2c1.2-0.2,2.2-0.2,2.9-0.2h3.3v3.6H11V30.1z"/>
					<path class="st4" d="M28.6,31.8c-1-0.7-1.7-1.8-2.2-3.2c-0.5-1.4-0.8-3.1-0.8-5.1s0.3-3.7,0.8-5.1s1.3-2.4,2.2-3.1
						c0.9-0.7,2.1-1,3.3-1s2.4,0.3,3.3,1s1.7,1.7,2.2,3.1s0.8,3.1,0.8,5.1s-0.3,3.7-0.8,5.1s-1.3,2.5-2.2,3.2
						c-1,0.7-2.1,1.1-3.3,1.1S29.6,32.5,28.6,31.8z M33.6,28.2c0.4-0.9,0.6-2.5,0.6-4.7c0-2.3-0.2-3.8-0.6-4.6s-1-1.3-1.7-1.3
						s-1.3,0.4-1.7,1.3c-0.4,0.8-0.6,2.4-0.6,4.6c0,2.3,0.2,3.8,0.6,4.7c0.4,0.9,1,1.3,1.7,1.3C32.7,29.5,33.2,29.1,33.6,28.2z"/>
					<path class="st4" d="M40.2,30.1c2.5-2.3,4.3-4.2,5.6-5.7c1.2-1.6,1.9-2.9,1.9-4.2c0-0.8-0.2-1.4-0.6-1.9
						c-0.4-0.4-1-0.7-1.7-0.7c-0.6,0-1.1,0.2-1.5,0.5c-0.5,0.3-1,0.7-1.5,1.3L40,17.1c0.9-1,1.8-1.7,2.7-2.1c0.9-0.4,2-0.7,3.2-0.7
						s2.2,0.2,3,0.7c0.9,0.5,1.6,1.1,2.1,2c0.5,0.8,0.7,1.8,0.7,3c0,2.5-1.8,5.6-5.4,9.2c1.2-0.2,2.2-0.2,2.9-0.2h3.3v3.6H40.2V30.1
						z"/>
					<path class="st4" d="M55.7,29h3.8V18.9h-3.3v-2.6c0.9-0.2,1.8-0.4,2.4-0.6c0.7-0.3,1.3-0.6,2-1h3.1V29H67v3.5H55.7V29z"/>
					<path class="st4" d="M82.5,14.6h4.6l2.8,7.7c0.1,0.4,0.2,0.7,0.3,1.1c0.1,0.3,0.2,0.6,0.3,0.9l0.4,1.2H91
						c0.1-0.4,0.3-1,0.5-1.7c0.2-0.6,0.3-1.1,0.5-1.5l2.7-7.7h4.7v17.9h-3.9v-6.1c0-1.3,0.2-3.4,0.6-6.2H96l-1.5,4.3L92.1,31h-2.4
						l-2.4-6.5l-1.4-4.3h-0.1c0.2,1.4,0.3,2.6,0.4,3.6s0.1,1.9,0.1,2.6v6.1h-3.8C82.5,32.5,82.5,14.6,82.5,14.6z"/>
					<path class="st4" d="M103.6,32.5V14.6h11.3v3.6h-7v3.3h6v3.6h-6v3.8h7.3v3.6H103.6z"/>
					<path class="st4" d="M118.7,32.5V14.6h4.3v17.9H118.7z"/>
					<path class="st4" d="M127.1,32.5V14.6h11.3v3.6h-7v3.3h6v3.6h-6v3.8h7.3v3.6H127.1z"/>
					<path class="st4" d="M142.2,32.5V14.6h4.3v7.1h0.1l5.1-7.1h4.7l-5.4,7.2l6.4,10.7h-4.7l-4.2-7.3l-1.9,2.6v4.7H142.2z"/>
					<path class="st4" d="M159.2,32.5V14.6h4.3v17.9H159.2z"/>
					<path class="st4" d="M182.9,31.8c-1.3-0.7-2.3-1.7-3-3.1c-0.8-1.4-1.1-3-1.1-5c0-1.9,0.4-3.6,1.2-5s1.8-2.5,3.1-3.2
						s2.7-1.1,4.2-1.1c1.1,0,2.1,0.2,3,0.6c0.9,0.4,1.7,1,2.4,1.7l-2.2,2.7c-0.5-0.4-1-0.8-1.5-1s-1-0.4-1.6-0.4
						c-0.8,0-1.5,0.2-2.1,0.7c-0.6,0.4-1.1,1.1-1.5,1.9s-0.6,1.8-0.6,2.9c0,1.8,0.4,3.1,1.1,4.1c0.7,1,1.8,1.5,3,1.5
						c1.3,0,2.4-0.5,3.4-1.6l2.3,2.7c-1.5,1.8-3.5,2.6-5.8,2.6C185.6,32.8,184.2,32.5,182.9,31.8z"/>
					<path class="st4" d="M193.4,32.5l5.5-17.9h5.1l5.5,17.9H205l-1-4.1h-5.3l-1,4.1H193.4z M199.6,25.1h3.6l-0.4-1.5
						c-0.2-0.7-0.4-1.7-0.7-3l-0.7-2.7h-0.1c-0.6,2.7-1.1,4.6-1.4,5.7L199.6,25.1z"/>
					<path class="st4" d="M211.5,14.6h4.6l2.8,7.7c0.1,0.4,0.2,0.7,0.3,1.1c0.1,0.3,0.2,0.6,0.3,0.9l0.4,1.2h0.1
						c0.1-0.4,0.3-1,0.5-1.7c0.2-0.6,0.3-1.1,0.5-1.5l2.7-7.7h4.7v17.9h-3.9v-6.1c0-1.3,0.2-3.4,0.6-6.2H225l-1.5,4.3l-2.4,6.5h-2.4
						l-2.4-6.5l-1.4-4.3h-0.1c0.2,1.4,0.3,2.6,0.4,3.6c0.1,1,0.1,1.9,0.1,2.6v6.1h-3.8L211.5,14.6L211.5,14.6z"/>
					<path class="st4" d="M238.8,14.6c2.2,0,3.9,0.5,5.2,1.4s2,2.4,2,4.5c0,1.4-0.3,2.5-0.9,3.4s-1.5,1.6-2.5,2s-2.3,0.7-3.6,0.7
						h-2.1v5.9h-4.3V14.6H238.8z M238.7,23.2c1,0,1.8-0.2,2.3-0.7s0.8-1.1,0.8-2s-0.3-1.5-0.8-1.9s-1.3-0.6-2.4-0.6h-1.8v5.2H238.7z
						"/>
					<path class="st4" d="M250.7,30.7c-1.2-1.4-1.8-3.6-1.8-6.6v-9.5h4.3v9.9c0,1.6,0.2,2.8,0.7,3.5s1.2,1.1,2.2,1.1
						c1,0,1.8-0.4,2.3-1.1s0.8-1.9,0.8-3.5v-9.9h4.1v9.5c0,3-0.6,5.2-1.8,6.6s-3,2.1-5.4,2.1C253.7,32.8,251.9,32.1,250.7,30.7z"/>
					<path class="st4" d="M269.3,32.2c-1.2-0.4-2.2-1.1-3.1-1.9l2.4-3c0.6,0.5,1.3,1,2.1,1.3s1.5,0.5,2.2,0.5c0.8,0,1.3-0.1,1.7-0.4
						c0.4-0.3,0.6-0.7,0.6-1.2c0-0.3-0.1-0.6-0.3-0.8c-0.2-0.2-0.4-0.4-0.7-0.5c-0.3-0.1-0.8-0.4-1.5-0.7l-2.3-1
						c-1.1-0.4-1.9-1-2.6-1.9c-0.7-0.8-1-1.8-1-3c0-1,0.3-1.9,0.8-2.7c0.6-0.8,1.3-1.5,2.3-2s2.1-0.7,3.3-0.7c1.1,0,2.1,0.2,3.1,0.6
						c1,0.4,1.9,1,2.7,1.8l-2.1,2.7c-0.6-0.5-1.2-0.8-1.8-1c-0.6-0.2-1.2-0.3-1.9-0.3c-0.7,0-1.2,0.1-1.5,0.4s-0.6,0.6-0.6,1.1
						c0,0.3,0.1,0.6,0.3,0.8s0.5,0.4,0.8,0.6s0.8,0.4,1.6,0.7l2.2,0.9c1.2,0.5,2,1.1,2.6,1.9s0.9,1.8,0.9,3c0,1-0.3,1.9-0.8,2.8
						c-0.5,0.8-1.3,1.5-2.4,2c-1,0.5-2.2,0.8-3.6,0.8C271.6,32.8,270.5,32.6,269.3,32.2z"/>
					<path class="st4" d="M294.6,32.5V14.6H306v3.6h-7.1v3.9h6.1v3.6h-6.1v6.8H294.6z"/>
					<path class="st4" d="M309.1,32.5V14.6h11.3v3.6h-7v3.3h6v3.6h-6v3.8h7.3v3.6H309.1z"/>
					<path class="st4" d="M326.2,32.2c-1.2-0.4-2.2-1.1-3.1-1.9l2.4-3c0.6,0.5,1.3,1,2.1,1.3s1.5,0.5,2.2,0.5c0.8,0,1.3-0.1,1.7-0.4
						c0.4-0.3,0.6-0.7,0.6-1.2c0-0.3-0.1-0.6-0.3-0.8c-0.2-0.2-0.4-0.4-0.7-0.5c-0.3-0.1-0.8-0.4-1.5-0.7l-2.3-1
						c-1.1-0.4-1.9-1-2.6-1.9c-0.7-0.8-1-1.8-1-3c0-1,0.3-1.9,0.8-2.7c0.6-0.8,1.3-1.5,2.3-2s2.1-0.7,3.3-0.7c1.1,0,2.1,0.2,3.1,0.6
						c1,0.4,1.9,1,2.7,1.8l-2.1,2.7c-0.6-0.5-1.2-0.8-1.8-1c-0.6-0.2-1.2-0.3-1.9-0.3c-0.7,0-1.2,0.1-1.5,0.4S328,19,328,19.5
						c0,0.3,0.1,0.6,0.3,0.8s0.5,0.4,0.8,0.6s0.8,0.4,1.6,0.7l2.2,0.9c1.2,0.5,2,1.1,2.6,1.9s0.9,1.8,0.9,3c0,1-0.3,1.9-0.8,2.8
						c-0.5,0.8-1.3,1.5-2.4,2c-1,0.5-2.2,0.8-3.6,0.8C328.6,32.8,327.4,32.6,326.2,32.2z"/>
					<path class="st4" d="M343,32.5V18.2h-4.8v-3.6h14v3.6h-4.8v14.3H343z"/>
					<path class="st4" d="M354.9,32.5V14.6h4.3v17.9H354.9z"/>
					<path class="st4" d="M361.1,14.6h4.5l2,8.2c0.2,0.7,0.5,1.7,0.8,3.2c0.3,1.3,0.5,2.1,0.6,2.5h0.1c0.1-0.4,0.4-1.4,0.7-3
						c0.2-0.8,0.4-1.7,0.6-2.7l2-8.2h4.4l-5.4,17.9h-5.2L361.1,14.6z"/>
					<path class="st4" d="M375.3,32.5l5.5-17.9h5.1l5.5,17.9H387l-1-4.1h-5.3l-1,4.1H375.3z M381.5,25.1h3.6l-0.4-1.5
						c-0.2-0.7-0.4-1.7-0.7-3l-0.7-2.7h-0.1c-0.6,2.7-1.1,4.6-1.4,5.7L381.5,25.1z"/>
					<path class="st4" d="M393.4,32.5V14.6h4.3v14.3h7v3.6H393.4z"/>
				</g>
				<g class="st3">
					<path class="st5" d="M11,30.1c2.5-2.3,4.3-4.2,5.6-5.7c1.2-1.6,1.9-2.9,1.9-4.2c0-0.8-0.2-1.4-0.6-1.9c-0.4-0.4-1-0.7-1.7-0.7
						c-0.6,0-1.1,0.2-1.5,0.5c-0.5,0.3-1,0.7-1.5,1.3l-2.3-2.3c0.9-1,1.8-1.7,2.7-2.1c0.9-0.4,2-0.7,3.2-0.7s2.2,0.2,3,0.7
						c0.9,0.5,1.6,1.1,2.1,2c0.5,0.8,0.7,1.8,0.7,3c0,2.5-1.8,5.6-5.4,9.2c1.2-0.2,2.2-0.2,2.9-0.2h3.3v3.6H11V30.1z"/>
					<path class="st5" d="M28.6,31.8c-1-0.7-1.7-1.8-2.2-3.2c-0.5-1.4-0.8-3.1-0.8-5.1s0.3-3.7,0.8-5.1s1.3-2.4,2.2-3.1
						c0.9-0.7,2.1-1,3.3-1s2.4,0.3,3.3,1s1.7,1.7,2.2,3.1s0.8,3.1,0.8,5.1s-0.3,3.7-0.8,5.1s-1.3,2.5-2.2,3.2
						c-1,0.7-2.1,1.1-3.3,1.1S29.6,32.5,28.6,31.8z M33.6,28.2c0.4-0.9,0.6-2.5,0.6-4.7c0-2.3-0.2-3.8-0.6-4.6s-1-1.3-1.7-1.3
						s-1.3,0.4-1.7,1.3c-0.4,0.8-0.6,2.4-0.6,4.6c0,2.3,0.2,3.8,0.6,4.7c0.4,0.9,1,1.3,1.7,1.3C32.7,29.5,33.2,29.1,33.6,28.2z"/>
					<path class="st5" d="M40.2,30.1c2.5-2.3,4.3-4.2,5.6-5.7c1.2-1.6,1.9-2.9,1.9-4.2c0-0.8-0.2-1.4-0.6-1.9
						c-0.4-0.4-1-0.7-1.7-0.7c-0.6,0-1.1,0.2-1.5,0.5c-0.5,0.3-1,0.7-1.5,1.3L40,17.1c0.9-1,1.8-1.7,2.7-2.1c0.9-0.4,2-0.7,3.2-0.7
						s2.2,0.2,3,0.7c0.9,0.5,1.6,1.1,2.1,2c0.5,0.8,0.7,1.8,0.7,3c0,2.5-1.8,5.6-5.4,9.2c1.2-0.2,2.2-0.2,2.9-0.2h3.3v3.6H40.2V30.1
						z"/>
					<path class="st5" d="M55.7,29h3.8V18.9h-3.3v-2.6c0.9-0.2,1.8-0.4,2.4-0.6c0.7-0.3,1.3-0.6,2-1h3.1V29H67v3.5H55.7V29z"/>
					<path class="st5" d="M82.5,14.6h4.6l2.8,7.7c0.1,0.4,0.2,0.7,0.3,1.1c0.1,0.3,0.2,0.6,0.3,0.9l0.4,1.2H91
						c0.1-0.4,0.3-1,0.5-1.7c0.2-0.6,0.3-1.1,0.5-1.5l2.7-7.7h4.7v17.9h-3.9v-6.1c0-1.3,0.2-3.4,0.6-6.2H96l-1.5,4.3L92.1,31h-2.4
						l-2.4-6.5l-1.4-4.3h-0.1c0.2,1.4,0.3,2.6,0.4,3.6s0.1,1.9,0.1,2.6v6.1h-3.8C82.5,32.5,82.5,14.6,82.5,14.6z"/>
					<path class="st5" d="M103.6,32.5V14.6h11.3v3.6h-7v3.3h6v3.6h-6v3.8h7.3v3.6H103.6z"/>
					<path class="st5" d="M118.7,32.5V14.6h4.3v17.9H118.7z"/>
					<path class="st5" d="M127.1,32.5V14.6h11.3v3.6h-7v3.3h6v3.6h-6v3.8h7.3v3.6H127.1z"/>
					<path class="st5" d="M142.2,32.5V14.6h4.3v7.1h0.1l5.1-7.1h4.7l-5.4,7.2l6.4,10.7h-4.7l-4.2-7.3l-1.9,2.6v4.7H142.2z"/>
					<path class="st5" d="M159.2,32.5V14.6h4.3v17.9H159.2z"/>
					<path class="st5" d="M182.9,31.8c-1.3-0.7-2.3-1.7-3-3.1c-0.8-1.4-1.1-3-1.1-5c0-1.9,0.4-3.6,1.2-5s1.8-2.5,3.1-3.2
						s2.7-1.1,4.2-1.1c1.1,0,2.1,0.2,3,0.6c0.9,0.4,1.7,1,2.4,1.7l-2.2,2.7c-0.5-0.4-1-0.8-1.5-1s-1-0.4-1.6-0.4
						c-0.8,0-1.5,0.2-2.1,0.7c-0.6,0.4-1.1,1.1-1.5,1.9s-0.6,1.8-0.6,2.9c0,1.8,0.4,3.1,1.1,4.1c0.7,1,1.8,1.5,3,1.5
						c1.3,0,2.4-0.5,3.4-1.6l2.3,2.7c-1.5,1.8-3.5,2.6-5.8,2.6C185.6,32.8,184.2,32.5,182.9,31.8z"/>
					<path class="st5" d="M193.4,32.5l5.5-17.9h5.1l5.5,17.9H205l-1-4.1h-5.3l-1,4.1H193.4z M199.6,25.1h3.6l-0.4-1.5
						c-0.2-0.7-0.4-1.7-0.7-3l-0.7-2.7h-0.1c-0.6,2.7-1.1,4.6-1.4,5.7L199.6,25.1z"/>
					<path class="st5" d="M211.5,14.6h4.6l2.8,7.7c0.1,0.4,0.2,0.7,0.3,1.1c0.1,0.3,0.2,0.6,0.3,0.9l0.4,1.2h0.1
						c0.1-0.4,0.3-1,0.5-1.7c0.2-0.6,0.3-1.1,0.5-1.5l2.7-7.7h4.7v17.9h-3.9v-6.1c0-1.3,0.2-3.4,0.6-6.2H225l-1.5,4.3l-2.4,6.5h-2.4
						l-2.4-6.5l-1.4-4.3h-0.1c0.2,1.4,0.3,2.6,0.4,3.6c0.1,1,0.1,1.9,0.1,2.6v6.1h-3.8L211.5,14.6L211.5,14.6z"/>
					<path class="st5" d="M238.8,14.6c2.2,0,3.9,0.5,5.2,1.4s2,2.4,2,4.5c0,1.4-0.3,2.5-0.9,3.4s-1.5,1.6-2.5,2s-2.3,0.7-3.6,0.7
						h-2.1v5.9h-4.3V14.6H238.8z M238.7,23.2c1,0,1.8-0.2,2.3-0.7s0.8-1.1,0.8-2s-0.3-1.5-0.8-1.9s-1.3-0.6-2.4-0.6h-1.8v5.2H238.7z
						"/>
					<path class="st5" d="M250.7,30.7c-1.2-1.4-1.8-3.6-1.8-6.6v-9.5h4.3v9.9c0,1.6,0.2,2.8,0.7,3.5s1.2,1.1,2.2,1.1
						c1,0,1.8-0.4,2.3-1.1s0.8-1.9,0.8-3.5v-9.9h4.1v9.5c0,3-0.6,5.2-1.8,6.6s-3,2.1-5.4,2.1C253.7,32.8,251.9,32.1,250.7,30.7z"/>
					<path class="st5" d="M269.3,32.2c-1.2-0.4-2.2-1.1-3.1-1.9l2.4-3c0.6,0.5,1.3,1,2.1,1.3s1.5,0.5,2.2,0.5c0.8,0,1.3-0.1,1.7-0.4
						c0.4-0.3,0.6-0.7,0.6-1.2c0-0.3-0.1-0.6-0.3-0.8c-0.2-0.2-0.4-0.4-0.7-0.5c-0.3-0.1-0.8-0.4-1.5-0.7l-2.3-1
						c-1.1-0.4-1.9-1-2.6-1.9c-0.7-0.8-1-1.8-1-3c0-1,0.3-1.9,0.8-2.7c0.6-0.8,1.3-1.5,2.3-2s2.1-0.7,3.3-0.7c1.1,0,2.1,0.2,3.1,0.6
						c1,0.4,1.9,1,2.7,1.8l-2.1,2.7c-0.6-0.5-1.2-0.8-1.8-1c-0.6-0.2-1.2-0.3-1.9-0.3c-0.7,0-1.2,0.1-1.5,0.4s-0.6,0.6-0.6,1.1
						c0,0.3,0.1,0.6,0.3,0.8s0.5,0.4,0.8,0.6s0.8,0.4,1.6,0.7l2.2,0.9c1.2,0.5,2,1.1,2.6,1.9s0.9,1.8,0.9,3c0,1-0.3,1.9-0.8,2.8
						c-0.5,0.8-1.3,1.5-2.4,2c-1,0.5-2.2,0.8-3.6,0.8C271.6,32.8,270.5,32.6,269.3,32.2z"/>
					<path class="st5" d="M294.6,32.5V14.6H306v3.6h-7.1v3.9h6.1v3.6h-6.1v6.8H294.6z"/>
					<path class="st5" d="M309.1,32.5V14.6h11.3v3.6h-7v3.3h6v3.6h-6v3.8h7.3v3.6H309.1z"/>
					<path class="st5" d="M326.2,32.2c-1.2-0.4-2.2-1.1-3.1-1.9l2.4-3c0.6,0.5,1.3,1,2.1,1.3s1.5,0.5,2.2,0.5c0.8,0,1.3-0.1,1.7-0.4
						c0.4-0.3,0.6-0.7,0.6-1.2c0-0.3-0.1-0.6-0.3-0.8c-0.2-0.2-0.4-0.4-0.7-0.5c-0.3-0.1-0.8-0.4-1.5-0.7l-2.3-1
						c-1.1-0.4-1.9-1-2.6-1.9c-0.7-0.8-1-1.8-1-3c0-1,0.3-1.9,0.8-2.7c0.6-0.8,1.3-1.5,2.3-2s2.1-0.7,3.3-0.7c1.1,0,2.1,0.2,3.1,0.6
						c1,0.4,1.9,1,2.7,1.8l-2.1,2.7c-0.6-0.5-1.2-0.8-1.8-1c-0.6-0.2-1.2-0.3-1.9-0.3c-0.7,0-1.2,0.1-1.5,0.4S328,19,328,19.5
						c0,0.3,0.1,0.6,0.3,0.8s0.5,0.4,0.8,0.6s0.8,0.4,1.6,0.7l2.2,0.9c1.2,0.5,2,1.1,2.6,1.9s0.9,1.8,0.9,3c0,1-0.3,1.9-0.8,2.8
						c-0.5,0.8-1.3,1.5-2.4,2c-1,0.5-2.2,0.8-3.6,0.8C328.6,32.8,327.4,32.6,326.2,32.2z"/>
					<path class="st5" d="M343,32.5V18.2h-4.8v-3.6h14v3.6h-4.8v14.3H343z"/>
					<path class="st5" d="M354.9,32.5V14.6h4.3v17.9H354.9z"/>
					<path class="st5" d="M361.1,14.6h4.5l2,8.2c0.2,0.7,0.5,1.7,0.8,3.2c0.3,1.3,0.5,2.1,0.6,2.5h0.1c0.1-0.4,0.4-1.4,0.7-3
						c0.2-0.8,0.4-1.7,0.6-2.7l2-8.2h4.4l-5.4,17.9h-5.2L361.1,14.6z"/>
					<path class="st5" d="M375.3,32.5l5.5-17.9h5.1l5.5,17.9H387l-1-4.1h-5.3l-1,4.1H375.3z M381.5,25.1h3.6l-0.4-1.5
						c-0.2-0.7-0.4-1.7-0.7-3l-0.7-2.7h-0.1c-0.6,2.7-1.1,4.6-1.4,5.7L381.5,25.1z"/>
					<path class="st5" d="M393.4,32.5V14.6h4.3v14.3h7v3.6H393.4z"/>
				</g>
			</g>
			<g transform="matrix(1, 0, 0, 1, 134, 164.5)">
				<g class="st3">
					<path class="st6" d="M102.2,151.2H86.8v-4H56.1v3.9H41.2v-27.2c-6.1,3.4-13.1,6.5-21,9.2c-1-2.2-2.3-4.6-4-7.2
						c-1.7-2.6-3.3-4.6-4.7-6.1C24.3,116,35.8,110.5,46,103c-2.8-3-7.4-7.1-13.8-12.4c-3.1,2.3-6.5,4.6-10.3,6.9
						c-1.1-1.8-2.7-3.9-4.7-6.3c-2.1-2.3-4-4.2-5.7-5.5c8-4.1,14.9-9,20.6-14.6s10.2-11.5,13.4-17.6l16.6,3.3
						c-1.2,2-2.7,4.5-4.7,7.3h20l2.4-0.7l10.3,5.4c-4.8,13.1-12,24.6-21.6,34.6h33.7V151.2z M47.1,77.2L43.5,81
						c6.3,4.6,11.1,8.5,14.6,11.7c4.7-4.8,8.6-10,11.7-15.5H47.1z M56.1,133.8h30.7v-17H56.1V133.8z"/>
				</g>
				<g class="st3">
					<path class="st7" d="M102.2,151.2H86.8v-4H56.1v3.9H41.2v-27.2c-6.1,3.4-13.1,6.5-21,9.2c-1-2.2-2.3-4.6-4-7.2
						c-1.7-2.6-3.3-4.6-4.7-6.1C24.3,116,35.8,110.5,46,103c-2.8-3-7.4-7.1-13.8-12.4c-3.1,2.3-6.5,4.6-10.3,6.9
						c-1.1-1.8-2.7-3.9-4.7-6.3c-2.1-2.3-4-4.2-5.7-5.5c8-4.1,14.9-9,20.6-14.6s10.2-11.5,13.4-17.6l16.6,3.3
						c-1.2,2-2.7,4.5-4.7,7.3h20l2.4-0.7l10.3,5.4c-4.8,13.1-12,24.6-21.6,34.6h33.7V151.2z M47.1,77.2L43.5,81
						c6.3,4.6,11.1,8.5,14.6,11.7c4.7-4.8,8.6-10,11.7-15.5H47.1z M56.1,133.8h30.7v-17H56.1V133.8z"/>
				</g>
				<g class="st3">
					<path class="st8" d="M113.1,141.9c3.2-4.6,5-12.3,5.5-23.2l7.9,1.4c-0.4,6.1-1,11.2-1.8,15.3c-0.8,4.1-2.2,7.6-4.2,10.3
						L113.1,141.9z M194.4,105.4c3.4,16.9,9.6,28.2,18.5,34c-1.6,1.4-3.3,3.2-5.2,5.6c-1.9,2.4-3.4,4.5-4.4,6.4
						c-6.1-4.4-10.8-10.4-14.1-18c-3.4-7.6-6-16.9-7.9-28h-2.1c-0.7,21.1-4.1,36.5-10.4,46.1c-1.2-1-2.9-2.3-5.3-3.7
						c-2.3-1.5-4.4-2.6-6.1-3.4c-0.3,0.9-0.6,1.6-1.1,2.2c-0.9,1.2-1.8,2.1-2.9,2.8c-1,0.6-2.2,1.1-3.6,1.3
						c-2.1,0.4-5.1,0.5-9.1,0.4c-0.1-1.8-0.5-3.8-1-6c-0.5-2.1-1.2-4-2-5.5c1.5,0.2,3.3,0.3,5.3,0.3c1.1,0,2-0.4,2.7-1.3
						c0.7-1.1,1.3-3.5,1.7-7.1l-3.2,1.1c-0.3-1.8-0.8-3.9-1.5-6.3c-0.7-2.4-1.6-4.7-2.4-6.8l5.5-1.8c0.9,1.9,1.7,3.8,2.3,5.7
						c0.1-3.5,0.3-6.1,0.4-7.8H119V57.8h40v11.8h-11.2v4h9.7v11h-9.7v4.3h9.7v11h-9.7v4.4h13.4l-0.2,4.8
						c-0.7,16.9-1.6,27.9-2.9,32.9c3.1-5.6,5.2-12.2,6.1-19.6c1-7.4,1.4-15.8,1.4-25.1V57.7h42.5v47.7H194.4z M132.7,120.7
						c0.6,4.5,0.9,9.3,0.9,14.5c0,2,0,3.5-0.1,4.4l-6.4,0.8c0.1-2.4,0.2-4.5,0.2-6.1c0-4.9-0.2-9.2-0.7-13L132.7,120.7z M136,69.6
						h-4.6v4h4.6V69.6z M136,88.9v-4.3h-4.6v4.3H136z M131.4,99.9v4.4h4.6v-4.4H131.4z M139.4,119.8c0.7,2.5,1.4,5.3,1.9,8.4
						c0.5,3.1,0.9,5.8,1,8.2l-6.3,1.2c-0.1-2.2-0.3-4.8-0.8-8c-0.5-3.1-1.1-6.1-1.7-8.8L139.4,119.8z M194.8,71.2h-15.6v20.7h15.6
						V71.2z"/>
				</g>
				<g class="st3">
					<path class="st7" d="M113.1,141.9c3.2-4.6,5-12.3,5.5-23.2l7.9,1.4c-0.4,6.1-1,11.2-1.8,15.3c-0.8,4.1-2.2,7.6-4.2,10.3
						L113.1,141.9z M194.4,105.4c3.4,16.9,9.6,28.2,18.5,34c-1.6,1.4-3.3,3.2-5.2,5.6c-1.9,2.4-3.4,4.5-4.4,6.4
						c-6.1-4.4-10.8-10.4-14.1-18c-3.4-7.6-6-16.9-7.9-28h-2.1c-0.7,21.1-4.1,36.5-10.4,46.1c-1.2-1-2.9-2.3-5.3-3.7
						c-2.3-1.5-4.4-2.6-6.1-3.4c-0.3,0.9-0.6,1.6-1.1,2.2c-0.9,1.2-1.8,2.1-2.9,2.8c-1,0.6-2.2,1.1-3.6,1.3
						c-2.1,0.4-5.1,0.5-9.1,0.4c-0.1-1.8-0.5-3.8-1-6c-0.5-2.1-1.2-4-2-5.5c1.5,0.2,3.3,0.3,5.3,0.3c1.1,0,2-0.4,2.7-1.3
						c0.7-1.1,1.3-3.5,1.7-7.1l-3.2,1.1c-0.3-1.8-0.8-3.9-1.5-6.3c-0.7-2.4-1.6-4.7-2.4-6.8l5.5-1.8c0.9,1.9,1.7,3.8,2.3,5.7
						c0.1-3.5,0.3-6.1,0.4-7.8H119V57.8h40v11.8h-11.2v4h9.7v11h-9.7v4.3h9.7v11h-9.7v4.4h13.4l-0.2,4.8
						c-0.7,16.9-1.6,27.9-2.9,32.9c3.1-5.6,5.2-12.2,6.1-19.6c1-7.4,1.4-15.8,1.4-25.1V57.7h42.5v47.7H194.4z M132.7,120.7
						c0.6,4.5,0.9,9.3,0.9,14.5c0,2,0,3.5-0.1,4.4l-6.4,0.8c0.1-2.4,0.2-4.5,0.2-6.1c0-4.9-0.2-9.2-0.7-13L132.7,120.7z M136,69.6
						h-4.6v4h4.6V69.6z M136,88.9v-4.3h-4.6v4.3H136z M131.4,99.9v4.4h4.6v-4.4H131.4z M139.4,119.8c0.7,2.5,1.4,5.3,1.9,8.4
						c0.5,3.1,0.9,5.8,1,8.2l-6.3,1.2c-0.1-2.2-0.3-4.8-0.8-8c-0.5-3.1-1.1-6.1-1.7-8.8L139.4,119.8z M194.8,71.2h-15.6v20.7h15.6
						V71.2z"/>
				</g>
				<g class="st3">
					<path class="st9" d="M312.5,65.9c-2.2,4-4.7,8.1-7.7,12.1s-5.9,7.8-8.9,11c5.2,4.2,11.6,7.4,19,9.7c-1.5,1.4-3.1,3.3-4.9,5.8
						s-3.2,4.7-4.2,6.7l-1.9-0.7v12.1h-31v14.7c0,3.4-0.4,6-1.3,7.8s-2.5,3.2-4.9,4.1c-1.8,0.7-3.9,1.3-6.2,1.5
						c-2.3,0.3-5.1,0.4-8.5,0.4h-3.3c-0.3-1.9-1-4.1-1.9-6.6s-1.9-4.6-2.9-6.5c2.8,0.1,6.7,0.2,11.8,0.2c0.8,0,1.4-0.1,1.7-0.3
						s0.5-0.6,0.5-1.2v-14.2h-31.6v-11.7L223,112c-0.9-1.8-2.1-3.9-3.6-6.2c-1.5-2.3-2.9-4.1-4.2-5.4c6.6-2,12.4-4.8,17.5-8.4
						c-2.4-2.2-4.5-4.1-6.4-5.7l-2.7,1.9c-1-1.6-2.3-3.3-4.2-5.3c-1.8-1.9-3.5-3.4-4.9-4.3c5.2-3.3,9.7-7,13.4-11.3
						c3.7-4.2,6.6-8.7,8.7-13.2l13.7,2.4l-1.7,3.5h7.6l2.3-0.5l5.7,2.2l-1.2-4.3l12.6-2.5c1,3.9,2.2,7.8,3.9,11.6v-6.7H300l2.9-0.8
						L312.5,65.9z M248.7,128c-2.3,4.3-5.3,8.4-8.9,12.4c-3.6,4-7.3,7.3-11.1,10c-1.4-1.4-3.3-3-5.8-5s-4.6-3.5-6.4-4.7
						c3.6-2,7-4.6,10.1-7.6s5.5-6.2,7.2-9.4L248.7,128z M301.2,109.4c-6.7-3-12.3-6.7-16.9-11.1v4.7h-38.1v-4
						c-4.9,4.1-10.4,7.6-16.5,10.4H301.2z M233.7,80.3c2.9,2.2,5.2,4,6.9,5.4l2.5-2.8c-1.4-1.2-3.7-2.9-7-5.2L233.7,80.3z
						 M241.9,70.8c1.8,1,4.1,2.4,6.7,4.3c1.2-2,2-3.8,2.5-5.2h-8.6L241.9,70.8z M276.9,89.8c-4.1-5.9-7.7-13.1-10.7-21.6
						c-2.5,8-6.3,15.2-11.2,21.6H276.9z M291.6,123.8c3.7,3,7.5,6.2,11.2,9.7s6.6,6.5,8.5,9.1l-13.3,8.1c-1.7-2.6-4.3-5.7-7.9-9.4
						s-7.2-7.2-10.9-10.4L291.6,123.8z M282.1,72c1.6,3,3.2,5.5,4.8,7.7c1.4-1.8,3.1-4.4,5.2-7.7H282.1z"/>
				</g>
				<g class="st3">
					<path class="st7" d="M312.5,65.9c-2.2,4-4.7,8.1-7.7,12.1s-5.9,7.8-8.9,11c5.2,4.2,11.6,7.4,19,9.7c-1.5,1.4-3.1,3.3-4.9,5.8
						s-3.2,4.7-4.2,6.7l-1.9-0.7v12.1h-31v14.7c0,3.4-0.4,6-1.3,7.8s-2.5,3.2-4.9,4.1c-1.8,0.7-3.9,1.3-6.2,1.5
						c-2.3,0.3-5.1,0.4-8.5,0.4h-3.3c-0.3-1.9-1-4.1-1.9-6.6s-1.9-4.6-2.9-6.5c2.8,0.1,6.7,0.2,11.8,0.2c0.8,0,1.4-0.1,1.7-0.3
						s0.5-0.6,0.5-1.2v-14.2h-31.6v-11.7L223,112c-0.9-1.8-2.1-3.9-3.6-6.2c-1.5-2.3-2.9-4.1-4.2-5.4c6.6-2,12.4-4.8,17.5-8.4
						c-2.4-2.2-4.5-4.1-6.4-5.7l-2.7,1.9c-1-1.6-2.3-3.3-4.2-5.3c-1.8-1.9-3.5-3.4-4.9-4.3c5.2-3.3,9.7-7,13.4-11.3
						c3.7-4.2,6.6-8.7,8.7-13.2l13.7,2.4l-1.7,3.5h7.6l2.3-0.5l5.7,2.2l-1.2-4.3l12.6-2.5c1,3.9,2.2,7.8,3.9,11.6v-6.7H300l2.9-0.8
						L312.5,65.9z M248.7,128c-2.3,4.3-5.3,8.4-8.9,12.4c-3.6,4-7.3,7.3-11.1,10c-1.4-1.4-3.3-3-5.8-5s-4.6-3.5-6.4-4.7
						c3.6-2,7-4.6,10.1-7.6s5.5-6.2,7.2-9.4L248.7,128z M301.2,109.4c-6.7-3-12.3-6.7-16.9-11.1v4.7h-38.1v-4
						c-4.9,4.1-10.4,7.6-16.5,10.4H301.2z M233.7,80.3c2.9,2.2,5.2,4,6.9,5.4l2.5-2.8c-1.4-1.2-3.7-2.9-7-5.2L233.7,80.3z
						 M241.9,70.8c1.8,1,4.1,2.4,6.7,4.3c1.2-2,2-3.8,2.5-5.2h-8.6L241.9,70.8z M276.9,89.8c-4.1-5.9-7.7-13.1-10.7-21.6
						c-2.5,8-6.3,15.2-11.2,21.6H276.9z M291.6,123.8c3.7,3,7.5,6.2,11.2,9.7s6.6,6.5,8.5,9.1l-13.3,8.1c-1.7-2.6-4.3-5.7-7.9-9.4
						s-7.2-7.2-10.9-10.4L291.6,123.8z M282.1,72c1.6,3,3.2,5.5,4.8,7.7c1.4-1.8,3.1-4.4,5.2-7.7H282.1z"/>
				</g>
			</g>
			<g transform="matrix(1, 0, 0, 1, 134, 164.5)">
				<g class="st3">
					<path class="st4" d="M48,210.5h-6.3v-1.6H29v1.6h-6.1v-11.2c-2.5,1.4-5.4,2.7-8.7,3.8c-0.4-0.9-0.9-1.9-1.6-3
						c-0.7-1.1-1.3-1.9-1.9-2.5c5.3-1.5,10-3.8,14.2-6.9c-1.1-1.2-3-2.9-5.7-5.1c-1.3,1-2.7,1.9-4.2,2.9c-0.4-0.8-1.1-1.6-2-2.6
						s-1.6-1.7-2.3-2.2c3.3-1.7,6.1-3.7,8.5-6s4.2-4.7,5.5-7.2l6.8,1.3c-0.5,0.8-1.1,1.8-1.9,3h8.2l1-0.3l4.2,2.2
						c-2,5.4-4.9,10.1-8.9,14.2H48V210.5z M25.3,180l-1.5,1.6c2.6,1.9,4.6,3.5,6,4.8c1.9-2,3.5-4.1,4.8-6.4L25.3,180L25.3,180z
						 M29,203.3h12.6v-7H29V203.3z"/>
					<path class="st4" d="M52.5,206.7c1.3-1.9,2.1-5.1,2.3-9.5l3.2,0.6c-0.2,2.5-0.4,4.6-0.8,6.3s-0.9,3.1-1.7,4.2L52.5,206.7z
						 M85.9,191.6c1.4,6.9,3.9,11.6,7.6,14c-0.6,0.6-1.4,1.3-2.1,2.3c-0.8,1-1.4,1.9-1.8,2.6c-2.5-1.8-4.4-4.3-5.8-7.4
						c-1.4-3.1-2.5-7-3.3-11.5h-0.9c-0.3,8.7-1.7,15-4.3,19c-0.5-0.4-1.2-0.9-2.2-1.5s-1.8-1.1-2.5-1.4c-0.1,0.4-0.3,0.7-0.5,0.9
						c-0.4,0.5-0.8,0.9-1.2,1.1c-0.4,0.3-0.9,0.4-1.5,0.5c-0.9,0.2-2.1,0.2-3.7,0.2c-0.1-0.8-0.2-1.6-0.4-2.5s-0.5-1.6-0.8-2.2
						c0.6,0.1,1.3,0.1,2.2,0.1c0.4,0,0.8-0.2,1.1-0.5c0.3-0.4,0.5-1.4,0.7-2.9l-1.3,0.5c-0.1-0.7-0.3-1.6-0.6-2.6
						c-0.3-1-0.6-1.9-1-2.8l2.3-0.8c0.4,0.8,0.7,1.6,1,2.4c0.1-1.4,0.1-2.5,0.2-3.2H54.9V172h16.4v4.9h-4.6v1.6h4v4.5h-4v1.8h4v4.5
						h-4v1.8h5.5l-0.1,2c-0.3,7-0.7,11.5-1.2,13.6c1.3-2.3,2.1-5,2.5-8.1s0.6-6.5,0.6-10.3V172h17.5v19.7L85.9,191.6L85.9,191.6z
						 M60.5,197.9c0.3,1.8,0.4,3.8,0.4,6c0,0.8,0,1.4,0,1.8l-2.6,0.3c0.1-1,0.1-1.8,0.1-2.5c0-2-0.1-3.8-0.3-5.3L60.5,197.9z
						 M61.9,176.9H60v1.6h1.9V176.9z M61.9,184.8V183H60v1.8H61.9z M60,189.4v1.8h1.9v-1.8H60z M63.3,197.6c0.3,1,0.6,2.2,0.8,3.4
						c0.2,1.3,0.4,2.4,0.4,3.4l-2.6,0.5c0-0.9-0.1-2-0.3-3.3s-0.4-2.5-0.7-3.6L63.3,197.6z M86.1,177.6h-6.4v8.5h6.4V177.6z"/>
					<path class="st4" d="M123.4,178.9c1.5-3.4,3.5-6.3,5.9-8.6l4.8,2.1c-2.2,2.5-4,5.2-5.4,8.1c-1.3,2.9-2,6.3-2,10.1
						s0.7,7.2,2,10.1c1.3,2.9,3.1,5.6,5.4,8.1l-4.8,2.1c-2.4-2.3-4.4-5.2-5.9-8.6c-1.5-3.4-2.3-7.3-2.3-11.7
						S121.9,182.3,123.4,178.9z"/>
					<path class="st4" d="M169.6,204.7c0.4,0,0.7-0.1,0.9-0.4c0.2-0.3,0.3-0.7,0.4-1.4c0.1-0.7,0.2-1.8,0.2-3.3
						c0.6,0.5,1.4,0.9,2.5,1.4c1.1,0.4,2.1,0.8,3.1,1c-0.2,2.2-0.6,3.9-1,5.1c-0.5,1.2-1.1,2.1-2,2.5c-0.9,0.5-2.1,0.7-3.6,0.7h-4.7
						c-1.8,0-3.3-0.2-4.2-0.7c-1-0.4-1.7-1.2-2-2.2c-0.4-1-0.6-2.5-0.6-4.3v-7.4H155c-0.3,2.6-0.9,4.8-1.8,6.6
						c-0.9,1.8-2.4,3.4-4.5,4.7c-2.1,1.4-5,2.5-8.8,3.4c-0.3-0.8-0.8-1.8-1.5-2.9s-1.3-1.9-1.9-2.6c3.2-0.6,5.6-1.3,7.2-2.2
						c1.7-0.9,2.8-1.8,3.4-2.9c0.6-1.1,1.1-2.5,1.3-4.2h-7.1v-10.2l-0.5,0.3c-0.4-0.8-1.1-1.6-1.9-2.6s-1.6-1.7-2.2-2.2
						c2.7-1.4,5-3,6.9-4.9s3.5-3.8,4.6-5.9l6.6,1.3l-0.9,1.4h7.1l1-0.3l4.3,2.8c-0.9,1.6-2.1,3.3-3.4,5.1h10.5v15.1H165v7.3
						c0,0.7,0.1,1.1,0.3,1.3s0.6,0.3,1.2,0.3h3.1V204.7z M147.5,186.1v4.3h6.4v-4.3H147.5z M150.3,178c-0.5,0.6-1.4,1.5-2.6,2.7h8
						c0.7-0.9,1.4-1.8,1.9-2.7H150.3z M167,190.4v-4.3h-7.1v4.3H167z"/>
					<path class="st4" d="M215.8,194.9c-1.3,3.7-3.3,6.6-6,8.9c2.6,0.7,5.8,1.1,9.6,1.3c-0.6,0.6-1.3,1.5-2,2.5
						c-0.7,1.1-1.2,2.1-1.6,3c-5.1-0.5-9.2-1.5-12.2-3c-3.1,1.3-6.8,2.3-11.3,3c-0.3-0.8-0.7-1.7-1.2-2.6c-0.5-1-1-1.7-1.5-2.4
						c3.2-0.3,6.1-0.9,8.8-1.7c-1.3-1.3-2.4-2.8-3.4-4.6l3.8-0.9h-5.6v-4.9h0.5c-0.8-1.1-1.7-2.2-2.7-3.2
						c-0.4,9.1-2.7,15.7-6.8,19.8c-0.4-0.6-1.1-1.3-2.1-2.2s-1.7-1.5-2.3-1.9c2.1-2.2,3.6-4.9,4.5-8.4l-1.3,0.8l-2.7,1.6l-1.7-5.8
						c1.2-0.4,3.4-1.5,6.6-3c0.1-0.9,0.1-2.2,0.1-3.9v-0.9l-3.9,2.1c-0.2-1-0.5-2.3-1-3.8s-1-2.9-1.7-4.3l4.4-2.2
						c0.9,1.8,1.6,3.4,2.1,4.9v-8.4h12.4v-4.2h6.5v4.2h14.4v5.4h-27.6v7.2c0,1,0,1.8,0,2.4c1.3-0.4,2.4-0.8,3-1.3
						c0.7-0.5,1.1-1,1.3-1.5s0.3-1.1,0.3-1.9v-3.5h16.3v5.1c0,0.6,0,0.9,0.1,1s0.2,0.2,0.4,0.2h0.8c0.3,0,0.4-0.2,0.5-0.7
						c0.1-0.4,0.2-1.3,0.2-2.7c0.5,0.4,1.3,0.8,2.3,1.2s1.9,0.7,2.7,0.8c-0.2,1.6-0.4,2.8-0.8,3.7c-0.4,0.9-0.9,1.5-1.6,1.8
						c-0.7,0.4-1.6,0.5-2.6,0.5h-2.6c-1.4,0-2.5-0.2-3.2-0.5c-0.8-0.4-1.3-1-1.6-1.8s-0.5-2-0.5-3.6v-0.2h-4.8
						c-0.1,1.5-0.6,2.8-1.3,3.9c-0.7,1.1-1.8,2.1-3.4,2.9h14.2l1.1-0.2L215.8,194.9z M200.9,198.4c0.8,1.1,1.8,2.1,3,2.9
						c1.3-0.9,2.5-1.8,3.4-2.9H200.9z"/>
					<path class="st4" d="M232.6,202.2c-1.5,3.4-3.5,6.3-5.9,8.6l-4.8-2.1c2.2-2.5,4-5.2,5.4-8.1c1.3-2.9,2-6.3,2-10.1
						s-0.7-7.2-2-10.1c-1.3-2.9-3.1-5.6-5.4-8.1l4.8-2.1c2.4,2.3,4.4,5.2,5.9,8.6s2.3,7.3,2.3,11.7S234.1,198.8,232.6,202.2z"/>
					<path class="st4" d="M285.9,173.8h15.7v5.2h-37.1v-5.2h15.1v-3.3h6.3V173.8z M300.3,204.3c0,1.4-0.2,2.5-0.5,3.3
						s-0.9,1.4-1.8,1.8c-0.8,0.4-1.7,0.7-2.8,0.8c-1,0.1-2.3,0.2-4,0.2c-0.1-1-0.4-2-0.8-3.2h-10.5v1.8h-5.2v-11.5H291v7.3
						c1.2,0.1,2,0.1,2.4,0c0.3,0,0.5,0,0.6-0.1s0.2-0.2,0.2-0.5V196H272v14.5h-6V191h34.4v13.3H300.3z M294.6,180.2v9.6h-23.4v-9.6
						H294.6z M288.5,185.8v-1.7h-11.4v1.7H288.5z M285.7,203.3v-1.8h-5.6v1.8H285.7z"/>
					<path class="st4" d="M309.1,176.7h5.6c0,0.1,0,0.6,0.1,1.6s0.2,2.3,0.4,3.9c1-0.6,2-1,3.1-1.3s2.3-0.4,3.6-0.4
						c0.3-1.7,0.4-3,0.5-4.1c0.1-1,0.1-1.6,0.1-1.6h6.1c0,0-0.1,0.6-0.2,1.8c-0.2,1.2-0.4,2.8-0.7,4.7c2.5,0.8,4.3,2.2,5.6,4.1
						c1.3,1.9,2.1,3.9,2.4,5.9c0.3,2.1,0.4,3.8,0.3,5.3c-0.3,2.7-1,4.9-2.1,6.6c-1.1,1.7-2.4,3-3.7,3.9s-2.7,1.5-4,1.9
						s-2.8,0.6-4.6,0.7v-6.6c1.6-0.1,2.9-0.3,4-0.7c1-0.4,1.9-1.1,2.7-2c0.7-1,1.2-2.4,1.4-4.2c0.2-2,0-3.8-0.7-5.6s-1.6-2.8-2.7-3
						c-0.6,2-1.2,3.9-1.8,6c-0.7,2-1.4,3.9-2.2,5.7c-0.6,1.3-1.3,2.7-2.2,3.9c-0.9,1.3-1.9,2.3-3.1,3.2c-1.2,0.8-2.5,1.3-3.9,1.3
						c-1.7-0.1-3-0.6-4-1.8c-1-1.1-1.7-2.5-2.1-4.1s-0.6-3.2-0.5-4.7c0-0.8,0.2-1.8,0.4-3c0.3-1.2,0.7-2.5,1.3-3.9
						c0.6-1.4,1.4-2.8,2.4-4.1c-0.3-1.6-0.6-3.1-0.8-4.5s-0.4-2.6-0.5-3.4C309.1,177.2,309.1,176.8,309.1,176.7z M313.2,201.1
						c0.3,0.1,0.7,0,1.1-0.2s0.9-0.7,1.5-1.5c-0.5-0.8-1-1.7-1.6-2.8s-1.1-2.2-1.7-3.5c-0.3,0.7-0.5,1.4-0.7,2.1
						c-0.2,0.7-0.3,1.3-0.3,1.9c-0.1,1.4,0.1,2.4,0.4,3C312.3,200.8,312.7,201.1,313.2,201.1z M316.5,188.5c0,0.1,0.2,0.6,0.5,1.7
						c0.3,1.1,0.9,2.3,1.7,3.7c0.4-1.1,0.8-2.3,1.2-3.4c0.3-1.2,0.7-2.3,0.9-3.5c-0.6,0-1.3,0.1-2.1,0.3S317.1,188,316.5,188.5z"/>
					<path class="st4" d="M343.4,183.1v-6.6h19.8v5.8l-8,6.8c2.6-0.8,4.8-0.9,6.7-0.3c1.8,0.6,3.3,1.8,4.4,3.4
						c1.1,1.7,1.7,3.6,1.7,5.9c0.1,4.7-1.7,8-5.5,9.9s-9.4,2.2-16.8,0.9v-6.5c4.5,0.9,8,1.2,10.4,0.9s4-0.9,4.7-1.8
						c0.7-1,1.1-2.1,1-3.4c0-1.3-0.5-2.4-1.4-3.2s-2.7-1.1-5.2-0.8c-1,0.1-2.2,0.4-3.6,1s-3,1.5-4.7,2.8c-1.8,1.3-3.8,3.2-6.1,5.5
						v-8.9l12.9-11.3L343.4,183.1L343.4,183.1z"/>
					<path class="st4" d="M388.1,205.8c-0.8-0.8-1.2-1.8-1.2-3.1c0-1.2,0.4-2.2,1.2-3s1.8-1.2,3.1-1.2c1.2,0,2.3,0.4,3.1,1.2
						c0.8,0.8,1.2,1.8,1.2,3s-0.4,2.3-1.2,3.1c-0.8,0.8-1.8,1.2-3.1,1.2C390,207,388.9,206.6,388.1,205.8z M388.6,195.3l-1.3-13.3
						l-0.3-7h8.2l-0.3,7l-1.3,13.3H388.6z"/>
				</g>
				<g class="st3">
					<path class="st5" d="M48,210.5h-6.3v-1.6H29v1.6h-6.1v-11.2c-2.5,1.4-5.4,2.7-8.7,3.8c-0.4-0.9-0.9-1.9-1.6-3
						c-0.7-1.1-1.3-1.9-1.9-2.5c5.3-1.5,10-3.8,14.2-6.9c-1.1-1.2-3-2.9-5.7-5.1c-1.3,1-2.7,1.9-4.2,2.9c-0.4-0.8-1.1-1.6-2-2.6
						s-1.6-1.7-2.3-2.2c3.3-1.7,6.1-3.7,8.5-6s4.2-4.7,5.5-7.2l6.8,1.3c-0.5,0.8-1.1,1.8-1.9,3h8.2l1-0.3l4.2,2.2
						c-2,5.4-4.9,10.1-8.9,14.2H48V210.5z M25.3,180l-1.5,1.6c2.6,1.9,4.6,3.5,6,4.8c1.9-2,3.5-4.1,4.8-6.4L25.3,180L25.3,180z
						 M29,203.3h12.6v-7H29V203.3z"/>
					<path class="st5" d="M52.5,206.7c1.3-1.9,2.1-5.1,2.3-9.5l3.2,0.6c-0.2,2.5-0.4,4.6-0.8,6.3s-0.9,3.1-1.7,4.2L52.5,206.7z
						 M85.9,191.6c1.4,6.9,3.9,11.6,7.6,14c-0.6,0.6-1.4,1.3-2.1,2.3c-0.8,1-1.4,1.9-1.8,2.6c-2.5-1.8-4.4-4.3-5.8-7.4
						c-1.4-3.1-2.5-7-3.3-11.5h-0.9c-0.3,8.7-1.7,15-4.3,19c-0.5-0.4-1.2-0.9-2.2-1.5s-1.8-1.1-2.5-1.4c-0.1,0.4-0.3,0.7-0.5,0.9
						c-0.4,0.5-0.8,0.9-1.2,1.1c-0.4,0.3-0.9,0.4-1.5,0.5c-0.9,0.2-2.1,0.2-3.7,0.2c-0.1-0.8-0.2-1.6-0.4-2.5s-0.5-1.6-0.8-2.2
						c0.6,0.1,1.3,0.1,2.2,0.1c0.4,0,0.8-0.2,1.1-0.5c0.3-0.4,0.5-1.4,0.7-2.9l-1.3,0.5c-0.1-0.7-0.3-1.6-0.6-2.6
						c-0.3-1-0.6-1.9-1-2.8l2.3-0.8c0.4,0.8,0.7,1.6,1,2.4c0.1-1.4,0.1-2.5,0.2-3.2H54.9V172h16.4v4.9h-4.6v1.6h4v4.5h-4v1.8h4v4.5
						h-4v1.8h5.5l-0.1,2c-0.3,7-0.7,11.5-1.2,13.6c1.3-2.3,2.1-5,2.5-8.1s0.6-6.5,0.6-10.3V172h17.5v19.7L85.9,191.6L85.9,191.6z
						 M60.5,197.9c0.3,1.8,0.4,3.8,0.4,6c0,0.8,0,1.4,0,1.8l-2.6,0.3c0.1-1,0.1-1.8,0.1-2.5c0-2-0.1-3.8-0.3-5.3L60.5,197.9z
						 M61.9,176.9H60v1.6h1.9V176.9z M61.9,184.8V183H60v1.8H61.9z M60,189.4v1.8h1.9v-1.8H60z M63.3,197.6c0.3,1,0.6,2.2,0.8,3.4
						c0.2,1.3,0.4,2.4,0.4,3.4l-2.6,0.5c0-0.9-0.1-2-0.3-3.3s-0.4-2.5-0.7-3.6L63.3,197.6z M86.1,177.6h-6.4v8.5h6.4V177.6z"/>
					<path class="st5" d="M123.4,178.9c1.5-3.4,3.5-6.3,5.9-8.6l4.8,2.1c-2.2,2.5-4,5.2-5.4,8.1c-1.3,2.9-2,6.3-2,10.1
						s0.7,7.2,2,10.1c1.3,2.9,3.1,5.6,5.4,8.1l-4.8,2.1c-2.4-2.3-4.4-5.2-5.9-8.6c-1.5-3.4-2.3-7.3-2.3-11.7
						S121.9,182.3,123.4,178.9z"/>
					<path class="st5" d="M169.6,204.7c0.4,0,0.7-0.1,0.9-0.4c0.2-0.3,0.3-0.7,0.4-1.4c0.1-0.7,0.2-1.8,0.2-3.3
						c0.6,0.5,1.4,0.9,2.5,1.4c1.1,0.4,2.1,0.8,3.1,1c-0.2,2.2-0.6,3.9-1,5.1c-0.5,1.2-1.1,2.1-2,2.5c-0.9,0.5-2.1,0.7-3.6,0.7h-4.7
						c-1.8,0-3.3-0.2-4.2-0.7c-1-0.4-1.7-1.2-2-2.2c-0.4-1-0.6-2.5-0.6-4.3v-7.4H155c-0.3,2.6-0.9,4.8-1.8,6.6
						c-0.9,1.8-2.4,3.4-4.5,4.7c-2.1,1.4-5,2.5-8.8,3.4c-0.3-0.8-0.8-1.8-1.5-2.9s-1.3-1.9-1.9-2.6c3.2-0.6,5.6-1.3,7.2-2.2
						c1.7-0.9,2.8-1.8,3.4-2.9c0.6-1.1,1.1-2.5,1.3-4.2h-7.1v-10.2l-0.5,0.3c-0.4-0.8-1.1-1.6-1.9-2.6s-1.6-1.7-2.2-2.2
						c2.7-1.4,5-3,6.9-4.9s3.5-3.8,4.6-5.9l6.6,1.3l-0.9,1.4h7.1l1-0.3l4.3,2.8c-0.9,1.6-2.1,3.3-3.4,5.1h10.5v15.1H165v7.3
						c0,0.7,0.1,1.1,0.3,1.3s0.6,0.3,1.2,0.3h3.1V204.7z M147.5,186.1v4.3h6.4v-4.3H147.5z M150.3,178c-0.5,0.6-1.4,1.5-2.6,2.7h8
						c0.7-0.9,1.4-1.8,1.9-2.7H150.3z M167,190.4v-4.3h-7.1v4.3H167z"/>
					<path class="st5" d="M215.8,194.9c-1.3,3.7-3.3,6.6-6,8.9c2.6,0.7,5.8,1.1,9.6,1.3c-0.6,0.6-1.3,1.5-2,2.5
						c-0.7,1.1-1.2,2.1-1.6,3c-5.1-0.5-9.2-1.5-12.2-3c-3.1,1.3-6.8,2.3-11.3,3c-0.3-0.8-0.7-1.7-1.2-2.6c-0.5-1-1-1.7-1.5-2.4
						c3.2-0.3,6.1-0.9,8.8-1.7c-1.3-1.3-2.4-2.8-3.4-4.6l3.8-0.9h-5.6v-4.9h0.5c-0.8-1.1-1.7-2.2-2.7-3.2
						c-0.4,9.1-2.7,15.7-6.8,19.8c-0.4-0.6-1.1-1.3-2.1-2.2s-1.7-1.5-2.3-1.9c2.1-2.2,3.6-4.9,4.5-8.4l-1.3,0.8l-2.7,1.6l-1.7-5.8
						c1.2-0.4,3.4-1.5,6.6-3c0.1-0.9,0.1-2.2,0.1-3.9v-0.9l-3.9,2.1c-0.2-1-0.5-2.3-1-3.8s-1-2.9-1.7-4.3l4.4-2.2
						c0.9,1.8,1.6,3.4,2.1,4.9v-8.4h12.4v-4.2h6.5v4.2h14.4v5.4h-27.6v7.2c0,1,0,1.8,0,2.4c1.3-0.4,2.4-0.8,3-1.3
						c0.7-0.5,1.1-1,1.3-1.5s0.3-1.1,0.3-1.9v-3.5h16.3v5.1c0,0.6,0,0.9,0.1,1s0.2,0.2,0.4,0.2h0.8c0.3,0,0.4-0.2,0.5-0.7
						c0.1-0.4,0.2-1.3,0.2-2.7c0.5,0.4,1.3,0.8,2.3,1.2s1.9,0.7,2.7,0.8c-0.2,1.6-0.4,2.8-0.8,3.7c-0.4,0.9-0.9,1.5-1.6,1.8
						c-0.7,0.4-1.6,0.5-2.6,0.5h-2.6c-1.4,0-2.5-0.2-3.2-0.5c-0.8-0.4-1.3-1-1.6-1.8s-0.5-2-0.5-3.6v-0.2h-4.8
						c-0.1,1.5-0.6,2.8-1.3,3.9c-0.7,1.1-1.8,2.1-3.4,2.9h14.2l1.1-0.2L215.8,194.9z M200.9,198.4c0.8,1.1,1.8,2.1,3,2.9
						c1.3-0.9,2.5-1.8,3.4-2.9H200.9z"/>
					<path class="st5" d="M232.6,202.2c-1.5,3.4-3.5,6.3-5.9,8.6l-4.8-2.1c2.2-2.5,4-5.2,5.4-8.1c1.3-2.9,2-6.3,2-10.1
						s-0.7-7.2-2-10.1c-1.3-2.9-3.1-5.6-5.4-8.1l4.8-2.1c2.4,2.3,4.4,5.2,5.9,8.6s2.3,7.3,2.3,11.7S234.1,198.8,232.6,202.2z"/>
					<path class="st5" d="M285.9,173.8h15.7v5.2h-37.1v-5.2h15.1v-3.3h6.3V173.8z M300.3,204.3c0,1.4-0.2,2.5-0.5,3.3
						s-0.9,1.4-1.8,1.8c-0.8,0.4-1.7,0.7-2.8,0.8c-1,0.1-2.3,0.2-4,0.2c-0.1-1-0.4-2-0.8-3.2h-10.5v1.8h-5.2v-11.5H291v7.3
						c1.2,0.1,2,0.1,2.4,0c0.3,0,0.5,0,0.6-0.1s0.2-0.2,0.2-0.5V196H272v14.5h-6V191h34.4v13.3H300.3z M294.6,180.2v9.6h-23.4v-9.6
						H294.6z M288.5,185.8v-1.7h-11.4v1.7H288.5z M285.7,203.3v-1.8h-5.6v1.8H285.7z"/>
					<path class="st5" d="M309.1,176.7h5.6c0,0.1,0,0.6,0.1,1.6s0.2,2.3,0.4,3.9c1-0.6,2-1,3.1-1.3s2.3-0.4,3.6-0.4
						c0.3-1.7,0.4-3,0.5-4.1c0.1-1,0.1-1.6,0.1-1.6h6.1c0,0-0.1,0.6-0.2,1.8c-0.2,1.2-0.4,2.8-0.7,4.7c2.5,0.8,4.3,2.2,5.6,4.1
						c1.3,1.9,2.1,3.9,2.4,5.9c0.3,2.1,0.4,3.8,0.3,5.3c-0.3,2.7-1,4.9-2.1,6.6c-1.1,1.7-2.4,3-3.7,3.9s-2.7,1.5-4,1.9
						s-2.8,0.6-4.6,0.7v-6.6c1.6-0.1,2.9-0.3,4-0.7c1-0.4,1.9-1.1,2.7-2c0.7-1,1.2-2.4,1.4-4.2c0.2-2,0-3.8-0.7-5.6s-1.6-2.8-2.7-3
						c-0.6,2-1.2,3.9-1.8,6c-0.7,2-1.4,3.9-2.2,5.7c-0.6,1.3-1.3,2.7-2.2,3.9c-0.9,1.3-1.9,2.3-3.1,3.2c-1.2,0.8-2.5,1.3-3.9,1.3
						c-1.7-0.1-3-0.6-4-1.8c-1-1.1-1.7-2.5-2.1-4.1s-0.6-3.2-0.5-4.7c0-0.8,0.2-1.8,0.4-3c0.3-1.2,0.7-2.5,1.3-3.9
						c0.6-1.4,1.4-2.8,2.4-4.1c-0.3-1.6-0.6-3.1-0.8-4.5s-0.4-2.6-0.5-3.4C309.1,177.2,309.1,176.8,309.1,176.7z M313.2,201.1
						c0.3,0.1,0.7,0,1.1-0.2s0.9-0.7,1.5-1.5c-0.5-0.8-1-1.7-1.6-2.8s-1.1-2.2-1.7-3.5c-0.3,0.7-0.5,1.4-0.7,2.1
						c-0.2,0.7-0.3,1.3-0.3,1.9c-0.1,1.4,0.1,2.4,0.4,3C312.3,200.8,312.7,201.1,313.2,201.1z M316.5,188.5c0,0.1,0.2,0.6,0.5,1.7
						c0.3,1.1,0.9,2.3,1.7,3.7c0.4-1.1,0.8-2.3,1.2-3.4c0.3-1.2,0.7-2.3,0.9-3.5c-0.6,0-1.3,0.1-2.1,0.3S317.1,188,316.5,188.5z"/>
					<path class="st5" d="M343.4,183.1v-6.6h19.8v5.8l-8,6.8c2.6-0.8,4.8-0.9,6.7-0.3c1.8,0.6,3.3,1.8,4.4,3.4
						c1.1,1.7,1.7,3.6,1.7,5.9c0.1,4.7-1.7,8-5.5,9.9s-9.4,2.2-16.8,0.9v-6.5c4.5,0.9,8,1.2,10.4,0.9s4-0.9,4.7-1.8
						c0.7-1,1.1-2.1,1-3.4c0-1.3-0.5-2.4-1.4-3.2s-2.7-1.1-5.2-0.8c-1,0.1-2.2,0.4-3.6,1s-3,1.5-4.7,2.8c-1.8,1.3-3.8,3.2-6.1,5.5
						v-8.9l12.9-11.3L343.4,183.1L343.4,183.1z"/>
					<path class="st5" d="M388.1,205.8c-0.8-0.8-1.2-1.8-1.2-3.1c0-1.2,0.4-2.2,1.2-3s1.8-1.2,3.1-1.2c1.2,0,2.3,0.4,3.1,1.2
						c0.8,0.8,1.2,1.8,1.2,3s-0.4,2.3-1.2,3.1c-0.8,0.8-1.8,1.2-3.1,1.2C390,207,388.9,206.6,388.1,205.8z M388.6,195.3l-1.3-13.3
						l-0.3-7h8.2l-0.3,7l-1.3,13.3H388.6z"/>
				</g>
			</g>
		</g>
	</g>
	<g id="レイヤー_2_00000011032112186453848270000001194050748214726050_" class="st2">
		<g>
			<g>
				<path class="st4" d="M10.8,30.1c2.5-2.3,4.3-4.2,5.6-5.7s1.9-2.9,1.9-4.2c0-0.8-0.2-1.4-0.6-1.9c-0.4-0.4-1-0.7-1.7-0.7
					c-0.6,0-1.1,0.2-1.5,0.5c-0.5,0.3-1,0.7-1.5,1.3l-2.3-2.3c0.9-1,1.8-1.7,2.7-2.1c0.9-0.4,2-0.7,3.2-0.7s2.2,0.2,3,0.7
					c0.9,0.5,1.6,1.1,2.1,2c0.5,0.8,0.7,1.8,0.7,3c0,2.5-1.8,5.6-5.4,9.2c1.2-0.2,2.2-0.2,2.9-0.2h3.3v3.6H10.8V30.1z"/>
				<path class="st4" d="M28.4,31.8c-1-0.7-1.7-1.8-2.2-3.2c-0.5-1.4-0.8-3.1-0.8-5.1s0.3-3.7,0.8-5.1s1.3-2.4,2.2-3.1
					c0.9-0.7,2.1-1,3.3-1s2.4,0.3,3.3,1s1.7,1.7,2.2,3.1s0.8,3.1,0.8,5.1s-0.3,3.7-0.8,5.1C36.7,30,36,31.1,35,31.8
					c-1,0.7-2.1,1.1-3.3,1.1S29.4,32.5,28.4,31.8z M33.4,28.2c0.4-0.9,0.6-2.5,0.6-4.7c0-2.3-0.2-3.8-0.6-4.6s-1-1.3-1.7-1.3
					S30.4,18,30,18.9c-0.4,0.8-0.6,2.4-0.6,4.6c0,2.3,0.2,3.8,0.6,4.7c0.4,0.9,1,1.3,1.7,1.3S33,29.1,33.4,28.2z"/>
				<path class="st4" d="M40,30.1c2.5-2.3,4.3-4.2,5.6-5.7s1.9-2.9,1.9-4.2c0-0.8-0.2-1.4-0.6-1.9c-0.4-0.4-1-0.7-1.7-0.7
					c-0.6,0-1.1,0.2-1.5,0.5c-0.5,0.3-1,0.7-1.5,1.3l-2.3-2.3c0.9-1,1.8-1.7,2.7-2.1c0.9-0.4,2-0.7,3.2-0.7s2.2,0.2,3,0.7
					c0.9,0.5,1.6,1.1,2.1,2c0.5,0.8,0.7,1.8,0.7,3c0,2.5-1.8,5.6-5.4,9.2c1.2-0.2,2.2-0.2,2.9-0.2h3.3v3.6H40V30.1z"/>
				<path class="st4" d="M55.5,29h3.8V18.9H56v-2.6c0.9-0.2,1.8-0.4,2.4-0.6c0.7-0.3,1.3-0.6,2-1h3.1V29h3.2v3.5H55.5V29z"/>
				<path class="st4" d="M82.3,14.6h4.6l2.8,7.7c0.1,0.4,0.2,0.7,0.3,1.1c0.1,0.3,0.2,0.6,0.3,0.9l0.4,1.2h0.1
					c0.1-0.4,0.3-1,0.5-1.7c0.2-0.6,0.3-1.1,0.5-1.5l2.7-7.7h4.7v17.9h-3.9v-6.1c0-1.3,0.2-3.4,0.6-6.2h-0.1l-1.5,4.3L91.9,31h-2.4
					l-2.4-6.5l-1.4-4.3h-0.1c0.2,1.4,0.3,2.6,0.4,3.6s0.1,1.9,0.1,2.6v6.1h-3.8C82.3,32.5,82.3,14.6,82.3,14.6z"/>
				<path class="st4" d="M103.4,32.5V14.6h11.3v3.6h-7v3.3h6v3.6h-6v3.8h7.3v3.6H103.4z"/>
				<path class="st4" d="M118.5,32.5V14.6h4.3v17.9H118.5z"/>
				<path class="st4" d="M126.9,32.5V14.6h11.3v3.6h-7v3.3h6v3.6h-6v3.8h7.3v3.6H126.9z"/>
				<path class="st4" d="M142,32.5V14.6h4.3v7.1h0.1l5.1-7.1h4.7l-5.4,7.2l6.4,10.7h-4.7l-4.2-7.3l-1.9,2.6v4.7H142z"/>
				<path class="st4" d="M159,32.5V14.6h4.3v17.9H159z"/>
				<path class="st4" d="M182.7,31.8c-1.3-0.7-2.3-1.7-3-3.1s-1.1-3-1.1-5c0-1.9,0.4-3.6,1.2-5s1.8-2.5,3.1-3.2s2.7-1.1,4.2-1.1
					c1.1,0,2.1,0.2,3,0.6s1.7,1,2.4,1.7l-2.2,2.7c-0.5-0.4-1-0.8-1.5-1s-1-0.4-1.6-0.4c-0.8,0-1.5,0.2-2.1,0.7
					c-0.6,0.4-1.1,1.1-1.5,1.9s-0.6,1.8-0.6,2.9c0,1.8,0.4,3.1,1.1,4.1c0.7,1,1.8,1.5,3,1.5c1.3,0,2.4-0.5,3.4-1.6l2.3,2.7
					c-1.5,1.8-3.5,2.6-5.8,2.6C185.4,32.8,184,32.5,182.7,31.8z"/>
				<path class="st4" d="M193.1,32.5l5.5-17.9h5.1l5.5,17.9h-4.5l-1-4.1h-5.3l-1,4.1H193.1z M199.4,25.1h3.6l-0.4-1.5
					c-0.2-0.7-0.4-1.7-0.7-3l-0.7-2.7h-0.1c-0.6,2.7-1.1,4.6-1.4,5.7L199.4,25.1z"/>
				<path class="st4" d="M211.2,14.6h4.6l2.8,7.7c0.1,0.4,0.2,0.7,0.3,1.1c0.1,0.3,0.2,0.6,0.3,0.9l0.4,1.2h0.1
					c0.1-0.4,0.3-1,0.5-1.7c0.2-0.6,0.3-1.1,0.5-1.5l2.7-7.7h4.7v17.9h-3.9v-6.1c0-1.3,0.2-3.4,0.6-6.2h-0.1l-1.5,4.3l-2.4,6.5h-2.4
					l-2.4-6.5l-1.4-4.3h-0.1c0.2,1.4,0.3,2.6,0.4,3.6c0.1,1,0.1,1.9,0.1,2.6v6.1h-3.8L211.2,14.6L211.2,14.6z"/>
				<path class="st4" d="M238.6,14.6c2.2,0,3.9,0.5,5.2,1.4s2,2.4,2,4.5c0,1.4-0.3,2.5-0.9,3.4c-0.6,0.9-1.5,1.6-2.5,2
					s-2.3,0.7-3.6,0.7h-2.1v5.9h-4.3V14.6H238.6z M238.5,23.2c1,0,1.8-0.2,2.3-0.7s0.8-1.1,0.8-2s-0.3-1.5-0.8-1.9s-1.3-0.6-2.4-0.6
					h-1.8v5.2H238.5z"/>
				<path class="st4" d="M250.5,30.7c-1.2-1.4-1.8-3.6-1.8-6.6v-9.5h4.3v9.9c0,1.6,0.2,2.8,0.7,3.5s1.2,1.1,2.2,1.1s1.8-0.4,2.3-1.1
					s0.8-1.9,0.8-3.5v-9.9h4.1v9.5c0,3-0.6,5.2-1.8,6.6s-3,2.1-5.4,2.1S251.7,32.1,250.5,30.7z"/>
				<path class="st4" d="M269.1,32.2c-1.2-0.4-2.2-1.1-3.1-1.9l2.4-3c0.6,0.5,1.3,1,2.1,1.3c0.8,0.3,1.5,0.5,2.2,0.5
					c0.8,0,1.3-0.1,1.7-0.4c0.4-0.3,0.6-0.7,0.6-1.2c0-0.3-0.1-0.6-0.3-0.8c-0.2-0.2-0.4-0.4-0.7-0.5c-0.3-0.1-0.8-0.4-1.5-0.7
					l-2.3-1c-1.1-0.4-1.9-1-2.6-1.9c-0.7-0.8-1-1.8-1-3c0-1,0.3-1.9,0.8-2.7c0.6-0.8,1.3-1.5,2.3-2s2.1-0.7,3.3-0.7
					c1.1,0,2.1,0.2,3.1,0.6c1,0.4,1.9,1,2.7,1.8l-2.1,2.7c-0.6-0.5-1.2-0.8-1.8-1c-0.6-0.2-1.2-0.3-1.9-0.3c-0.7,0-1.2,0.1-1.5,0.4
					c-0.4,0.3-0.6,0.6-0.6,1.1c0,0.3,0.1,0.6,0.3,0.8s0.5,0.4,0.8,0.6s0.8,0.4,1.6,0.7l2.2,0.9c1.2,0.5,2,1.1,2.6,1.9s0.9,1.8,0.9,3
					c0,1-0.3,1.9-0.8,2.8c-0.5,0.8-1.3,1.5-2.4,2c-1,0.5-2.2,0.8-3.6,0.8C271.4,32.8,270.2,32.6,269.1,32.2z"/>
				<path class="st4" d="M294.4,32.5V14.6h11.4v3.6h-7.1v3.9h6.1v3.6h-6.1v6.8H294.4z"/>
				<path class="st4" d="M308.9,32.5V14.6h11.3v3.6h-7v3.3h6v3.6h-6v3.8h7.3v3.6H308.9z"/>
				<path class="st4" d="M326,32.2c-1.2-0.4-2.2-1.1-3.1-1.9l2.4-3c0.6,0.5,1.3,1,2.1,1.3c0.8,0.3,1.5,0.5,2.2,0.5
					c0.8,0,1.3-0.1,1.7-0.4c0.4-0.3,0.6-0.7,0.6-1.2c0-0.3-0.1-0.6-0.3-0.8c-0.2-0.2-0.4-0.4-0.7-0.5c-0.3-0.1-0.8-0.4-1.5-0.7
					l-2.3-1c-1.1-0.4-1.9-1-2.6-1.9c-0.7-0.8-1-1.8-1-3c0-1,0.3-1.9,0.8-2.7c0.6-0.8,1.3-1.5,2.3-2s2.1-0.7,3.3-0.7
					c1.1,0,2.1,0.2,3.1,0.6c1,0.4,1.9,1,2.7,1.8l-2.1,2.7c-0.6-0.5-1.2-0.8-1.8-1c-0.6-0.2-1.2-0.3-1.9-0.3c-0.7,0-1.2,0.1-1.5,0.4
					c-0.4,0.3-0.6,0.6-0.6,1.1c0,0.3,0.1,0.6,0.3,0.8s0.5,0.4,0.8,0.6s0.8,0.4,1.6,0.7l2.2,0.9c1.2,0.5,2,1.1,2.6,1.9s0.9,1.8,0.9,3
					c0,1-0.3,1.9-0.8,2.8c-0.5,0.8-1.3,1.5-2.4,2c-1,0.5-2.2,0.8-3.6,0.8C328.4,32.8,327.2,32.6,326,32.2z"/>
				<path class="st4" d="M342.8,32.5V18.2H338v-3.6h14v3.6h-4.8v14.3H342.8z"/>
				<path class="st4" d="M354.7,32.5V14.6h4.3v17.9H354.7z"/>
				<path class="st4" d="M360.9,14.6h4.5l2,8.2c0.2,0.7,0.5,1.7,0.8,3.2c0.3,1.3,0.5,2.1,0.6,2.5h0.1c0.1-0.4,0.4-1.4,0.7-3
					c0.2-0.8,0.4-1.7,0.6-2.7l2-8.2h4.4l-5.4,17.9H366L360.9,14.6z"/>
				<path class="st4" d="M375.1,32.5l5.5-17.9h5.1l5.5,17.9h-4.5l-1-4.1h-5.3l-1,4.1H375.1z M381.3,25.1h3.6l-0.4-1.5
					c-0.2-0.7-0.4-1.7-0.7-3l-0.7-2.7H383c-0.6,2.7-1.1,4.6-1.4,5.7L381.3,25.1z"/>
				<path class="st4" d="M393.2,32.5V14.6h4.3v14.3h7v3.6H393.2z"/>
			</g>
			<g>
				<path class="st10" d="M10.8,30.1c2.5-2.3,4.3-4.2,5.6-5.7s1.9-2.9,1.9-4.2c0-0.8-0.2-1.4-0.6-1.9c-0.4-0.4-1-0.7-1.7-0.7
					c-0.6,0-1.1,0.2-1.5,0.5c-0.5,0.3-1,0.7-1.5,1.3l-2.3-2.3c0.9-1,1.8-1.7,2.7-2.1c0.9-0.4,2-0.7,3.2-0.7s2.2,0.2,3,0.7
					c0.9,0.5,1.6,1.1,2.1,2c0.5,0.8,0.7,1.8,0.7,3c0,2.5-1.8,5.6-5.4,9.2c1.2-0.2,2.2-0.2,2.9-0.2h3.3v3.6H10.8V30.1z"/>
				<path class="st10" d="M28.4,31.8c-1-0.7-1.7-1.8-2.2-3.2c-0.5-1.4-0.8-3.1-0.8-5.1s0.3-3.7,0.8-5.1s1.3-2.4,2.2-3.1
					c0.9-0.7,2.1-1,3.3-1s2.4,0.3,3.3,1s1.7,1.7,2.2,3.1s0.8,3.1,0.8,5.1s-0.3,3.7-0.8,5.1C36.7,30,36,31.1,35,31.8
					c-1,0.7-2.1,1.1-3.3,1.1S29.4,32.5,28.4,31.8z M33.4,28.2c0.4-0.9,0.6-2.5,0.6-4.7c0-2.3-0.2-3.8-0.6-4.6s-1-1.3-1.7-1.3
					S30.4,18,30,18.9c-0.4,0.8-0.6,2.4-0.6,4.6c0,2.3,0.2,3.8,0.6,4.7c0.4,0.9,1,1.3,1.7,1.3S33,29.1,33.4,28.2z"/>
				<path class="st10" d="M40,30.1c2.5-2.3,4.3-4.2,5.6-5.7s1.9-2.9,1.9-4.2c0-0.8-0.2-1.4-0.6-1.9c-0.4-0.4-1-0.7-1.7-0.7
					c-0.6,0-1.1,0.2-1.5,0.5c-0.5,0.3-1,0.7-1.5,1.3l-2.3-2.3c0.9-1,1.8-1.7,2.7-2.1c0.9-0.4,2-0.7,3.2-0.7s2.2,0.2,3,0.7
					c0.9,0.5,1.6,1.1,2.1,2c0.5,0.8,0.7,1.8,0.7,3c0,2.5-1.8,5.6-5.4,9.2c1.2-0.2,2.2-0.2,2.9-0.2h3.3v3.6H40V30.1z"/>
				<path class="st10" d="M55.5,29h3.8V18.9H56v-2.6c0.9-0.2,1.8-0.4,2.4-0.6c0.7-0.3,1.3-0.6,2-1h3.1V29h3.2v3.5H55.5V29z"/>
				<path class="st10" d="M82.3,14.6h4.6l2.8,7.7c0.1,0.4,0.2,0.7,0.3,1.1c0.1,0.3,0.2,0.6,0.3,0.9l0.4,1.2h0.1
					c0.1-0.4,0.3-1,0.5-1.7c0.2-0.6,0.3-1.1,0.5-1.5l2.7-7.7h4.7v17.9h-3.9v-6.1c0-1.3,0.2-3.4,0.6-6.2h-0.1l-1.5,4.3L91.9,31h-2.4
					l-2.4-6.5l-1.4-4.3h-0.1c0.2,1.4,0.3,2.6,0.4,3.6s0.1,1.9,0.1,2.6v6.1h-3.8C82.3,32.5,82.3,14.6,82.3,14.6z"/>
				<path class="st10" d="M103.4,32.5V14.6h11.3v3.6h-7v3.3h6v3.6h-6v3.8h7.3v3.6H103.4z"/>
				<path class="st10" d="M118.5,32.5V14.6h4.3v17.9H118.5z"/>
				<path class="st10" d="M126.9,32.5V14.6h11.3v3.6h-7v3.3h6v3.6h-6v3.8h7.3v3.6H126.9z"/>
				<path class="st10" d="M142,32.5V14.6h4.3v7.1h0.1l5.1-7.1h4.7l-5.4,7.2l6.4,10.7h-4.7l-4.2-7.3l-1.9,2.6v4.7H142z"/>
				<path class="st10" d="M159,32.5V14.6h4.3v17.9H159z"/>
				<path class="st10" d="M182.7,31.8c-1.3-0.7-2.3-1.7-3-3.1s-1.1-3-1.1-5c0-1.9,0.4-3.6,1.2-5s1.8-2.5,3.1-3.2s2.7-1.1,4.2-1.1
					c1.1,0,2.1,0.2,3,0.6s1.7,1,2.4,1.7l-2.2,2.7c-0.5-0.4-1-0.8-1.5-1s-1-0.4-1.6-0.4c-0.8,0-1.5,0.2-2.1,0.7
					c-0.6,0.4-1.1,1.1-1.5,1.9s-0.6,1.8-0.6,2.9c0,1.8,0.4,3.1,1.1,4.1c0.7,1,1.8,1.5,3,1.5c1.3,0,2.4-0.5,3.4-1.6l2.3,2.7
					c-1.5,1.8-3.5,2.6-5.8,2.6C185.4,32.8,184,32.5,182.7,31.8z"/>
				<path class="st10" d="M193.1,32.5l5.5-17.9h5.1l5.5,17.9h-4.5l-1-4.1h-5.3l-1,4.1H193.1z M199.4,25.1h3.6l-0.4-1.5
					c-0.2-0.7-0.4-1.7-0.7-3l-0.7-2.7h-0.1c-0.6,2.7-1.1,4.6-1.4,5.7L199.4,25.1z"/>
				<path class="st10" d="M211.2,14.6h4.6l2.8,7.7c0.1,0.4,0.2,0.7,0.3,1.1c0.1,0.3,0.2,0.6,0.3,0.9l0.4,1.2h0.1
					c0.1-0.4,0.3-1,0.5-1.7c0.2-0.6,0.3-1.1,0.5-1.5l2.7-7.7h4.7v17.9h-3.9v-6.1c0-1.3,0.2-3.4,0.6-6.2h-0.1l-1.5,4.3l-2.4,6.5h-2.4
					l-2.4-6.5l-1.4-4.3h-0.1c0.2,1.4,0.3,2.6,0.4,3.6c0.1,1,0.1,1.9,0.1,2.6v6.1h-3.8L211.2,14.6L211.2,14.6z"/>
				<path class="st10" d="M238.6,14.6c2.2,0,3.9,0.5,5.2,1.4s2,2.4,2,4.5c0,1.4-0.3,2.5-0.9,3.4c-0.6,0.9-1.5,1.6-2.5,2
					s-2.3,0.7-3.6,0.7h-2.1v5.9h-4.3V14.6H238.6z M238.5,23.2c1,0,1.8-0.2,2.3-0.7s0.8-1.1,0.8-2s-0.3-1.5-0.8-1.9s-1.3-0.6-2.4-0.6
					h-1.8v5.2H238.5z"/>
				<path class="st10" d="M250.5,30.7c-1.2-1.4-1.8-3.6-1.8-6.6v-9.5h4.3v9.9c0,1.6,0.2,2.8,0.7,3.5s1.2,1.1,2.2,1.1
					s1.8-0.4,2.3-1.1s0.8-1.9,0.8-3.5v-9.9h4.1v9.5c0,3-0.6,5.2-1.8,6.6s-3,2.1-5.4,2.1S251.7,32.1,250.5,30.7z"/>
				<path class="st10" d="M269.1,32.2c-1.2-0.4-2.2-1.1-3.1-1.9l2.4-3c0.6,0.5,1.3,1,2.1,1.3c0.8,0.3,1.5,0.5,2.2,0.5
					c0.8,0,1.3-0.1,1.7-0.4c0.4-0.3,0.6-0.7,0.6-1.2c0-0.3-0.1-0.6-0.3-0.8c-0.2-0.2-0.4-0.4-0.7-0.5c-0.3-0.1-0.8-0.4-1.5-0.7
					l-2.3-1c-1.1-0.4-1.9-1-2.6-1.9c-0.7-0.8-1-1.8-1-3c0-1,0.3-1.9,0.8-2.7c0.6-0.8,1.3-1.5,2.3-2s2.1-0.7,3.3-0.7
					c1.1,0,2.1,0.2,3.1,0.6c1,0.4,1.9,1,2.7,1.8l-2.1,2.7c-0.6-0.5-1.2-0.8-1.8-1c-0.6-0.2-1.2-0.3-1.9-0.3c-0.7,0-1.2,0.1-1.5,0.4
					c-0.4,0.3-0.6,0.6-0.6,1.1c0,0.3,0.1,0.6,0.3,0.8s0.5,0.4,0.8,0.6s0.8,0.4,1.6,0.7l2.2,0.9c1.2,0.5,2,1.1,2.6,1.9s0.9,1.8,0.9,3
					c0,1-0.3,1.9-0.8,2.8c-0.5,0.8-1.3,1.5-2.4,2c-1,0.5-2.2,0.8-3.6,0.8C271.4,32.8,270.2,32.6,269.1,32.2z"/>
				<path class="st10" d="M294.4,32.5V14.6h11.4v3.6h-7.1v3.9h6.1v3.6h-6.1v6.8H294.4z"/>
				<path class="st10" d="M308.9,32.5V14.6h11.3v3.6h-7v3.3h6v3.6h-6v3.8h7.3v3.6H308.9z"/>
				<path class="st10" d="M326,32.2c-1.2-0.4-2.2-1.1-3.1-1.9l2.4-3c0.6,0.5,1.3,1,2.1,1.3c0.8,0.3,1.5,0.5,2.2,0.5
					c0.8,0,1.3-0.1,1.7-0.4c0.4-0.3,0.6-0.7,0.6-1.2c0-0.3-0.1-0.6-0.3-0.8c-0.2-0.2-0.4-0.4-0.7-0.5c-0.3-0.1-0.8-0.4-1.5-0.7
					l-2.3-1c-1.1-0.4-1.9-1-2.6-1.9c-0.7-0.8-1-1.8-1-3c0-1,0.3-1.9,0.8-2.7c0.6-0.8,1.3-1.5,2.3-2s2.1-0.7,3.3-0.7
					c1.1,0,2.1,0.2,3.1,0.6c1,0.4,1.9,1,2.7,1.8l-2.1,2.7c-0.6-0.5-1.2-0.8-1.8-1c-0.6-0.2-1.2-0.3-1.9-0.3c-0.7,0-1.2,0.1-1.5,0.4
					c-0.4,0.3-0.6,0.6-0.6,1.1c0,0.3,0.1,0.6,0.3,0.8s0.5,0.4,0.8,0.6s0.8,0.4,1.6,0.7l2.2,0.9c1.2,0.5,2,1.1,2.6,1.9s0.9,1.8,0.9,3
					c0,1-0.3,1.9-0.8,2.8c-0.5,0.8-1.3,1.5-2.4,2c-1,0.5-2.2,0.8-3.6,0.8C328.4,32.8,327.2,32.6,326,32.2z"/>
				<path class="st10" d="M342.8,32.5V18.2H338v-3.6h14v3.6h-4.8v14.3H342.8z"/>
				<path class="st10" d="M354.7,32.5V14.6h4.3v17.9H354.7z"/>
				<path class="st10" d="M360.9,14.6h4.5l2,8.2c0.2,0.7,0.5,1.7,0.8,3.2c0.3,1.3,0.5,2.1,0.6,2.5h0.1c0.1-0.4,0.4-1.4,0.7-3
					c0.2-0.8,0.4-1.7,0.6-2.7l2-8.2h4.4l-5.4,17.9H366L360.9,14.6z"/>
				<path class="st10" d="M375.1,32.5l5.5-17.9h5.1l5.5,17.9h-4.5l-1-4.1h-5.3l-1,4.1H375.1z M381.3,25.1h3.6l-0.4-1.5
					c-0.2-0.7-0.4-1.7-0.7-3l-0.7-2.7H383c-0.6,2.7-1.1,4.6-1.4,5.7L381.3,25.1z"/>
				<path class="st10" d="M393.2,32.5V14.6h4.3v14.3h7v3.6H393.2z"/>
			</g>
		</g>
		<g>
			<g>
				<path class="st6" d="M101.7,151.2H86.3v-4H55.6v3.9H40.7v-27.2c-6.1,3.4-13.1,6.5-21,9.2c-1-2.2-2.3-4.6-4-7.2
					c-1.7-2.6-3.3-4.6-4.7-6.1c12.8-3.7,24.3-9.3,34.5-16.7c-2.8-3-7.4-7.1-13.8-12.4c-3.1,2.3-6.5,4.6-10.3,6.9
					c-1.1-1.8-2.7-3.9-4.7-6.3c-2.1-2.3-4-4.2-5.7-5.5c8-4.1,14.9-9,20.6-14.6S41.8,59.7,45,53.6l16.6,3.3c-1.2,2-2.7,4.5-4.7,7.3
					h20l2.4-0.7l10.3,5.4C84.8,82,77.6,93.5,68,103.5h33.7V151.2z M46.6,77.2L42.9,81c6.3,4.6,11.1,8.5,14.6,11.7
					c4.7-4.8,8.6-10,11.7-15.5H46.6z M55.6,133.9h30.7v-17H55.6V133.9z"/>
				<path class="st8" d="M112.6,141.9c3.2-4.6,5-12.3,5.5-23.2l7.9,1.4c-0.4,6.1-1,11.2-1.8,15.3c-0.8,4.1-2.2,7.6-4.2,10.3
					L112.6,141.9z M193.9,105.4c3.4,16.9,9.6,28.2,18.5,34c-1.6,1.4-3.3,3.2-5.2,5.6c-1.9,2.4-3.4,4.5-4.4,6.4
					c-6.1-4.4-10.8-10.4-14.1-18c-3.4-7.6-6-16.9-7.9-28h-2.1c-0.7,21.1-4.1,36.5-10.4,46.1c-1.2-1-2.9-2.3-5.3-3.7
					c-2.3-1.5-4.4-2.6-6.1-3.4c-0.3,0.9-0.6,1.6-1.1,2.2c-0.9,1.2-1.8,2.1-2.9,2.8c-1,0.6-2.2,1.1-3.6,1.3c-2.1,0.4-5.1,0.5-9.1,0.4
					c-0.1-1.8-0.5-3.8-1-6c-0.5-2.1-1.2-4-2-5.5c1.5,0.2,3.3,0.3,5.3,0.3c1.1,0,2-0.4,2.7-1.3c0.7-1.1,1.3-3.5,1.7-7.1l-3.2,1.1
					c-0.3-1.8-0.8-3.9-1.5-6.3c-0.7-2.4-1.6-4.7-2.4-6.8l5.5-1.8c0.9,1.9,1.7,3.8,2.3,5.7c0.1-3.5,0.3-6.1,0.4-7.8h-29.5V57.8h39.9
					v11.8h-11.2v4h9.7v11h-9.7v4.3h9.7v11h-9.7v4.4h13.4l-0.2,4.8c-0.7,16.9-1.6,27.9-2.9,32.9c3.1-5.6,5.2-12.2,6.1-19.6
					c1-7.4,1.4-15.8,1.4-25.1V57.7h42.5v47.7H193.9z M132.2,120.7c0.6,4.5,0.9,9.3,0.9,14.5c0,2,0,3.5-0.1,4.4l-6.4,0.8
					c0.1-2.4,0.2-4.5,0.2-6.1c0-4.9-0.2-9.2-0.7-13L132.2,120.7z M135.5,69.6h-4.6v4h4.6V69.6z M135.5,88.9v-4.3h-4.6v4.3H135.5z
					 M130.9,99.9v4.4h4.6v-4.4H130.9z M138.9,119.8c0.7,2.5,1.4,5.3,1.9,8.4c0.5,3.1,0.9,5.8,1,8.2l-6.3,1.2c-0.1-2.2-0.3-4.8-0.8-8
					c-0.5-3.1-1.1-6.1-1.7-8.8L138.9,119.8z M194.3,71.2h-15.6v20.7h15.6V71.2z"/>
				<path class="st9" d="M312,65.9c-2.2,4-4.7,8.1-7.7,12.1c-2.9,4.1-5.9,7.8-8.9,11c5.2,4.2,11.6,7.4,19,9.7
					c-1.5,1.4-3.1,3.3-4.9,5.8s-3.2,4.7-4.2,6.7l-1.9-0.7v12.1h-31v14.7c0,3.4-0.4,6-1.3,7.8s-2.5,3.2-4.9,4.1
					c-1.8,0.7-3.9,1.3-6.2,1.5c-2.3,0.3-5.1,0.4-8.5,0.4h-3.3c-0.3-1.9-1-4.1-1.9-6.6s-1.9-4.6-2.9-6.5c2.8,0.1,6.7,0.2,11.8,0.2
					c0.8,0,1.4-0.1,1.7-0.3c0.3-0.2,0.5-0.6,0.5-1.2v-14.2h-31.6v-11.7l-3.3,1.2c-0.9-1.8-2.1-3.9-3.6-6.2c-1.5-2.3-2.9-4.1-4.2-5.4
					c6.6-2,12.4-4.8,17.5-8.4c-2.4-2.2-4.5-4.1-6.4-5.7l-2.7,1.9c-1-1.6-2.3-3.3-4.2-5.3s-3.5-3.4-4.9-4.3c5.2-3.3,9.7-7,13.4-11.3
					c3.7-4.2,6.6-8.7,8.7-13.2l13.7,2.4l-1.7,3.5h7.7l2.3-0.5l5.7,2.2l-1.2-4.3l12.6-2.5c1,3.9,2.2,7.8,3.9,11.6v-6.7h20.5l2.9-0.8
					L312,65.9z M248.2,128c-2.3,4.3-5.3,8.4-8.9,12.4c-3.6,4-7.3,7.3-11.1,10c-1.4-1.4-3.3-3-5.8-5s-4.6-3.5-6.4-4.7
					c3.6-2,7-4.6,10.1-7.6s5.5-6.2,7.2-9.4L248.2,128z M300.7,109.4c-6.7-3-12.3-6.7-16.9-11.1v4.7h-38.1v-4
					c-4.9,4.1-10.4,7.6-16.5,10.4H300.7z M233.2,80.3c2.9,2.2,5.2,4,6.9,5.4l2.5-2.8c-1.4-1.2-3.7-2.9-7-5.2L233.2,80.3z
					 M241.4,70.8c1.8,1,4.1,2.4,6.7,4.3c1.2-2,2-3.8,2.6-5.2h-8.6L241.4,70.8z M276.4,89.8c-4.1-5.9-7.7-13.1-10.7-21.6
					c-2.5,8-6.3,15.2-11.2,21.6H276.4z M291.1,123.8c3.7,3,7.5,6.2,11.2,9.7s6.6,6.5,8.5,9.1l-13.3,8.1c-1.7-2.6-4.3-5.7-7.9-9.4
					s-7.2-7.2-10.9-10.4L291.1,123.8z M281.6,72c1.6,3,3.2,5.5,4.8,7.6c1.4-1.8,3.1-4.4,5.2-7.6H281.6z"/>
			</g>
			<g>
				<path class="st11" d="M101.7,151.2H86.3v-4H55.6v3.9H40.7v-27.2c-6.1,3.4-13.1,6.5-21,9.2c-1-2.2-2.3-4.6-4-7.2
					c-1.7-2.6-3.3-4.6-4.7-6.1c12.8-3.7,24.3-9.3,34.5-16.7c-2.8-3-7.4-7.1-13.8-12.4c-3.1,2.3-6.5,4.6-10.3,6.9
					c-1.1-1.8-2.7-3.9-4.7-6.3c-2.1-2.3-4-4.2-5.7-5.5c8-4.1,14.9-9,20.6-14.6S41.8,59.7,45,53.6l16.6,3.3c-1.2,2-2.7,4.5-4.7,7.3
					h20l2.4-0.7l10.3,5.4C84.8,82,77.6,93.5,68,103.5h33.7V151.2z M46.6,77.2L42.9,81c6.3,4.6,11.1,8.5,14.6,11.7
					c4.7-4.8,8.6-10,11.7-15.5H46.6z M55.6,133.9h30.7v-17H55.6V133.9z"/>
				<path class="st11" d="M112.6,141.9c3.2-4.6,5-12.3,5.5-23.2l7.9,1.4c-0.4,6.1-1,11.2-1.8,15.3c-0.8,4.1-2.2,7.6-4.2,10.3
					L112.6,141.9z M193.9,105.4c3.4,16.9,9.6,28.2,18.5,34c-1.6,1.4-3.3,3.2-5.2,5.6c-1.9,2.4-3.4,4.5-4.4,6.4
					c-6.1-4.4-10.8-10.4-14.1-18c-3.4-7.6-6-16.9-7.9-28h-2.1c-0.7,21.1-4.1,36.5-10.4,46.1c-1.2-1-2.9-2.3-5.3-3.7
					c-2.3-1.5-4.4-2.6-6.1-3.4c-0.3,0.9-0.6,1.6-1.1,2.2c-0.9,1.2-1.8,2.1-2.9,2.8c-1,0.6-2.2,1.1-3.6,1.3c-2.1,0.4-5.1,0.5-9.1,0.4
					c-0.1-1.8-0.5-3.8-1-6c-0.5-2.1-1.2-4-2-5.5c1.5,0.2,3.3,0.3,5.3,0.3c1.1,0,2-0.4,2.7-1.3c0.7-1.1,1.3-3.5,1.7-7.1l-3.2,1.1
					c-0.3-1.8-0.8-3.9-1.5-6.3c-0.7-2.4-1.6-4.7-2.4-6.8l5.5-1.8c0.9,1.9,1.7,3.8,2.3,5.7c0.1-3.5,0.3-6.1,0.4-7.8h-29.5V57.8h39.9
					v11.8h-11.2v4h9.7v11h-9.7v4.3h9.7v11h-9.7v4.4h13.4l-0.2,4.8c-0.7,16.9-1.6,27.9-2.9,32.9c3.1-5.6,5.2-12.2,6.1-19.6
					c1-7.4,1.4-15.8,1.4-25.1V57.7h42.5v47.7H193.9z M132.2,120.7c0.6,4.5,0.9,9.3,0.9,14.5c0,2,0,3.5-0.1,4.4l-6.4,0.8
					c0.1-2.4,0.2-4.5,0.2-6.1c0-4.9-0.2-9.2-0.7-13L132.2,120.7z M135.5,69.6h-4.6v4h4.6V69.6z M135.5,88.9v-4.3h-4.6v4.3H135.5z
					 M130.9,99.9v4.4h4.6v-4.4H130.9z M138.9,119.8c0.7,2.5,1.4,5.3,1.9,8.4c0.5,3.1,0.9,5.8,1,8.2l-6.3,1.2c-0.1-2.2-0.3-4.8-0.8-8
					c-0.5-3.1-1.1-6.1-1.7-8.8L138.9,119.8z M194.3,71.2h-15.6v20.7h15.6V71.2z"/>
				<path class="st11" d="M312,65.9c-2.2,4-4.7,8.1-7.7,12.1c-2.9,4.1-5.9,7.8-8.9,11c5.2,4.2,11.6,7.4,19,9.7
					c-1.5,1.4-3.1,3.3-4.9,5.8s-3.2,4.7-4.2,6.7l-1.9-0.7v12.1h-31v14.7c0,3.4-0.4,6-1.3,7.8s-2.5,3.2-4.9,4.1
					c-1.8,0.7-3.9,1.3-6.2,1.5c-2.3,0.3-5.1,0.4-8.5,0.4h-3.3c-0.3-1.9-1-4.1-1.9-6.6s-1.9-4.6-2.9-6.5c2.8,0.1,6.7,0.2,11.8,0.2
					c0.8,0,1.4-0.1,1.7-0.3c0.3-0.2,0.5-0.6,0.5-1.2v-14.2h-31.6v-11.7l-3.3,1.2c-0.9-1.8-2.1-3.9-3.6-6.2c-1.5-2.3-2.9-4.1-4.2-5.4
					c6.6-2,12.4-4.8,17.5-8.4c-2.4-2.2-4.5-4.1-6.4-5.7l-2.7,1.9c-1-1.6-2.3-3.3-4.2-5.3s-3.5-3.4-4.9-4.3c5.2-3.3,9.7-7,13.4-11.3
					c3.7-4.2,6.6-8.7,8.7-13.2l13.7,2.4l-1.7,3.5h7.7l2.3-0.5l5.7,2.2l-1.2-4.3l12.6-2.5c1,3.9,2.2,7.8,3.9,11.6v-6.7h20.5l2.9-0.8
					L312,65.9z M248.2,128c-2.3,4.3-5.3,8.4-8.9,12.4c-3.6,4-7.3,7.3-11.1,10c-1.4-1.4-3.3-3-5.8-5s-4.6-3.5-6.4-4.7
					c3.6-2,7-4.6,10.1-7.6s5.5-6.2,7.2-9.4L248.2,128z M300.7,109.4c-6.7-3-12.3-6.7-16.9-11.1v4.7h-38.1v-4
					c-4.9,4.1-10.4,7.6-16.5,10.4H300.7z M233.2,80.3c2.9,2.2,5.2,4,6.9,5.4l2.5-2.8c-1.4-1.2-3.7-2.9-7-5.2L233.2,80.3z
					 M241.4,70.8c1.8,1,4.1,2.4,6.7,4.3c1.2-2,2-3.8,2.6-5.2h-8.6L241.4,70.8z M276.4,89.8c-4.1-5.9-7.7-13.1-10.7-21.6
					c-2.5,8-6.3,15.2-11.2,21.6H276.4z M291.1,123.8c3.7,3,7.5,6.2,11.2,9.7s6.6,6.5,8.5,9.1l-13.3,8.1c-1.7-2.6-4.3-5.7-7.9-9.4
					s-7.2-7.2-10.9-10.4L291.1,123.8z M281.6,72c1.6,3,3.2,5.5,4.8,7.6c1.4-1.8,3.1-4.4,5.2-7.6H281.6z"/>
			</g>
		</g>
		<g>
			<g>
				<path class="st4" d="M47.8,210.5h-6.3v-1.6H28.8v1.6h-6.1v-11.2c-2.5,1.4-5.4,2.7-8.7,3.8c-0.4-0.9-0.9-1.9-1.6-3
					c-0.7-1.1-1.3-1.9-1.9-2.5c5.3-1.5,10-3.8,14.2-6.9c-1.1-1.2-3-2.9-5.7-5.1c-1.3,1-2.7,1.9-4.2,2.9c-0.4-0.8-1.1-1.6-2-2.6
					s-1.6-1.7-2.3-2.2c3.3-1.7,6.1-3.7,8.5-6s4.2-4.7,5.5-7.2l6.8,1.3c-0.5,0.8-1.1,1.8-1.9,3h8.2l1-0.3l4.2,2.2
					c-2,5.4-4.9,10.1-8.9,14.2h13.9C47.8,190.9,47.8,210.5,47.8,210.5z M25.1,180l-1.5,1.6c2.6,1.9,4.6,3.5,6,4.8
					c1.9-2,3.5-4.1,4.8-6.4L25.1,180L25.1,180z M28.8,203.3h12.6v-7H28.8V203.3z"/>
				<path class="st4" d="M52.3,206.7c1.3-1.9,2.1-5.1,2.3-9.5l3.2,0.6c-0.2,2.5-0.4,4.6-0.8,6.3c-0.3,1.7-0.9,3.1-1.7,4.2
					L52.3,206.7z M85.8,191.6c1.4,6.9,3.9,11.6,7.6,14c-0.6,0.6-1.4,1.3-2.1,2.3c-0.8,1-1.4,1.9-1.8,2.6c-2.5-1.8-4.4-4.3-5.8-7.4
					c-1.4-3.1-2.5-7-3.3-11.5h-0.9c-0.3,8.7-1.7,15-4.3,19c-0.5-0.4-1.2-0.9-2.2-1.5s-1.8-1.1-2.5-1.4c-0.1,0.4-0.3,0.7-0.5,0.9
					c-0.4,0.5-0.8,0.9-1.2,1.1c-0.4,0.3-0.9,0.4-1.5,0.5c-0.9,0.2-2.1,0.2-3.7,0.2c-0.1-0.8-0.2-1.6-0.4-2.5s-0.5-1.6-0.8-2.2
					c0.6,0.1,1.3,0.1,2.2,0.1c0.4,0,0.8-0.2,1.1-0.5c0.3-0.4,0.5-1.4,0.7-2.9l-1.3,0.5c-0.1-0.7-0.3-1.6-0.6-2.6
					c-0.3-1-0.6-1.9-1-2.8l2.3-0.8c0.4,0.8,0.7,1.6,1,2.4c0.1-1.4,0.1-2.5,0.2-3.2H54.8V172h16.4v4.9h-4.6v1.6h4v4.5h-4v1.8h4v4.5
					h-4v1.8h5.5l-0.1,2c-0.3,7-0.7,11.5-1.2,13.6c1.3-2.3,2.1-5,2.5-8.1s0.6-6.5,0.6-10.3V172h17.5v19.7L85.8,191.6L85.8,191.6z
					 M60.4,197.9c0.3,1.8,0.4,3.8,0.4,6c0,0.8,0,1.4,0,1.8L58,206c0.1-1,0.1-1.8,0.1-2.5c0-2-0.1-3.8-0.3-5.3L60.4,197.9z
					 M61.7,176.9h-1.9v1.6h1.9V176.9z M61.7,184.8V183h-1.9v1.8H61.7z M59.8,189.4v1.8h1.9v-1.8H59.8z M63.1,197.6
					c0.3,1,0.6,2.2,0.8,3.4c0.2,1.3,0.4,2.4,0.4,3.4l-2.6,0.5c0-0.9-0.1-2-0.3-3.3s-0.4-2.5-0.7-3.6L63.1,197.6z M85.9,177.6h-6.4
					v8.5h6.4V177.6z"/>
				<path class="st4" d="M123.2,178.9c1.5-3.4,3.5-6.3,5.9-8.6l4.8,2.1c-2.2,2.5-4,5.2-5.4,8.1c-1.3,2.9-2,6.3-2,10.1
					s0.7,7.2,2,10.1c1.3,2.9,3.1,5.6,5.4,8.1l-4.8,2.1c-2.4-2.3-4.4-5.2-5.9-8.6c-1.5-3.4-2.3-7.3-2.3-11.7S121.7,182.3,123.2,178.9
					z"/>
				<path class="st4" d="M169.4,204.7c0.4,0,0.7-0.1,0.9-0.4c0.2-0.3,0.3-0.7,0.4-1.4c0.1-0.7,0.2-1.8,0.2-3.3
					c0.6,0.5,1.4,0.9,2.5,1.4c1.1,0.4,2.1,0.8,3.1,1c-0.2,2.2-0.6,3.9-1,5.1c-0.5,1.2-1.1,2.1-2,2.5c-0.9,0.5-2.1,0.7-3.6,0.7h-4.7
					c-1.8,0-3.3-0.2-4.2-0.7c-1-0.4-1.7-1.2-2-2.2c-0.4-1-0.6-2.5-0.6-4.3v-7.4h-3.7c-0.3,2.6-0.9,4.8-1.8,6.6s-2.4,3.4-4.5,4.7
					c-2.1,1.4-5,2.5-8.8,3.4c-0.3-0.8-0.8-1.8-1.5-2.9c-0.7-1.1-1.3-1.9-1.9-2.6c3.2-0.6,5.6-1.3,7.2-2.2s2.8-1.8,3.4-2.9
					c0.6-1.1,1-2.5,1.3-4.2H141v-10.2l-0.5,0.3c-0.4-0.8-1-1.6-1.9-2.6c-0.8-1-1.6-1.7-2.2-2.2c2.7-1.4,5-3,6.9-4.9s3.5-3.8,4.6-5.9
					l6.6,1.3l-0.9,1.4h7.1l1-0.3l4.3,2.8c-0.9,1.6-2.1,3.3-3.4,5.1h10.5v15.1h-8.4v7.3c0,0.7,0.1,1.1,0.3,1.3s0.6,0.3,1.2,0.3h3.2
					V204.7z M147.3,186.1v4.3h6.4v-4.3H147.3z M150.2,178c-0.5,0.6-1.4,1.5-2.6,2.7h8c0.7-0.9,1.4-1.8,1.9-2.7H150.2z M166.8,190.4
					v-4.3h-7.1v4.3H166.8z"/>
				<path class="st4" d="M215.7,194.9c-1.3,3.7-3.3,6.6-6,8.9c2.6,0.7,5.8,1.1,9.6,1.3c-0.6,0.6-1.3,1.5-2,2.5
					c-0.7,1.1-1.2,2.1-1.6,3c-5.1-0.5-9.2-1.5-12.2-3c-3.1,1.3-6.8,2.3-11.3,3c-0.3-0.8-0.7-1.7-1.2-2.6c-0.5-1-1-1.7-1.5-2.4
					c3.2-0.3,6.1-0.9,8.8-1.7c-1.3-1.3-2.4-2.8-3.4-4.6l3.8-0.9H193v-4.9h0.5c-0.8-1.1-1.7-2.2-2.7-3.1c-0.4,9.1-2.7,15.7-6.8,19.8
					c-0.4-0.6-1.1-1.3-2.1-2.2s-1.7-1.5-2.3-1.9c2.1-2.2,3.6-4.9,4.5-8.4l-1.3,0.8l-2.7,1.6l-1.7-5.8c1.2-0.4,3.4-1.5,6.6-3
					c0.1-0.9,0.1-2.2,0.1-3.9v-0.9l-3.9,2.1c-0.2-1-0.5-2.3-1-3.8s-1-2.9-1.7-4.3l4.4-2.2c0.9,1.8,1.6,3.4,2.1,4.9v-8.4h12.4v-4.2
					h6.5v4.2h14.4v5.4h-27.6v7.2c0,1,0,1.8,0,2.4c1.3-0.4,2.4-0.8,3-1.3c0.7-0.5,1.1-1,1.3-1.5s0.3-1.1,0.3-1.9v-3.5h16.3v5.1
					c0,0.6,0,0.9,0.1,1s0.2,0.2,0.4,0.2h0.8c0.3,0,0.4-0.2,0.5-0.7c0.1-0.4,0.2-1.3,0.2-2.7c0.5,0.4,1.3,0.8,2.3,1.2
					s1.9,0.7,2.7,0.8c-0.2,1.6-0.4,2.8-0.8,3.7s-0.9,1.5-1.6,1.8c-0.7,0.4-1.6,0.5-2.6,0.5H211c-1.4,0-2.5-0.2-3.2-0.5
					c-0.8-0.4-1.3-1-1.6-1.8s-0.5-2-0.5-3.6v-0.2h-4.8c-0.1,1.5-0.6,2.8-1.3,3.9s-1.8,2.1-3.4,2.9h14.2l1.1-0.2L215.7,194.9z
					 M200.8,198.4c0.8,1.1,1.8,2.1,3,2.9c1.3-0.9,2.5-1.8,3.4-2.9H200.8z"/>
				<path class="st4" d="M232.4,202.2c-1.5,3.4-3.5,6.3-5.9,8.6l-4.8-2.1c2.2-2.5,4-5.2,5.4-8.1c1.3-2.9,2-6.3,2-10.1
					s-0.7-7.2-2-10.1c-1.3-2.9-3.1-5.6-5.4-8.1l4.8-2.1c2.4,2.3,4.4,5.2,5.9,8.6c1.5,3.4,2.3,7.3,2.3,11.7S234,198.8,232.4,202.2z"
					/>
				<path class="st4" d="M285.7,173.8h15.7v5.2h-37.1v-5.2h15.1v-3.3h6.3V173.8z M300.2,204.3c0,1.4-0.2,2.5-0.5,3.3
					s-0.9,1.4-1.8,1.8c-0.8,0.4-1.7,0.7-2.8,0.8c-1,0.1-2.3,0.2-4,0.2c-0.1-1-0.4-2-0.8-3.2h-10.5v1.8h-5.2v-11.5h16.2v7.3
					c1.2,0.1,2,0.1,2.4,0c0.3,0,0.5,0,0.6-0.1s0.2-0.2,0.2-0.5V196h-22.3v14.5h-6V191h34.4L300.2,204.3L300.2,204.3z M294.5,180.2
					v9.6h-23.4v-9.6H294.5z M288.3,185.8v-1.7h-11.4v1.7H288.3z M285.5,203.3v-1.8h-5.6v1.8H285.5z"/>
				<path class="st4" d="M308.9,176.7h5.6c0,0.1,0,0.6,0.1,1.6s0.2,2.3,0.4,3.9c1-0.6,2-1,3.1-1.3s2.3-0.4,3.6-0.4
					c0.3-1.7,0.4-3,0.5-4.1s0.1-1.6,0.1-1.6h6.1c0,0-0.1,0.6-0.2,1.8c-0.2,1.2-0.4,2.8-0.7,4.7c2.5,0.8,4.3,2.2,5.6,4.1
					c1.3,1.9,2.1,3.8,2.4,5.9s0.4,3.8,0.3,5.3c-0.3,2.7-1,4.9-2.1,6.6s-2.4,3-3.7,3.9s-2.7,1.5-4,1.9s-2.8,0.6-4.6,0.7v-6.6
					c1.6-0.1,2.9-0.3,4-0.7c1-0.4,1.9-1.1,2.7-2c0.7-1,1.2-2.4,1.4-4.2c0.2-2,0-3.8-0.7-5.6s-1.6-2.8-2.7-3c-0.6,2-1.2,3.9-1.8,6
					c-0.7,2-1.4,3.9-2.2,5.7c-0.6,1.3-1.3,2.7-2.2,3.9c-0.9,1.3-1.9,2.3-3.1,3.2c-1.2,0.8-2.5,1.3-3.9,1.3c-1.7-0.1-3-0.6-4-1.8
					c-1-1.1-1.7-2.5-2.1-4.1s-0.6-3.2-0.5-4.7c0-0.8,0.2-1.8,0.4-3c0.3-1.2,0.7-2.5,1.3-3.9s1.4-2.8,2.4-4.1
					c-0.3-1.6-0.6-3.1-0.8-4.5c-0.2-1.4-0.4-2.6-0.5-3.4C309,177.2,308.9,176.8,308.9,176.7z M313,201.1c0.3,0.1,0.7,0,1.1-0.2
					s0.9-0.7,1.5-1.5c-0.5-0.8-1-1.7-1.6-2.8c-0.6-1-1.1-2.2-1.7-3.5c-0.3,0.7-0.5,1.4-0.7,2.1c-0.2,0.7-0.3,1.3-0.3,1.9
					c-0.1,1.4,0.1,2.4,0.4,3C312.1,200.8,312.6,201.1,313,201.1z M316.3,188.5c0,0.1,0.2,0.6,0.5,1.7c0.3,1.1,0.9,2.3,1.7,3.7
					c0.4-1.1,0.8-2.3,1.2-3.4c0.3-1.2,0.7-2.3,0.9-3.5c-0.6,0-1.3,0.1-2.1,0.3S316.9,188,316.3,188.5z"/>
				<path class="st4" d="M343.3,183.1v-6.6h19.8v5.8l-8,6.8c2.6-0.8,4.8-0.9,6.7-0.3c1.8,0.6,3.3,1.8,4.4,3.4
					c1.1,1.7,1.7,3.6,1.7,5.9c0.1,4.7-1.7,8-5.5,9.9s-9.4,2.2-16.8,0.9v-6.5c4.5,0.9,8,1.2,10.4,0.9s4-0.9,4.7-1.8
					c0.7-1,1.1-2.1,1-3.4c0-1.3-0.5-2.4-1.4-3.2s-2.7-1.1-5.2-0.8c-1,0.1-2.2,0.4-3.6,1s-3,1.5-4.7,2.8c-1.8,1.3-3.8,3.2-6.1,5.5
					v-8.9l12.9-11.3L343.3,183.1L343.3,183.1z"/>
				<path class="st4" d="M388,205.8c-0.8-0.8-1.2-1.8-1.2-3.1c0-1.2,0.4-2.2,1.2-3c0.8-0.8,1.8-1.2,3.1-1.2c1.2,0,2.3,0.4,3.1,1.2
					c0.8,0.8,1.2,1.8,1.2,3s-0.4,2.3-1.2,3.1c-0.8,0.8-1.8,1.2-3.1,1.2S388.8,206.6,388,205.8z M388.5,195.3l-1.3-13.3l-0.3-7h8.2
					l-0.3,7l-1.3,13.3H388.5z"/>
			</g>
			<g>
				<path class="st10" d="M47.8,210.5h-6.3v-1.6H28.8v1.6h-6.1v-11.2c-2.5,1.4-5.4,2.7-8.7,3.8c-0.4-0.9-0.9-1.9-1.6-3
					c-0.7-1.1-1.3-1.9-1.9-2.5c5.3-1.5,10-3.8,14.2-6.9c-1.1-1.2-3-2.9-5.7-5.1c-1.3,1-2.7,1.9-4.2,2.9c-0.4-0.8-1.1-1.6-2-2.6
					s-1.6-1.7-2.3-2.2c3.3-1.7,6.1-3.7,8.5-6s4.2-4.7,5.5-7.2l6.8,1.3c-0.5,0.8-1.1,1.8-1.9,3h8.2l1-0.3l4.2,2.2
					c-2,5.4-4.9,10.1-8.9,14.2h13.9C47.8,190.9,47.8,210.5,47.8,210.5z M25.1,180l-1.5,1.6c2.6,1.9,4.6,3.5,6,4.8
					c1.9-2,3.5-4.1,4.8-6.4L25.1,180L25.1,180z M28.8,203.3h12.6v-7H28.8V203.3z"/>
				<path class="st10" d="M52.3,206.7c1.3-1.9,2.1-5.1,2.3-9.5l3.2,0.6c-0.2,2.5-0.4,4.6-0.8,6.3c-0.3,1.7-0.9,3.1-1.7,4.2
					L52.3,206.7z M85.8,191.6c1.4,6.9,3.9,11.6,7.6,14c-0.6,0.6-1.4,1.3-2.1,2.3c-0.8,1-1.4,1.9-1.8,2.6c-2.5-1.8-4.4-4.3-5.8-7.4
					c-1.4-3.1-2.5-7-3.3-11.5h-0.9c-0.3,8.7-1.7,15-4.3,19c-0.5-0.4-1.2-0.9-2.2-1.5s-1.8-1.1-2.5-1.4c-0.1,0.4-0.3,0.7-0.5,0.9
					c-0.4,0.5-0.8,0.9-1.2,1.1c-0.4,0.3-0.9,0.4-1.5,0.5c-0.9,0.2-2.1,0.2-3.7,0.2c-0.1-0.8-0.2-1.6-0.4-2.5s-0.5-1.6-0.8-2.2
					c0.6,0.1,1.3,0.1,2.2,0.1c0.4,0,0.8-0.2,1.1-0.5c0.3-0.4,0.5-1.4,0.7-2.9l-1.3,0.5c-0.1-0.7-0.3-1.6-0.6-2.6
					c-0.3-1-0.6-1.9-1-2.8l2.3-0.8c0.4,0.8,0.7,1.6,1,2.4c0.1-1.4,0.1-2.5,0.2-3.2H54.8V172h16.4v4.9h-4.6v1.6h4v4.5h-4v1.8h4v4.5
					h-4v1.8h5.5l-0.1,2c-0.3,7-0.7,11.5-1.2,13.6c1.3-2.3,2.1-5,2.5-8.1s0.6-6.5,0.6-10.3V172h17.5v19.7L85.8,191.6L85.8,191.6z
					 M60.4,197.9c0.3,1.8,0.4,3.8,0.4,6c0,0.8,0,1.4,0,1.8L58,206c0.1-1,0.1-1.8,0.1-2.5c0-2-0.1-3.8-0.3-5.3L60.4,197.9z
					 M61.7,176.9h-1.9v1.6h1.9V176.9z M61.7,184.8V183h-1.9v1.8H61.7z M59.8,189.4v1.8h1.9v-1.8H59.8z M63.1,197.6
					c0.3,1,0.6,2.2,0.8,3.4c0.2,1.3,0.4,2.4,0.4,3.4l-2.6,0.5c0-0.9-0.1-2-0.3-3.3s-0.4-2.5-0.7-3.6L63.1,197.6z M85.9,177.6h-6.4
					v8.5h6.4V177.6z"/>
				<path class="st10" d="M123.2,178.9c1.5-3.4,3.5-6.3,5.9-8.6l4.8,2.1c-2.2,2.5-4,5.2-5.4,8.1c-1.3,2.9-2,6.3-2,10.1
					s0.7,7.2,2,10.1c1.3,2.9,3.1,5.6,5.4,8.1l-4.8,2.1c-2.4-2.3-4.4-5.2-5.9-8.6c-1.5-3.4-2.3-7.3-2.3-11.7S121.7,182.3,123.2,178.9
					z"/>
				<path class="st10" d="M169.4,204.7c0.4,0,0.7-0.1,0.9-0.4c0.2-0.3,0.3-0.7,0.4-1.4c0.1-0.7,0.2-1.8,0.2-3.3
					c0.6,0.5,1.4,0.9,2.5,1.4c1.1,0.4,2.1,0.8,3.1,1c-0.2,2.2-0.6,3.9-1,5.1c-0.5,1.2-1.1,2.1-2,2.5c-0.9,0.5-2.1,0.7-3.6,0.7h-4.7
					c-1.8,0-3.3-0.2-4.2-0.7c-1-0.4-1.7-1.2-2-2.2c-0.4-1-0.6-2.5-0.6-4.3v-7.4h-3.7c-0.3,2.6-0.9,4.8-1.8,6.6s-2.4,3.4-4.5,4.7
					c-2.1,1.4-5,2.5-8.8,3.4c-0.3-0.8-0.8-1.8-1.5-2.9c-0.7-1.1-1.3-1.9-1.9-2.6c3.2-0.6,5.6-1.3,7.2-2.2s2.8-1.8,3.4-2.9
					c0.6-1.1,1-2.5,1.3-4.2H141v-10.2l-0.5,0.3c-0.4-0.8-1-1.6-1.9-2.6c-0.8-1-1.6-1.7-2.2-2.2c2.7-1.4,5-3,6.9-4.9s3.5-3.8,4.6-5.9
					l6.6,1.3l-0.9,1.4h7.1l1-0.3l4.3,2.8c-0.9,1.6-2.1,3.3-3.4,5.1h10.5v15.1h-8.4v7.3c0,0.7,0.1,1.1,0.3,1.3s0.6,0.3,1.2,0.3h3.2
					V204.7z M147.3,186.1v4.3h6.4v-4.3H147.3z M150.2,178c-0.5,0.6-1.4,1.5-2.6,2.7h8c0.7-0.9,1.4-1.8,1.9-2.7H150.2z M166.8,190.4
					v-4.3h-7.1v4.3H166.8z"/>
				<path class="st10" d="M215.7,194.9c-1.3,3.7-3.3,6.6-6,8.9c2.6,0.7,5.8,1.1,9.6,1.3c-0.6,0.6-1.3,1.5-2,2.5
					c-0.7,1.1-1.2,2.1-1.6,3c-5.1-0.5-9.2-1.5-12.2-3c-3.1,1.3-6.8,2.3-11.3,3c-0.3-0.8-0.7-1.7-1.2-2.6c-0.5-1-1-1.7-1.5-2.4
					c3.2-0.3,6.1-0.9,8.8-1.7c-1.3-1.3-2.4-2.8-3.4-4.6l3.8-0.9H193v-4.9h0.5c-0.8-1.1-1.7-2.2-2.7-3.1c-0.4,9.1-2.7,15.7-6.8,19.8
					c-0.4-0.6-1.1-1.3-2.1-2.2s-1.7-1.5-2.3-1.9c2.1-2.2,3.6-4.9,4.5-8.4l-1.3,0.8l-2.7,1.6l-1.7-5.8c1.2-0.4,3.4-1.5,6.6-3
					c0.1-0.9,0.1-2.2,0.1-3.9v-0.9l-3.9,2.1c-0.2-1-0.5-2.3-1-3.8s-1-2.9-1.7-4.3l4.4-2.2c0.9,1.8,1.6,3.4,2.1,4.9v-8.4h12.4v-4.2
					h6.5v4.2h14.4v5.4h-27.6v7.2c0,1,0,1.8,0,2.4c1.3-0.4,2.4-0.8,3-1.3c0.7-0.5,1.1-1,1.3-1.5s0.3-1.1,0.3-1.9v-3.5h16.3v5.1
					c0,0.6,0,0.9,0.1,1s0.2,0.2,0.4,0.2h0.8c0.3,0,0.4-0.2,0.5-0.7c0.1-0.4,0.2-1.3,0.2-2.7c0.5,0.4,1.3,0.8,2.3,1.2
					s1.9,0.7,2.7,0.8c-0.2,1.6-0.4,2.8-0.8,3.7s-0.9,1.5-1.6,1.8c-0.7,0.4-1.6,0.5-2.6,0.5H211c-1.4,0-2.5-0.2-3.2-0.5
					c-0.8-0.4-1.3-1-1.6-1.8s-0.5-2-0.5-3.6v-0.2h-4.8c-0.1,1.5-0.6,2.8-1.3,3.9s-1.8,2.1-3.4,2.9h14.2l1.1-0.2L215.7,194.9z
					 M200.8,198.4c0.8,1.1,1.8,2.1,3,2.9c1.3-0.9,2.5-1.8,3.4-2.9H200.8z"/>
				<path class="st10" d="M232.4,202.2c-1.5,3.4-3.5,6.3-5.9,8.6l-4.8-2.1c2.2-2.5,4-5.2,5.4-8.1c1.3-2.9,2-6.3,2-10.1
					s-0.7-7.2-2-10.1c-1.3-2.9-3.1-5.6-5.4-8.1l4.8-2.1c2.4,2.3,4.4,5.2,5.9,8.6c1.5,3.4,2.3,7.3,2.3,11.7S234,198.8,232.4,202.2z"
					/>
				<path class="st10" d="M285.7,173.8h15.7v5.2h-37.1v-5.2h15.1v-3.3h6.3V173.8z M300.2,204.3c0,1.4-0.2,2.5-0.5,3.3
					s-0.9,1.4-1.8,1.8c-0.8,0.4-1.7,0.7-2.8,0.8c-1,0.1-2.3,0.2-4,0.2c-0.1-1-0.4-2-0.8-3.2h-10.5v1.8h-5.2v-11.5h16.2v7.3
					c1.2,0.1,2,0.1,2.4,0c0.3,0,0.5,0,0.6-0.1s0.2-0.2,0.2-0.5V196h-22.3v14.5h-6V191h34.4L300.2,204.3L300.2,204.3z M294.5,180.2
					v9.6h-23.4v-9.6H294.5z M288.3,185.8v-1.7h-11.4v1.7H288.3z M285.5,203.3v-1.8h-5.6v1.8H285.5z"/>
				<path class="st10" d="M308.9,176.7h5.6c0,0.1,0,0.6,0.1,1.6s0.2,2.3,0.4,3.9c1-0.6,2-1,3.1-1.3s2.3-0.4,3.6-0.4
					c0.3-1.7,0.4-3,0.5-4.1s0.1-1.6,0.1-1.6h6.1c0,0-0.1,0.6-0.2,1.8c-0.2,1.2-0.4,2.8-0.7,4.7c2.5,0.8,4.3,2.2,5.6,4.1
					c1.3,1.9,2.1,3.8,2.4,5.9s0.4,3.8,0.3,5.3c-0.3,2.7-1,4.9-2.1,6.6s-2.4,3-3.7,3.9s-2.7,1.5-4,1.9s-2.8,0.6-4.6,0.7v-6.6
					c1.6-0.1,2.9-0.3,4-0.7c1-0.4,1.9-1.1,2.7-2c0.7-1,1.2-2.4,1.4-4.2c0.2-2,0-3.8-0.7-5.6s-1.6-2.8-2.7-3c-0.6,2-1.2,3.9-1.8,6
					c-0.7,2-1.4,3.9-2.2,5.7c-0.6,1.3-1.3,2.7-2.2,3.9c-0.9,1.3-1.9,2.3-3.1,3.2c-1.2,0.8-2.5,1.3-3.9,1.3c-1.7-0.1-3-0.6-4-1.8
					c-1-1.1-1.7-2.5-2.1-4.1s-0.6-3.2-0.5-4.7c0-0.8,0.2-1.8,0.4-3c0.3-1.2,0.7-2.5,1.3-3.9s1.4-2.8,2.4-4.1
					c-0.3-1.6-0.6-3.1-0.8-4.5c-0.2-1.4-0.4-2.6-0.5-3.4C309,177.2,308.9,176.8,308.9,176.7z M313,201.1c0.3,0.1,0.7,0,1.1-0.2
					s0.9-0.7,1.5-1.5c-0.5-0.8-1-1.7-1.6-2.8c-0.6-1-1.1-2.2-1.7-3.5c-0.3,0.7-0.5,1.4-0.7,2.1c-0.2,0.7-0.3,1.3-0.3,1.9
					c-0.1,1.4,0.1,2.4,0.4,3C312.1,200.8,312.6,201.1,313,201.1z M316.3,188.5c0,0.1,0.2,0.6,0.5,1.7c0.3,1.1,0.9,2.3,1.7,3.7
					c0.4-1.1,0.8-2.3,1.2-3.4c0.3-1.2,0.7-2.3,0.9-3.5c-0.6,0-1.3,0.1-2.1,0.3S316.9,188,316.3,188.5z"/>
				<path class="st10" d="M343.3,183.1v-6.6h19.8v5.8l-8,6.8c2.6-0.8,4.8-0.9,6.7-0.3c1.8,0.6,3.3,1.8,4.4,3.4
					c1.1,1.7,1.7,3.6,1.7,5.9c0.1,4.7-1.7,8-5.5,9.9s-9.4,2.2-16.8,0.9v-6.5c4.5,0.9,8,1.2,10.4,0.9s4-0.9,4.7-1.8
					c0.7-1,1.1-2.1,1-3.4c0-1.3-0.5-2.4-1.4-3.2s-2.7-1.1-5.2-0.8c-1,0.1-2.2,0.4-3.6,1s-3,1.5-4.7,2.8c-1.8,1.3-3.8,3.2-6.1,5.5
					v-8.9l12.9-11.3L343.3,183.1L343.3,183.1z"/>
				<path class="st10" d="M388,205.8c-0.8-0.8-1.2-1.8-1.2-3.1c0-1.2,0.4-2.2,1.2-3c0.8-0.8,1.8-1.2,3.1-1.2c1.2,0,2.3,0.4,3.1,1.2
					c0.8,0.8,1.2,1.8,1.2,3s-0.4,2.3-1.2,3.1c-0.8,0.8-1.8,1.2-3.1,1.2S388.8,206.6,388,205.8z M388.5,195.3l-1.3-13.3l-0.3-7h8.2
					l-0.3,7l-1.3,13.3H388.5z"/>
			</g>
		</g>
	</g>
</g>
<g id="レイヤー_2">
	<g>
		<g>
			<path class="st6" d="M102.7,150.1H87.3v-4H56.6v3.9H41.7v-27.2c-6.1,3.4-13.1,6.5-21,9.2c-1-2.2-2.3-4.6-4-7.2
				c-1.7-2.6-3.3-4.6-4.7-6.1c12.8-3.7,24.3-9.3,34.5-16.7c-2.8-3-7.4-7.1-13.8-12.4c-3.1,2.3-6.5,4.6-10.3,6.9
				c-1.1-1.8-2.7-3.9-4.7-6.3c-2.1-2.3-4-4.2-5.7-5.5c8-4.1,14.9-9,20.6-14.6c5.7-5.6,10.2-11.5,13.4-17.6l16.6,3.3
				c-1.2,2-2.7,4.5-4.7,7.3h20l2.4-0.7l10.3,5.4c-4.8,13.1-12,24.6-21.6,34.6h33.7V150.1z M47.6,76.1L44,79.9
				c6.3,4.6,11.1,8.5,14.6,11.7c4.7-4.8,8.6-10,11.7-15.5H47.6z M56.6,132.8h30.7v-17H56.6V132.8z"/>
			<path class="st8" d="M113.6,140.8c3.2-4.6,5-12.3,5.5-23.2l7.9,1.4c-0.4,6.1-1,11.2-1.8,15.3c-0.8,4.1-2.2,7.6-4.2,10.3
				L113.6,140.8z M194.9,104.3c3.4,16.9,9.6,28.2,18.5,34c-1.6,1.4-3.3,3.2-5.2,5.6c-1.9,2.4-3.4,4.5-4.4,6.4
				c-6.1-4.4-10.8-10.4-14.1-18c-3.4-7.6-6-16.9-7.9-28h-2.1c-0.7,21.1-4.1,36.5-10.4,46.1c-1.2-1-2.9-2.3-5.3-3.7
				c-2.3-1.5-4.4-2.6-6.1-3.4c-0.3,0.9-0.6,1.6-1.1,2.2c-0.9,1.2-1.8,2.1-2.9,2.8c-1,0.6-2.2,1.1-3.6,1.3c-2.1,0.4-5.1,0.5-9.1,0.4
				c-0.1-1.8-0.5-3.8-1-6c-0.5-2.1-1.2-4-2-5.5c1.5,0.2,3.3,0.3,5.3,0.3c1.1,0,2-0.4,2.7-1.3c0.7-1.1,1.3-3.5,1.7-7.1l-3.2,1.1
				c-0.3-1.8-0.8-3.9-1.5-6.3c-0.7-2.4-1.6-4.7-2.4-6.8l5.5-1.8c0.9,1.9,1.7,3.8,2.3,5.7c0.1-3.5,0.3-6.1,0.4-7.8h-29.5V56.7h39.9
				v11.8h-11.2v4h9.7v11h-9.7v4.3h9.7v11h-9.7v4.4h13.4l-0.2,4.8c-0.7,16.9-1.6,27.9-2.9,32.9c3.1-5.6,5.2-12.2,6.1-19.6
				c1-7.4,1.4-15.8,1.4-25.1V56.6h42.5v47.7H194.9z M133.2,119.6c0.6,4.5,0.9,9.3,0.9,14.5c0,2,0,3.5-0.1,4.4l-6.4,0.8
				c0.1-2.4,0.2-4.5,0.2-6.1c0-4.9-0.2-9.2-0.7-13L133.2,119.6z M136.5,68.5h-4.6v4h4.6V68.5z M136.5,87.8v-4.3h-4.6v4.3H136.5z
				 M131.9,98.8v4.4h4.6v-4.4H131.9z M139.9,118.7c0.7,2.5,1.4,5.3,1.9,8.4c0.5,3.1,0.9,5.8,1,8.2l-6.3,1.2c-0.1-2.2-0.3-4.8-0.8-8
				c-0.5-3.1-1.1-6.1-1.7-8.8L139.9,118.7z M195.3,70.1h-15.6v20.7h15.6V70.1z"/>
			<path class="st9" d="M313,64.8c-2.2,4-4.7,8.1-7.7,12.1s-5.9,7.8-8.9,11c5.2,4.2,11.6,7.4,19,9.7c-1.5,1.4-3.1,3.3-4.9,5.8
				c-1.8,2.5-3.2,4.7-4.2,6.7l-1.9-0.7v12.1h-31v14.7c0,3.4-0.4,6-1.3,7.8c-0.9,1.8-2.5,3.2-4.9,4.1c-1.8,0.7-3.9,1.3-6.2,1.5
				c-2.3,0.3-5.1,0.4-8.5,0.4h-3.3c-0.3-1.9-1-4.1-1.9-6.6c-0.9-2.5-1.9-4.6-2.9-6.5c2.8,0.1,6.7,0.2,11.8,0.2
				c0.8,0,1.4-0.1,1.7-0.3c0.3-0.2,0.5-0.6,0.5-1.2v-14.2h-31.6v-11.7l-3.3,1.2c-0.9-1.8-2.1-3.9-3.6-6.2c-1.5-2.3-2.9-4.1-4.2-5.4
				c6.6-2,12.4-4.8,17.5-8.4c-2.4-2.2-4.5-4.1-6.4-5.7l-2.7,1.9c-1-1.6-2.3-3.3-4.2-5.3s-3.5-3.4-4.9-4.3c5.2-3.3,9.7-7,13.4-11.3
				c3.7-4.2,6.6-8.7,8.7-13.2l13.7,2.4l-1.7,3.5h7.7l2.3-0.5l5.7,2.2l-1.2-4.3l12.6-2.5c1,3.9,2.2,7.8,3.9,11.6V59h20.5l2.9-0.8
				L313,64.8z M249.2,126.9c-2.3,4.3-5.3,8.4-8.9,12.4c-3.6,4-7.3,7.3-11.1,10c-1.4-1.4-3.3-3-5.8-5c-2.5-2-4.6-3.5-6.4-4.7
				c3.6-2,7-4.6,10.1-7.6c3.1-3,5.5-6.2,7.2-9.4L249.2,126.9z M301.7,108.3c-6.7-3-12.3-6.7-16.9-11.1v4.7h-38.1v-4
				c-4.9,4.1-10.4,7.6-16.5,10.4H301.7z M234.2,79.2c2.9,2.2,5.2,4,6.9,5.4l2.6-2.8c-1.4-1.2-3.7-2.9-7-5.2L234.2,79.2z M242.4,69.7
				c1.8,1,4.1,2.4,6.7,4.3c1.2-2,2-3.8,2.6-5.2h-8.6L242.4,69.7z M277.4,88.7c-4.1-5.9-7.7-13.1-10.7-21.6
				c-2.5,8-6.3,15.2-11.2,21.6H277.4z M292.1,122.7c3.7,3,7.5,6.2,11.2,9.7c3.7,3.5,6.6,6.5,8.5,9.1l-13.3,8.1
				c-1.7-2.6-4.3-5.7-7.9-9.4c-3.6-3.7-7.2-7.2-10.9-10.4L292.1,122.7z M282.6,70.9c1.6,3,3.2,5.5,4.8,7.6c1.4-1.8,3.1-4.4,5.2-7.6
				H282.6z"/>
		</g>
		<g>
			<path class="st11" d="M102.7,150.1H87.3v-4H56.6v3.9H41.7v-27.2c-6.1,3.4-13.1,6.5-21,9.2c-1-2.2-2.3-4.6-4-7.2
				c-1.7-2.6-3.3-4.6-4.7-6.1c12.8-3.7,24.3-9.3,34.5-16.7c-2.8-3-7.4-7.1-13.8-12.4c-3.1,2.3-6.5,4.6-10.3,6.9
				c-1.1-1.8-2.7-3.9-4.7-6.3c-2.1-2.3-4-4.2-5.7-5.5c8-4.1,14.9-9,20.6-14.6c5.7-5.6,10.2-11.5,13.4-17.6l16.6,3.3
				c-1.2,2-2.7,4.5-4.7,7.3h20l2.4-0.7l10.3,5.4c-4.8,13.1-12,24.6-21.6,34.6h33.7V150.1z M47.6,76.1L44,79.9
				c6.3,4.6,11.1,8.5,14.6,11.7c4.7-4.8,8.6-10,11.7-15.5H47.6z M56.6,132.8h30.7v-17H56.6V132.8z"/>
			<path class="st11" d="M113.6,140.8c3.2-4.6,5-12.3,5.5-23.2l7.9,1.4c-0.4,6.1-1,11.2-1.8,15.3c-0.8,4.1-2.2,7.6-4.2,10.3
				L113.6,140.8z M194.9,104.3c3.4,16.9,9.6,28.2,18.5,34c-1.6,1.4-3.3,3.2-5.2,5.6c-1.9,2.4-3.4,4.5-4.4,6.4
				c-6.1-4.4-10.8-10.4-14.1-18c-3.4-7.6-6-16.9-7.9-28h-2.1c-0.7,21.1-4.1,36.5-10.4,46.1c-1.2-1-2.9-2.3-5.3-3.7
				c-2.3-1.5-4.4-2.6-6.1-3.4c-0.3,0.9-0.6,1.6-1.1,2.2c-0.9,1.2-1.8,2.1-2.9,2.8c-1,0.6-2.2,1.1-3.6,1.3c-2.1,0.4-5.1,0.5-9.1,0.4
				c-0.1-1.8-0.5-3.8-1-6c-0.5-2.1-1.2-4-2-5.5c1.5,0.2,3.3,0.3,5.3,0.3c1.1,0,2-0.4,2.7-1.3c0.7-1.1,1.3-3.5,1.7-7.1l-3.2,1.1
				c-0.3-1.8-0.8-3.9-1.5-6.3c-0.7-2.4-1.6-4.7-2.4-6.8l5.5-1.8c0.9,1.9,1.7,3.8,2.3,5.7c0.1-3.5,0.3-6.1,0.4-7.8h-29.5V56.7h39.9
				v11.8h-11.2v4h9.7v11h-9.7v4.3h9.7v11h-9.7v4.4h13.4l-0.2,4.8c-0.7,16.9-1.6,27.9-2.9,32.9c3.1-5.6,5.2-12.2,6.1-19.6
				c1-7.4,1.4-15.8,1.4-25.1V56.6h42.5v47.7H194.9z M133.2,119.6c0.6,4.5,0.9,9.3,0.9,14.5c0,2,0,3.5-0.1,4.4l-6.4,0.8
				c0.1-2.4,0.2-4.5,0.2-6.1c0-4.9-0.2-9.2-0.7-13L133.2,119.6z M136.5,68.5h-4.6v4h4.6V68.5z M136.5,87.8v-4.3h-4.6v4.3H136.5z
				 M131.9,98.8v4.4h4.6v-4.4H131.9z M139.9,118.7c0.7,2.5,1.4,5.3,1.9,8.4c0.5,3.1,0.9,5.8,1,8.2l-6.3,1.2c-0.1-2.2-0.3-4.8-0.8-8
				c-0.5-3.1-1.1-6.1-1.7-8.8L139.9,118.7z M195.3,70.1h-15.6v20.7h15.6V70.1z"/>
			<path class="st11" d="M313,64.8c-2.2,4-4.7,8.1-7.7,12.1s-5.9,7.8-8.9,11c5.2,4.2,11.6,7.4,19,9.7c-1.5,1.4-3.1,3.3-4.9,5.8
				c-1.8,2.5-3.2,4.7-4.2,6.7l-1.9-0.7v12.1h-31v14.7c0,3.4-0.4,6-1.3,7.8c-0.9,1.8-2.5,3.2-4.9,4.1c-1.8,0.7-3.9,1.3-6.2,1.5
				c-2.3,0.3-5.1,0.4-8.5,0.4h-3.3c-0.3-1.9-1-4.1-1.9-6.6c-0.9-2.5-1.9-4.6-2.9-6.5c2.8,0.1,6.7,0.2,11.8,0.2
				c0.8,0,1.4-0.1,1.7-0.3c0.3-0.2,0.5-0.6,0.5-1.2v-14.2h-31.6v-11.7l-3.3,1.2c-0.9-1.8-2.1-3.9-3.6-6.2c-1.5-2.3-2.9-4.1-4.2-5.4
				c6.6-2,12.4-4.8,17.5-8.4c-2.4-2.2-4.5-4.1-6.4-5.7l-2.7,1.9c-1-1.6-2.3-3.3-4.2-5.3s-3.5-3.4-4.9-4.3c5.2-3.3,9.7-7,13.4-11.3
				c3.7-4.2,6.6-8.7,8.7-13.2l13.7,2.4l-1.7,3.5h7.7l2.3-0.5l5.7,2.2l-1.2-4.3l12.6-2.5c1,3.9,2.2,7.8,3.9,11.6V59h20.5l2.9-0.8
				L313,64.8z M249.2,126.9c-2.3,4.3-5.3,8.4-8.9,12.4c-3.6,4-7.3,7.3-11.1,10c-1.4-1.4-3.3-3-5.8-5c-2.5-2-4.6-3.5-6.4-4.7
				c3.6-2,7-4.6,10.1-7.6c3.1-3,5.5-6.2,7.2-9.4L249.2,126.9z M301.7,108.3c-6.7-3-12.3-6.7-16.9-11.1v4.7h-38.1v-4
				c-4.9,4.1-10.4,7.6-16.5,10.4H301.7z M234.2,79.2c2.9,2.2,5.2,4,6.9,5.4l2.6-2.8c-1.4-1.2-3.7-2.9-7-5.2L234.2,79.2z M242.4,69.7
				c1.8,1,4.1,2.4,6.7,4.3c1.2-2,2-3.8,2.6-5.2h-8.6L242.4,69.7z M277.4,88.7c-4.1-5.9-7.7-13.1-10.7-21.6
				c-2.5,8-6.3,15.2-11.2,21.6H277.4z M292.1,122.7c3.7,3,7.5,6.2,11.2,9.7c3.7,3.5,6.6,6.5,8.5,9.1l-13.3,8.1
				c-1.7-2.6-4.3-5.7-7.9-9.4c-3.6-3.7-7.2-7.2-10.9-10.4L292.1,122.7z M282.6,70.9c1.6,3,3.2,5.5,4.8,7.6c1.4-1.8,3.1-4.4,5.2-7.6
				H282.6z"/>
		</g>
	</g>
	<g>
		<g>
			<path d="M48.7,211h-6.3v-1.6H29.7v1.6h-6.1v-11.2c-2.5,1.4-5.4,2.7-8.7,3.8c-0.4-0.9-0.9-1.9-1.6-3c-0.7-1.1-1.3-1.9-1.9-2.5
				c5.3-1.5,10-3.8,14.2-6.9c-1.1-1.2-3-2.9-5.7-5.1c-1.3,1-2.7,1.9-4.2,2.9c-0.4-0.8-1.1-1.6-2-2.6c-0.9-1-1.6-1.7-2.3-2.2
				c3.3-1.7,6.1-3.7,8.5-6c2.4-2.3,4.2-4.7,5.5-7.2l6.8,1.3c-0.5,0.8-1.1,1.8-1.9,3h8.2l1-0.3l4.2,2.2c-2,5.4-4.9,10.1-8.9,14.2
				h13.9V211z M26,180.5l-1.5,1.6c2.6,1.9,4.6,3.5,6,4.8c1.9-2,3.5-4.1,4.8-6.4H26z M29.7,203.8h12.6v-7H29.7V203.8z"/>
			<path d="M53.2,207.2c1.3-1.9,2.1-5.1,2.3-9.5l3.2,0.6c-0.2,2.5-0.4,4.6-0.8,6.3c-0.3,1.7-0.9,3.1-1.7,4.2L53.2,207.2z
				 M86.6,192.1c1.4,6.9,3.9,11.6,7.6,14c-0.6,0.6-1.4,1.3-2.1,2.3c-0.8,1-1.4,1.9-1.8,2.6c-2.5-1.8-4.4-4.3-5.8-7.4
				c-1.4-3.1-2.5-7-3.3-11.5h-0.9c-0.3,8.7-1.7,15-4.3,19c-0.5-0.4-1.2-0.9-2.2-1.5c-1-0.6-1.8-1.1-2.5-1.4
				c-0.1,0.4-0.3,0.7-0.5,0.9c-0.4,0.5-0.8,0.9-1.2,1.1s-0.9,0.4-1.5,0.5c-0.9,0.2-2.1,0.2-3.7,0.2c-0.1-0.8-0.2-1.6-0.4-2.5
				s-0.5-1.6-0.8-2.2c0.6,0.1,1.3,0.1,2.2,0.1c0.4,0,0.8-0.2,1.1-0.5c0.3-0.4,0.5-1.4,0.7-2.9l-1.3,0.5c-0.1-0.7-0.3-1.6-0.6-2.6
				c-0.3-1-0.6-1.9-1-2.8l2.3-0.8c0.4,0.8,0.7,1.6,1,2.4c0.1-1.4,0.1-2.5,0.2-3.2H55.6v-23.8h16.4v4.9h-4.6v1.6h4v4.5h-4v1.8h4v4.5
				h-4v1.8h5.5l-0.1,2c-0.3,7-0.7,11.5-1.2,13.6c1.3-2.3,2.1-5,2.5-8.1c0.4-3.1,0.6-6.5,0.6-10.3v-16.3h17.5v19.7H86.6z M61.2,198.4
				c0.3,1.8,0.4,3.8,0.4,6c0,0.8,0,1.4,0,1.8l-2.6,0.3c0.1-1,0.1-1.8,0.1-2.5c0-2-0.1-3.8-0.3-5.3L61.2,198.4z M62.6,177.4h-1.9v1.6
				h1.9V177.4z M62.6,185.3v-1.8h-1.9v1.8H62.6z M60.7,189.9v1.8h1.9v-1.8H60.7z M64,198.1c0.3,1,0.6,2.2,0.8,3.4
				c0.2,1.3,0.4,2.4,0.4,3.4l-2.6,0.5c0-0.9-0.1-2-0.3-3.3c-0.2-1.3-0.4-2.5-0.7-3.6L64,198.1z M86.8,178.1h-6.4v8.5h6.4V178.1z"/>
			<path d="M113.4,215.6c-2.1-3.4-3.7-6.9-4.7-10.5c-1.1-3.6-1.6-7.4-1.6-11.5c0-4.1,0.5-7.9,1.6-11.5c1.1-3.6,2.6-7.1,4.7-10.5
				l4.7,1.9c-1.7,3-2.9,6.2-3.8,9.6c-0.8,3.4-1.2,6.9-1.2,10.4s0.4,7,1.2,10.4c0.8,3.4,2.1,6.6,3.8,9.7L113.4,215.6z"/>
			<path d="M154.1,205.2c0.4,0,0.7-0.1,0.9-0.4c0.2-0.3,0.3-0.7,0.4-1.4c0.1-0.7,0.2-1.8,0.2-3.3c0.6,0.5,1.4,0.9,2.5,1.4
				c1.1,0.4,2.1,0.8,3.1,1c-0.2,2.2-0.6,3.9-1,5.1s-1.1,2.1-2,2.5s-2.1,0.7-3.6,0.7H150c-1.8,0-3.3-0.2-4.2-0.7
				c-1-0.4-1.7-1.2-2-2.2c-0.4-1-0.6-2.5-0.6-4.3v-7.4h-3.7c-0.3,2.6-0.9,4.8-1.8,6.6s-2.4,3.4-4.5,4.7s-5,2.5-8.8,3.4
				c-0.3-0.8-0.8-1.8-1.5-2.9c-0.7-1.1-1.3-1.9-1.9-2.6c3.2-0.6,5.6-1.3,7.2-2.2c1.7-0.9,2.8-1.8,3.4-2.9c0.6-1.1,1-2.5,1.3-4.2
				h-7.1v-10.2l-0.5,0.3c-0.4-0.8-1-1.6-1.9-2.6c-0.8-1-1.6-1.7-2.2-2.2c2.7-1.4,5-3,6.9-4.9c1.9-1.9,3.5-3.8,4.6-5.9l6.6,1.3
				l-0.9,1.4h7.1l1-0.3l4.3,2.8c-0.9,1.6-2.1,3.3-3.4,5.1H158v15.1h-8.4v7.3c0,0.7,0.1,1.1,0.3,1.3c0.2,0.2,0.6,0.3,1.2,0.3H154.1z
				 M132,186.6v4.3h6.4v-4.3H132z M134.8,178.5c-0.5,0.6-1.4,1.5-2.6,2.7h8c0.7-0.9,1.4-1.8,1.9-2.7H134.8z M151.5,190.9v-4.3h-7.1
				v4.3H151.5z"/>
			<path d="M200.3,195.4c-1.3,3.7-3.3,6.6-6,8.9c2.6,0.7,5.8,1.1,9.6,1.3c-0.6,0.6-1.3,1.5-2,2.5c-0.7,1.1-1.2,2.1-1.6,3
				c-5.1-0.5-9.2-1.5-12.2-3c-3.1,1.3-6.8,2.3-11.3,3c-0.3-0.8-0.7-1.7-1.2-2.6c-0.5-1-1-1.7-1.5-2.4c3.2-0.3,6.1-0.9,8.8-1.7
				c-1.3-1.3-2.4-2.8-3.4-4.6l3.8-0.9h-5.6V194h0.5c-0.8-1.1-1.7-2.2-2.7-3.2c-0.4,9.1-2.7,15.7-6.8,19.8c-0.4-0.6-1.1-1.3-2.1-2.2
				c-1-0.9-1.7-1.5-2.3-1.9c2.1-2.2,3.6-4.9,4.5-8.4l-1.3,0.8l-2.7,1.6l-1.7-5.8c1.2-0.4,3.4-1.5,6.6-3c0.1-0.9,0.1-2.2,0.1-3.9V187
				l-3.9,2.1c-0.2-1-0.5-2.3-1-3.8c-0.5-1.5-1-2.9-1.7-4.3l4.4-2.2c0.9,1.8,1.6,3.4,2.1,4.9v-8.4h12.4v-4.2h6.5v4.2h14.4v5.4h-27.6
				v7.2c0,1,0,1.8,0,2.4c1.3-0.4,2.4-0.8,3-1.3c0.7-0.5,1.1-1,1.3-1.5s0.3-1.1,0.3-1.9v-3.5h16.3v5.1c0,0.6,0,0.9,0.1,1.1
				c0.1,0.1,0.2,0.2,0.4,0.2h0.8c0.3,0,0.4-0.2,0.5-0.7c0.1-0.4,0.2-1.3,0.2-2.7c0.5,0.4,1.3,0.8,2.3,1.2c1,0.4,1.9,0.7,2.7,0.8
				c-0.2,1.6-0.4,2.8-0.8,3.7s-0.9,1.5-1.6,1.8c-0.7,0.4-1.6,0.5-2.6,0.5h-2.6c-1.4,0-2.5-0.2-3.2-0.5c-0.8-0.4-1.3-1-1.6-1.8
				c-0.3-0.8-0.5-2-0.5-3.6v-0.2h-4.8c-0.1,1.5-0.6,2.8-1.3,3.9c-0.7,1.1-1.8,2.1-3.4,2.9h14.2l1.1-0.2L200.3,195.4z M185.4,198.9
				c0.8,1.1,1.8,2.1,3,2.9c1.3-0.9,2.5-1.8,3.4-2.9H185.4z"/>
			<path d="M206.9,213.7c1.7-3,2.9-6.2,3.8-9.7c0.8-3.4,1.2-6.9,1.2-10.4s-0.4-7-1.2-10.4c-0.8-3.4-2.1-6.6-3.8-9.6l4.7-1.9
				c2.1,3.4,3.7,6.9,4.7,10.5c1.1,3.6,1.6,7.4,1.6,11.5c0,4.1-0.5,8-1.6,11.5c-1.1,3.6-2.6,7-4.7,10.5L206.9,213.7z"/>
			<path d="M239,185.5h-6.8v-5.8h9c0.3-1,0.6-2.1,1-3.4h6.3c0,0-0.1,0.3-0.3,0.9c-0.1,0.6-0.4,1.4-0.8,2.5h9.6v5.8h-12.3
				c0,0.1-0.2,0.4-0.5,1c-0.3,0.6-0.6,1.2-0.9,1.7c0,0,0.2-0.1,0.5-0.4s0.5-0.3,0.7-0.4c1.9-0.7,3.3-0.7,4.4,0
				c1,0.7,1.8,1.7,2.1,3.1c1.6-0.8,3-1.6,4.4-2.1c1.4-0.6,2.9-1.2,4.6-1.8v6.8c0,0-0.5,0.1-1.3,0.4c-0.8,0.3-1.9,0.7-3.3,1.1
				c-1.3,0.5-2.7,1-4.1,1.6c0,1.6,0,3,0,4.1s0,1.7,0,1.8h-5.8c0,0,0-0.3,0-0.9c0-0.6,0-1.3,0-2.1c0,0-0.2,0.1-0.4,0.3
				c-0.2,0.2-0.4,0.3-0.6,0.4c-1.2,1-1.7,1.9-1.5,2.8c0.2,0.9,1.2,1.3,3.1,1.4c2,0,3.8-0.1,5.6-0.4c1.7-0.2,3.2-0.4,4.3-0.6
				c1.1-0.2,1.7-0.3,1.7-0.4v6.9c0,0.1-1.1,0.2-3.2,0.4s-5,0.3-8.8,0.3c-2.2-0.1-4-0.6-5.4-1.6s-2.3-2.2-2.8-3.8
				c-0.4-1.5-0.3-3.1,0.4-4.8c0.7-1.7,2.1-3.3,4.1-4.7c0.6-0.4,1.2-0.8,1.7-1.1c0.6-0.4,1.2-0.7,1.7-1.1c0-0.5-0.2-0.9-0.4-1.1
				c-0.2-0.2-0.6-0.3-1.3-0.2c-0.5,0.1-1.2,0.5-2,1s-1.6,1.1-2.5,1.9c-0.9,0.7-1.7,1.4-2.4,2.1c-1.4,1.5-2.6,2.8-3.5,3.7
				c-1,1-1.5,1.5-1.6,1.5v-7.8c0,0,0.4-0.3,1-0.9c0.7-0.6,1.4-1.4,2.2-2.5s1.7-2.4,2.6-3.8c0.2-0.3,0.4-0.7,0.6-1.2
				C238.9,185.8,239,185.6,239,185.5z"/>
			<path d="M285.9,174.3h15.7v5.2h-37.1v-5.2h15.1V171h6.3V174.3z M300.4,204.8c0,1.4-0.2,2.5-0.5,3.3s-0.9,1.4-1.8,1.8
				c-0.8,0.4-1.7,0.7-2.8,0.8c-1,0.1-2.3,0.2-4,0.2c-0.1-1-0.4-2-0.8-3.2h-10.5v1.8h-5.2V198h16.2v7.3c1.2,0.1,2,0.1,2.4,0
				c0.3,0,0.5,0,0.6-0.1c0.1-0.1,0.2-0.2,0.2-0.5v-8.1H272V211h-6v-19.5h34.4V204.8z M294.7,180.7v9.6h-23.4v-9.6H294.7z
				 M288.6,186.3v-1.7h-11.4v1.7H288.6z M285.8,203.8V202h-5.6v1.8H285.8z"/>
			<path d="M309.2,177.2h5.6c0,0.1,0,0.6,0.1,1.6c0.1,1,0.2,2.3,0.4,3.9c1-0.6,2-1,3.1-1.3c1.1-0.3,2.3-0.4,3.6-0.4
				c0.3-1.7,0.4-3,0.5-4.1c0.1-1,0.1-1.6,0.1-1.6h6.1c0,0-0.1,0.6-0.2,1.8c-0.2,1.2-0.4,2.8-0.7,4.7c2.5,0.8,4.3,2.2,5.6,4.1
				c1.3,1.9,2.1,3.9,2.4,5.9c0.3,2.1,0.4,3.8,0.3,5.3c-0.3,2.7-1,4.9-2.1,6.6s-2.4,3-3.7,3.9s-2.7,1.5-4,1.9
				c-1.3,0.4-2.8,0.6-4.6,0.7v-6.6c1.6-0.1,2.9-0.3,4-0.7c1-0.4,1.9-1.1,2.7-2c0.7-1,1.2-2.4,1.4-4.2c0.2-2,0-3.8-0.7-5.6
				c-0.7-1.8-1.6-2.8-2.7-3c-0.6,2-1.2,3.9-1.8,6c-0.7,2-1.4,3.9-2.2,5.7c-0.6,1.3-1.3,2.7-2.2,3.9c-0.9,1.3-1.9,2.3-3.1,3.2
				c-1.2,0.8-2.5,1.3-3.9,1.3c-1.7-0.1-3-0.6-4-1.8c-1-1.1-1.7-2.5-2.1-4.1c-0.4-1.6-0.6-3.2-0.5-4.7c0-0.8,0.2-1.8,0.4-3
				c0.3-1.2,0.7-2.5,1.3-3.9c0.6-1.4,1.4-2.8,2.4-4.1c-0.3-1.6-0.6-3.1-0.8-4.5s-0.4-2.6-0.5-3.4
				C309.2,177.7,309.2,177.3,309.2,177.2z M313.3,201.6c0.3,0.1,0.7,0,1.1-0.2c0.4-0.2,0.9-0.7,1.5-1.5c-0.5-0.8-1-1.7-1.6-2.8
				c-0.6-1-1.1-2.2-1.7-3.5c-0.3,0.7-0.5,1.4-0.7,2.1c-0.2,0.7-0.3,1.3-0.3,1.9c-0.1,1.4,0.1,2.4,0.4,3
				C312.4,201.3,312.8,201.6,313.3,201.6z M316.6,189c0,0.1,0.2,0.6,0.5,1.7c0.3,1.1,0.9,2.3,1.7,3.7c0.4-1.1,0.8-2.3,1.2-3.4
				c0.3-1.2,0.7-2.3,0.9-3.5c-0.6,0-1.3,0.1-2.1,0.3S317.2,188.5,316.6,189z"/>
			<path d="M343.5,183.6V177h19.8v5.8l-8,6.8c2.6-0.8,4.8-0.9,6.7-0.3c1.8,0.6,3.3,1.8,4.4,3.4c1.1,1.7,1.7,3.6,1.7,5.9
				c0.1,4.7-1.7,8-5.5,9.9c-3.8,1.9-9.4,2.2-16.8,0.9v-6.5c4.5,0.9,8,1.2,10.4,0.9c2.4-0.3,4-0.9,4.7-1.8c0.7-1,1.1-2.1,1-3.4
				c0-1.3-0.5-2.4-1.4-3.2c-1-0.8-2.7-1.1-5.2-0.8c-1,0.1-2.2,0.4-3.6,1c-1.4,0.5-3,1.5-4.7,2.8c-1.8,1.3-3.8,3.2-6.1,5.5v-8.9
				l12.9-11.3H343.5z"/>
			<path d="M388.2,206.3c-0.8-0.8-1.2-1.8-1.2-3.1s0.4-2.2,1.2-3c0.8-0.8,1.8-1.2,3.1-1.2c1.2,0,2.3,0.4,3.1,1.2
				c0.8,0.8,1.2,1.8,1.2,3s-0.4,2.3-1.2,3.1c-0.8,0.8-1.8,1.2-3.1,1.2C390.1,207.5,389,207.1,388.2,206.3z M388.7,195.8l-1.3-13.3
				l-0.3-7h8.2l-0.3,7l-1.3,13.3H388.7z"/>
		</g>
		<g>
			<path class="st10" d="M48.7,211h-6.3v-1.6H29.7v1.6h-6.1v-11.2c-2.5,1.4-5.4,2.7-8.7,3.8c-0.4-0.9-0.9-1.9-1.6-3
				c-0.7-1.1-1.3-1.9-1.9-2.5c5.3-1.5,10-3.8,14.2-6.9c-1.1-1.2-3-2.9-5.7-5.1c-1.3,1-2.7,1.9-4.2,2.9c-0.4-0.8-1.1-1.6-2-2.6
				c-0.9-1-1.6-1.7-2.3-2.2c3.3-1.7,6.1-3.7,8.5-6c2.4-2.3,4.2-4.7,5.5-7.2l6.8,1.3c-0.5,0.8-1.1,1.8-1.9,3h8.2l1-0.3l4.2,2.2
				c-2,5.4-4.9,10.1-8.9,14.2h13.9V211z M26,180.5l-1.5,1.6c2.6,1.9,4.6,3.5,6,4.8c1.9-2,3.5-4.1,4.8-6.4H26z M29.7,203.8h12.6v-7
				H29.7V203.8z"/>
			<path class="st10" d="M53.2,207.2c1.3-1.9,2.1-5.1,2.3-9.5l3.2,0.6c-0.2,2.5-0.4,4.6-0.8,6.3c-0.3,1.7-0.9,3.1-1.7,4.2
				L53.2,207.2z M86.6,192.1c1.4,6.9,3.9,11.6,7.6,14c-0.6,0.6-1.4,1.3-2.1,2.3c-0.8,1-1.4,1.9-1.8,2.6c-2.5-1.8-4.4-4.3-5.8-7.4
				c-1.4-3.1-2.5-7-3.3-11.5h-0.9c-0.3,8.7-1.7,15-4.3,19c-0.5-0.4-1.2-0.9-2.2-1.5c-1-0.6-1.8-1.1-2.5-1.4
				c-0.1,0.4-0.3,0.7-0.5,0.9c-0.4,0.5-0.8,0.9-1.2,1.1s-0.9,0.4-1.5,0.5c-0.9,0.2-2.1,0.2-3.7,0.2c-0.1-0.8-0.2-1.6-0.4-2.5
				s-0.5-1.6-0.8-2.2c0.6,0.1,1.3,0.1,2.2,0.1c0.4,0,0.8-0.2,1.1-0.5c0.3-0.4,0.5-1.4,0.7-2.9l-1.3,0.5c-0.1-0.7-0.3-1.6-0.6-2.6
				c-0.3-1-0.6-1.9-1-2.8l2.3-0.8c0.4,0.8,0.7,1.6,1,2.4c0.1-1.4,0.1-2.5,0.2-3.2H55.6v-23.8h16.4v4.9h-4.6v1.6h4v4.5h-4v1.8h4v4.5
				h-4v1.8h5.5l-0.1,2c-0.3,7-0.7,11.5-1.2,13.6c1.3-2.3,2.1-5,2.5-8.1c0.4-3.1,0.6-6.5,0.6-10.3v-16.3h17.5v19.7H86.6z M61.2,198.4
				c0.3,1.8,0.4,3.8,0.4,6c0,0.8,0,1.4,0,1.8l-2.6,0.3c0.1-1,0.1-1.8,0.1-2.5c0-2-0.1-3.8-0.3-5.3L61.2,198.4z M62.6,177.4h-1.9v1.6
				h1.9V177.4z M62.6,185.3v-1.8h-1.9v1.8H62.6z M60.7,189.9v1.8h1.9v-1.8H60.7z M64,198.1c0.3,1,0.6,2.2,0.8,3.4
				c0.2,1.3,0.4,2.4,0.4,3.4l-2.6,0.5c0-0.9-0.1-2-0.3-3.3c-0.2-1.3-0.4-2.5-0.7-3.6L64,198.1z M86.8,178.1h-6.4v8.5h6.4V178.1z"/>
			<path class="st10" d="M113.4,215.6c-2.1-3.4-3.7-6.9-4.7-10.5c-1.1-3.6-1.6-7.4-1.6-11.5c0-4.1,0.5-7.9,1.6-11.5
				c1.1-3.6,2.6-7.1,4.7-10.5l4.7,1.9c-1.7,3-2.9,6.2-3.8,9.6c-0.8,3.4-1.2,6.9-1.2,10.4s0.4,7,1.2,10.4c0.8,3.4,2.1,6.6,3.8,9.7
				L113.4,215.6z"/>
			<path class="st10" d="M154.1,205.2c0.4,0,0.7-0.1,0.9-0.4c0.2-0.3,0.3-0.7,0.4-1.4c0.1-0.7,0.2-1.8,0.2-3.3
				c0.6,0.5,1.4,0.9,2.5,1.4c1.1,0.4,2.1,0.8,3.1,1c-0.2,2.2-0.6,3.9-1,5.1s-1.1,2.1-2,2.5s-2.1,0.7-3.6,0.7H150
				c-1.8,0-3.3-0.2-4.2-0.7c-1-0.4-1.7-1.2-2-2.2c-0.4-1-0.6-2.5-0.6-4.3v-7.4h-3.7c-0.3,2.6-0.9,4.8-1.8,6.6s-2.4,3.4-4.5,4.7
				s-5,2.5-8.8,3.4c-0.3-0.8-0.8-1.8-1.5-2.9c-0.7-1.1-1.3-1.9-1.9-2.6c3.2-0.6,5.6-1.3,7.2-2.2c1.7-0.9,2.8-1.8,3.4-2.9
				c0.6-1.1,1-2.5,1.3-4.2h-7.1v-10.2l-0.5,0.3c-0.4-0.8-1-1.6-1.9-2.6c-0.8-1-1.6-1.7-2.2-2.2c2.7-1.4,5-3,6.9-4.9
				c1.9-1.9,3.5-3.8,4.6-5.9l6.6,1.3l-0.9,1.4h7.1l1-0.3l4.3,2.8c-0.9,1.6-2.1,3.3-3.4,5.1H158v15.1h-8.4v7.3c0,0.7,0.1,1.1,0.3,1.3
				c0.2,0.2,0.6,0.3,1.2,0.3H154.1z M132,186.6v4.3h6.4v-4.3H132z M134.8,178.5c-0.5,0.6-1.4,1.5-2.6,2.7h8c0.7-0.9,1.4-1.8,1.9-2.7
				H134.8z M151.5,190.9v-4.3h-7.1v4.3H151.5z"/>
			<path class="st10" d="M200.3,195.4c-1.3,3.7-3.3,6.6-6,8.9c2.6,0.7,5.8,1.1,9.6,1.3c-0.6,0.6-1.3,1.5-2,2.5
				c-0.7,1.1-1.2,2.1-1.6,3c-5.1-0.5-9.2-1.5-12.2-3c-3.1,1.3-6.8,2.3-11.3,3c-0.3-0.8-0.7-1.7-1.2-2.6c-0.5-1-1-1.7-1.5-2.4
				c3.2-0.3,6.1-0.9,8.8-1.7c-1.3-1.3-2.4-2.8-3.4-4.6l3.8-0.9h-5.6V194h0.5c-0.8-1.1-1.7-2.2-2.7-3.2c-0.4,9.1-2.7,15.7-6.8,19.8
				c-0.4-0.6-1.1-1.3-2.1-2.2c-1-0.9-1.7-1.5-2.3-1.9c2.1-2.2,3.6-4.9,4.5-8.4l-1.3,0.8l-2.7,1.6l-1.7-5.8c1.2-0.4,3.4-1.5,6.6-3
				c0.1-0.9,0.1-2.2,0.1-3.9V187l-3.9,2.1c-0.2-1-0.5-2.3-1-3.8c-0.5-1.5-1-2.9-1.7-4.3l4.4-2.2c0.9,1.8,1.6,3.4,2.1,4.9v-8.4h12.4
				v-4.2h6.5v4.2h14.4v5.4h-27.6v7.2c0,1,0,1.8,0,2.4c1.3-0.4,2.4-0.8,3-1.3c0.7-0.5,1.1-1,1.3-1.5s0.3-1.1,0.3-1.9v-3.5h16.3v5.1
				c0,0.6,0,0.9,0.1,1.1c0.1,0.1,0.2,0.2,0.4,0.2h0.8c0.3,0,0.4-0.2,0.5-0.7c0.1-0.4,0.2-1.3,0.2-2.7c0.5,0.4,1.3,0.8,2.3,1.2
				c1,0.4,1.9,0.7,2.7,0.8c-0.2,1.6-0.4,2.8-0.8,3.7s-0.9,1.5-1.6,1.8c-0.7,0.4-1.6,0.5-2.6,0.5h-2.6c-1.4,0-2.5-0.2-3.2-0.5
				c-0.8-0.4-1.3-1-1.6-1.8c-0.3-0.8-0.5-2-0.5-3.6v-0.2h-4.8c-0.1,1.5-0.6,2.8-1.3,3.9c-0.7,1.1-1.8,2.1-3.4,2.9h14.2l1.1-0.2
				L200.3,195.4z M185.4,198.9c0.8,1.1,1.8,2.1,3,2.9c1.3-0.9,2.5-1.8,3.4-2.9H185.4z"/>
			<path class="st10" d="M206.9,213.7c1.7-3,2.9-6.2,3.8-9.7c0.8-3.4,1.2-6.9,1.2-10.4s-0.4-7-1.2-10.4c-0.8-3.4-2.1-6.6-3.8-9.6
				l4.7-1.9c2.1,3.4,3.7,6.9,4.7,10.5c1.1,3.6,1.6,7.4,1.6,11.5c0,4.1-0.5,8-1.6,11.5c-1.1,3.6-2.6,7-4.7,10.5L206.9,213.7z"/>
			<path class="st10" d="M239,185.5h-6.8v-5.8h9c0.3-1,0.6-2.1,1-3.4h6.3c0,0-0.1,0.3-0.3,0.9c-0.1,0.6-0.4,1.4-0.8,2.5h9.6v5.8
				h-12.3c0,0.1-0.2,0.4-0.5,1c-0.3,0.6-0.6,1.2-0.9,1.7c0,0,0.2-0.1,0.5-0.4s0.5-0.3,0.7-0.4c1.9-0.7,3.3-0.7,4.4,0
				c1,0.7,1.8,1.7,2.1,3.1c1.6-0.8,3-1.6,4.4-2.1c1.4-0.6,2.9-1.2,4.6-1.8v6.8c0,0-0.5,0.1-1.3,0.4c-0.8,0.3-1.9,0.7-3.3,1.1
				c-1.3,0.5-2.7,1-4.1,1.6c0,1.6,0,3,0,4.1s0,1.7,0,1.8h-5.8c0,0,0-0.3,0-0.9c0-0.6,0-1.3,0-2.1c0,0-0.2,0.1-0.4,0.3
				c-0.2,0.2-0.4,0.3-0.6,0.4c-1.2,1-1.7,1.9-1.5,2.8c0.2,0.9,1.2,1.3,3.1,1.4c2,0,3.8-0.1,5.6-0.4c1.7-0.2,3.2-0.4,4.3-0.6
				c1.1-0.2,1.7-0.3,1.7-0.4v6.9c0,0.1-1.1,0.2-3.2,0.4s-5,0.3-8.8,0.3c-2.2-0.1-4-0.6-5.4-1.6s-2.3-2.2-2.8-3.8
				c-0.4-1.5-0.3-3.1,0.4-4.8c0.7-1.7,2.1-3.3,4.1-4.7c0.6-0.4,1.2-0.8,1.7-1.1c0.6-0.4,1.2-0.7,1.7-1.1c0-0.5-0.2-0.9-0.4-1.1
				c-0.2-0.2-0.6-0.3-1.3-0.2c-0.5,0.1-1.2,0.5-2,1s-1.6,1.1-2.5,1.9c-0.9,0.7-1.7,1.4-2.4,2.1c-1.4,1.5-2.6,2.8-3.5,3.7
				c-1,1-1.5,1.5-1.6,1.5v-7.8c0,0,0.4-0.3,1-0.9c0.7-0.6,1.4-1.4,2.2-2.5s1.7-2.4,2.6-3.8c0.2-0.3,0.4-0.7,0.6-1.2
				C238.9,185.8,239,185.6,239,185.5z"/>
			<path class="st10" d="M285.9,174.3h15.7v5.2h-37.1v-5.2h15.1V171h6.3V174.3z M300.4,204.8c0,1.4-0.2,2.5-0.5,3.3
				s-0.9,1.4-1.8,1.8c-0.8,0.4-1.7,0.7-2.8,0.8c-1,0.1-2.3,0.2-4,0.2c-0.1-1-0.4-2-0.8-3.2h-10.5v1.8h-5.2V198h16.2v7.3
				c1.2,0.1,2,0.1,2.4,0c0.3,0,0.5,0,0.6-0.1c0.1-0.1,0.2-0.2,0.2-0.5v-8.1H272V211h-6v-19.5h34.4V204.8z M294.7,180.7v9.6h-23.4
				v-9.6H294.7z M288.6,186.3v-1.7h-11.4v1.7H288.6z M285.8,203.8V202h-5.6v1.8H285.8z"/>
			<path class="st10" d="M309.2,177.2h5.6c0,0.1,0,0.6,0.1,1.6c0.1,1,0.2,2.3,0.4,3.9c1-0.6,2-1,3.1-1.3c1.1-0.3,2.3-0.4,3.6-0.4
				c0.3-1.7,0.4-3,0.5-4.1c0.1-1,0.1-1.6,0.1-1.6h6.1c0,0-0.1,0.6-0.2,1.8c-0.2,1.2-0.4,2.8-0.7,4.7c2.5,0.8,4.3,2.2,5.6,4.1
				c1.3,1.9,2.1,3.9,2.4,5.9c0.3,2.1,0.4,3.8,0.3,5.3c-0.3,2.7-1,4.9-2.1,6.6s-2.4,3-3.7,3.9s-2.7,1.5-4,1.9
				c-1.3,0.4-2.8,0.6-4.6,0.7v-6.6c1.6-0.1,2.9-0.3,4-0.7c1-0.4,1.9-1.1,2.7-2c0.7-1,1.2-2.4,1.4-4.2c0.2-2,0-3.8-0.7-5.6
				c-0.7-1.8-1.6-2.8-2.7-3c-0.6,2-1.2,3.9-1.8,6c-0.7,2-1.4,3.9-2.2,5.7c-0.6,1.3-1.3,2.7-2.2,3.9c-0.9,1.3-1.9,2.3-3.1,3.2
				c-1.2,0.8-2.5,1.3-3.9,1.3c-1.7-0.1-3-0.6-4-1.8c-1-1.1-1.7-2.5-2.1-4.1c-0.4-1.6-0.6-3.2-0.5-4.7c0-0.8,0.2-1.8,0.4-3
				c0.3-1.2,0.7-2.5,1.3-3.9c0.6-1.4,1.4-2.8,2.4-4.1c-0.3-1.6-0.6-3.1-0.8-4.5s-0.4-2.6-0.5-3.4
				C309.2,177.7,309.2,177.3,309.2,177.2z M313.3,201.6c0.3,0.1,0.7,0,1.1-0.2c0.4-0.2,0.9-0.7,1.5-1.5c-0.5-0.8-1-1.7-1.6-2.8
				c-0.6-1-1.1-2.2-1.7-3.5c-0.3,0.7-0.5,1.4-0.7,2.1c-0.2,0.7-0.3,1.3-0.3,1.9c-0.1,1.4,0.1,2.4,0.4,3
				C312.4,201.3,312.8,201.6,313.3,201.6z M316.6,189c0,0.1,0.2,0.6,0.5,1.7c0.3,1.1,0.9,2.3,1.7,3.7c0.4-1.1,0.8-2.3,1.2-3.4
				c0.3-1.2,0.7-2.3,0.9-3.5c-0.6,0-1.3,0.1-2.1,0.3S317.2,188.5,316.6,189z"/>
			<path class="st10" d="M343.5,183.6V177h19.8v5.8l-8,6.8c2.6-0.8,4.8-0.9,6.7-0.3c1.8,0.6,3.3,1.8,4.4,3.4
				c1.1,1.7,1.7,3.6,1.7,5.9c0.1,4.7-1.7,8-5.5,9.9c-3.8,1.9-9.4,2.2-16.8,0.9v-6.5c4.5,0.9,8,1.2,10.4,0.9c2.4-0.3,4-0.9,4.7-1.8
				c0.7-1,1.1-2.1,1-3.4c0-1.3-0.5-2.4-1.4-3.2c-1-0.8-2.7-1.1-5.2-0.8c-1,0.1-2.2,0.4-3.6,1c-1.4,0.5-3,1.5-4.7,2.8
				c-1.8,1.3-3.8,3.2-6.1,5.5v-8.9l12.9-11.3H343.5z"/>
			<path class="st10" d="M388.2,206.3c-0.8-0.8-1.2-1.8-1.2-3.1s0.4-2.2,1.2-3c0.8-0.8,1.8-1.2,3.1-1.2c1.2,0,2.3,0.4,3.1,1.2
				c0.8,0.8,1.2,1.8,1.2,3s-0.4,2.3-1.2,3.1c-0.8,0.8-1.8,1.2-3.1,1.2C390.1,207.5,389,207.1,388.2,206.3z M388.7,195.8l-1.3-13.3
				l-0.3-7h8.2l-0.3,7l-1.3,13.3H388.7z"/>
		</g>
	</g>
	<g>
		<g>
			<path d="M11.3,29.8c2.5-2.3,4.3-4.2,5.6-5.7s1.9-2.9,1.9-4.2c0-0.8-0.2-1.4-0.6-1.9c-0.4-0.4-1-0.7-1.7-0.7
				c-0.6,0-1.1,0.2-1.5,0.5c-0.5,0.3-1,0.7-1.5,1.3l-2.3-2.3c0.9-1,1.8-1.7,2.7-2.1c0.9-0.4,2-0.7,3.2-0.7c1.2,0,2.2,0.2,3,0.7
				c0.9,0.5,1.6,1.1,2.1,2c0.5,0.8,0.7,1.8,0.7,3c0,2.5-1.8,5.6-5.4,9.2c1.2-0.2,2.2-0.2,2.9-0.2h3.3v3.6H11.3V29.8z"/>
			<path d="M28.9,31.5c-1-0.7-1.7-1.8-2.2-3.2c-0.5-1.4-0.8-3.1-0.8-5.1s0.3-3.7,0.8-5.1c0.5-1.4,1.3-2.4,2.2-3.1
				c0.9-0.7,2.1-1,3.3-1s2.4,0.3,3.3,1c0.9,0.7,1.7,1.7,2.2,3.1c0.5,1.4,0.8,3.1,0.8,5.1s-0.3,3.7-0.8,5.1c-0.5,1.4-1.3,2.5-2.2,3.2
				c-1,0.7-2.1,1.1-3.3,1.1S29.8,32.2,28.9,31.5z M33.9,28c0.4-0.9,0.6-2.5,0.6-4.7c0-2.3-0.2-3.8-0.6-4.6s-1-1.3-1.7-1.3
				c-0.7,0-1.3,0.4-1.7,1.3c-0.4,0.8-0.6,2.4-0.6,4.6c0,2.3,0.2,3.8,0.6,4.7c0.4,0.9,1,1.3,1.7,1.3C32.9,29.3,33.5,28.9,33.9,28z"/>
			<path d="M40.5,29.8c2.5-2.3,4.3-4.2,5.6-5.7s1.9-2.9,1.9-4.2c0-0.8-0.2-1.4-0.6-1.9c-0.4-0.4-1-0.7-1.7-0.7
				c-0.6,0-1.1,0.2-1.5,0.5c-0.5,0.3-1,0.7-1.5,1.3l-2.3-2.3c0.9-1,1.8-1.7,2.7-2.1c0.9-0.4,2-0.7,3.2-0.7c1.2,0,2.2,0.2,3,0.7
				c0.9,0.5,1.6,1.1,2.1,2s0.7,1.8,0.7,3c0,2.5-1.8,5.6-5.4,9.2c1.2-0.2,2.2-0.2,2.9-0.2h3.3v3.6H40.5V29.8z"/>
			<path d="M56,28.8h3.8V18.7h-3.3V16c0.9-0.2,1.8-0.4,2.4-0.6c0.7-0.3,1.3-0.6,2-1h3.1v14.4h3.2v3.5H56V28.8z"/>
			<path d="M82.8,14.4h4.6l2.8,7.7c0.1,0.4,0.2,0.7,0.3,1.1c0.1,0.3,0.2,0.6,0.3,0.9l0.4,1.2h0.1c0.1-0.4,0.3-1,0.5-1.7
				c0.2-0.6,0.3-1.1,0.5-1.5l2.7-7.7h4.7v17.9h-3.9v-6.1c0-1.3,0.2-3.4,0.6-6.2h-0.1l-1.5,4.3l-2.4,6.5H90l-2.4-6.5L86.2,20h-0.1
				c0.2,1.4,0.3,2.6,0.4,3.6c0.1,1,0.1,1.9,0.1,2.6v6.1h-3.8V14.4z"/>
			<path d="M103.8,32.3V14.4h11.3V18h-7v3.3h6v3.6h-6v3.8h7.3v3.6H103.8z"/>
			<path d="M119,32.3V14.4h4.3v17.9H119z"/>
			<path d="M127.4,32.3V14.4h11.3V18h-7v3.3h6v3.6h-6v3.8h7.3v3.6H127.4z"/>
			<path d="M142.5,32.3V14.4h4.3v7.1h0.1l5.1-7.1h4.7l-5.4,7.2l6.4,10.7h-4.7l-4.2-7.3l-1.9,2.6v4.7H142.5z"/>
			<path d="M159.5,32.3V14.4h4.3v17.9H159.5z"/>
			<path d="M183.2,31.5c-1.3-0.7-2.3-1.7-3-3.1s-1.1-3-1.1-5c0-1.9,0.4-3.6,1.2-5c0.8-1.4,1.8-2.5,3.1-3.2c1.3-0.7,2.7-1.1,4.2-1.1
				c1.1,0,2.1,0.2,3,0.6s1.7,1,2.4,1.7l-2.2,2.7c-0.5-0.4-1-0.8-1.5-1c-0.5-0.2-1-0.4-1.6-0.4c-0.8,0-1.5,0.2-2.1,0.7
				c-0.6,0.4-1.1,1.1-1.5,1.9s-0.6,1.8-0.6,2.9c0,1.8,0.4,3.1,1.1,4.1c0.7,1,1.8,1.5,3,1.5c1.3,0,2.4-0.5,3.4-1.6l2.3,2.7
				c-1.5,1.8-3.5,2.6-5.8,2.6C185.9,32.6,184.5,32.3,183.2,31.5z"/>
			<path d="M193.6,32.3l5.5-17.9h5.1l5.5,17.9h-4.5l-1-4.1H199l-1,4.1H193.6z M199.8,24.9h3.6l-0.4-1.5c-0.2-0.7-0.4-1.7-0.7-3
				l-0.7-2.7h-0.1c-0.6,2.7-1.1,4.6-1.4,5.7L199.8,24.9z"/>
			<path d="M211.7,14.4h4.6l2.8,7.7c0.1,0.4,0.2,0.7,0.3,1.1c0.1,0.3,0.2,0.6,0.3,0.9l0.4,1.2h0.1c0.1-0.4,0.3-1,0.5-1.7
				c0.2-0.6,0.3-1.1,0.5-1.5l2.7-7.7h4.7v17.9h-3.9v-6.1c0-1.3,0.2-3.4,0.6-6.2h-0.1l-1.5,4.3l-2.4,6.5H219l-2.4-6.5l-1.4-4.3H215
				c0.2,1.4,0.3,2.6,0.4,3.6c0.1,1,0.1,1.9,0.1,2.6v6.1h-3.8V14.4z"/>
			<path d="M239.1,14.4c2.2,0,3.9,0.5,5.2,1.4c1.3,0.9,2,2.4,2,4.5c0,1.4-0.3,2.5-0.9,3.4c-0.6,0.9-1.5,1.6-2.5,2s-2.3,0.7-3.6,0.7
				h-2.1v5.9h-4.3V14.4H239.1z M238.9,23c1,0,1.8-0.2,2.3-0.7c0.5-0.5,0.8-1.1,0.8-2c0-0.9-0.3-1.5-0.8-1.9
				c-0.5-0.4-1.3-0.6-2.4-0.6h-1.8V23H238.9z"/>
			<path d="M251,30.5c-1.2-1.4-1.8-3.6-1.8-6.6v-9.5h4.3v9.9c0,1.6,0.2,2.8,0.7,3.5s1.2,1.1,2.2,1.1s1.8-0.4,2.3-1.1
				c0.5-0.7,0.8-1.9,0.8-3.5v-9.9h4.1v9.5c0,3-0.6,5.2-1.8,6.6s-3,2.1-5.4,2.1C254,32.6,252.2,31.9,251,30.5z"/>
			<path d="M269.5,31.9c-1.2-0.4-2.2-1.1-3.1-1.9l2.4-3c0.6,0.5,1.3,1,2.1,1.3c0.8,0.3,1.5,0.5,2.2,0.5c0.8,0,1.3-0.1,1.7-0.4
				c0.4-0.3,0.6-0.7,0.6-1.2c0-0.3-0.1-0.6-0.3-0.8c-0.2-0.2-0.4-0.4-0.7-0.5c-0.3-0.1-0.8-0.4-1.5-0.7l-2.3-1
				c-1.1-0.4-1.9-1-2.6-1.9c-0.7-0.8-1-1.8-1-3c0-1,0.3-1.9,0.8-2.7c0.6-0.8,1.3-1.5,2.3-2s2.1-0.7,3.3-0.7c1.1,0,2.1,0.2,3.1,0.6
				c1,0.4,1.9,1,2.7,1.8l-2.1,2.7c-0.6-0.5-1.2-0.8-1.8-1c-0.6-0.2-1.2-0.3-1.9-0.3c-0.7,0-1.2,0.1-1.5,0.4
				c-0.4,0.3-0.6,0.6-0.6,1.1c0,0.3,0.1,0.6,0.3,0.8s0.5,0.4,0.8,0.6c0.3,0.2,0.8,0.4,1.6,0.7l2.2,0.9c1.2,0.5,2,1.1,2.6,1.9
				c0.6,0.8,0.9,1.8,0.9,3c0,1-0.3,1.9-0.8,2.8c-0.5,0.8-1.3,1.5-2.4,2c-1,0.5-2.2,0.8-3.6,0.8C271.9,32.6,270.7,32.4,269.5,31.9z"
				/>
			<path d="M294.9,32.3V14.4h11.4V18h-7.1v3.9h6.1v3.6h-6.1v6.8H294.9z"/>
			<path d="M309.4,32.3V14.4h11.3V18h-7v3.3h6v3.6h-6v3.8h7.3v3.6H309.4z"/>
			<path d="M326.5,31.9c-1.2-0.4-2.2-1.1-3.1-1.9l2.4-3c0.6,0.5,1.3,1,2.1,1.3c0.8,0.3,1.5,0.5,2.2,0.5c0.8,0,1.3-0.1,1.7-0.4
				c0.4-0.3,0.6-0.7,0.6-1.2c0-0.3-0.1-0.6-0.3-0.8c-0.2-0.2-0.4-0.4-0.7-0.5c-0.3-0.1-0.8-0.4-1.5-0.7l-2.3-1
				c-1.1-0.4-1.9-1-2.6-1.9c-0.7-0.8-1-1.8-1-3c0-1,0.3-1.9,0.8-2.7c0.6-0.8,1.3-1.5,2.3-2s2.1-0.7,3.3-0.7c1.1,0,2.1,0.2,3.1,0.6
				c1,0.4,1.9,1,2.7,1.8l-2.1,2.7c-0.6-0.5-1.2-0.8-1.8-1c-0.6-0.2-1.2-0.3-1.9-0.3c-0.7,0-1.2,0.1-1.5,0.4
				c-0.4,0.3-0.6,0.6-0.6,1.1c0,0.3,0.1,0.6,0.3,0.8s0.5,0.4,0.8,0.6c0.3,0.2,0.8,0.4,1.6,0.7l2.2,0.9c1.2,0.5,2,1.1,2.6,1.9
				c0.6,0.8,0.9,1.8,0.9,3c0,1-0.3,1.9-0.8,2.8c-0.5,0.8-1.3,1.5-2.4,2c-1,0.5-2.2,0.8-3.6,0.8C328.9,32.6,327.7,32.4,326.5,31.9z"
				/>
			<path d="M343.3,32.3V18h-4.8v-3.6h14V18h-4.8v14.3H343.3z"/>
			<path d="M355.2,32.3V14.4h4.3v17.9H355.2z"/>
			<path d="M361.3,14.4h4.5l2,8.2c0.2,0.7,0.5,1.7,0.8,3.2c0.3,1.3,0.5,2.1,0.6,2.5h0.1c0.1-0.4,0.4-1.4,0.7-3
				c0.2-0.8,0.4-1.7,0.6-2.7l2-8.2h4.4l-5.4,17.9h-5.2L361.3,14.4z"/>
			<path d="M375.6,32.3l5.5-17.9h5.1l5.5,17.9h-4.5l-1-4.1H381l-1,4.1H375.6z M381.8,24.9h3.6l-0.4-1.5c-0.2-0.7-0.4-1.7-0.7-3
				l-0.7-2.7h-0.1c-0.6,2.7-1.1,4.6-1.4,5.7L381.8,24.9z"/>
			<path d="M393.7,32.3V14.4h4.3v14.3h7v3.6H393.7z"/>
		</g>
		<g>
			<path class="st10" d="M11.3,29.8c2.5-2.3,4.3-4.2,5.6-5.7s1.9-2.9,1.9-4.2c0-0.8-0.2-1.4-0.6-1.9c-0.4-0.4-1-0.7-1.7-0.7
				c-0.6,0-1.1,0.2-1.5,0.5c-0.5,0.3-1,0.7-1.5,1.3l-2.3-2.3c0.9-1,1.8-1.7,2.7-2.1c0.9-0.4,2-0.7,3.2-0.7c1.2,0,2.2,0.2,3,0.7
				c0.9,0.5,1.6,1.1,2.1,2c0.5,0.8,0.7,1.8,0.7,3c0,2.5-1.8,5.6-5.4,9.2c1.2-0.2,2.2-0.2,2.9-0.2h3.3v3.6H11.3V29.8z"/>
			<path class="st10" d="M28.9,31.5c-1-0.7-1.7-1.8-2.2-3.2c-0.5-1.4-0.8-3.1-0.8-5.1s0.3-3.7,0.8-5.1c0.5-1.4,1.3-2.4,2.2-3.1
				c0.9-0.7,2.1-1,3.3-1s2.4,0.3,3.3,1c0.9,0.7,1.7,1.7,2.2,3.1c0.5,1.4,0.8,3.1,0.8,5.1s-0.3,3.7-0.8,5.1c-0.5,1.4-1.3,2.5-2.2,3.2
				c-1,0.7-2.1,1.1-3.3,1.1S29.8,32.2,28.9,31.5z M33.9,28c0.4-0.9,0.6-2.5,0.6-4.7c0-2.3-0.2-3.8-0.6-4.6s-1-1.3-1.7-1.3
				c-0.7,0-1.3,0.4-1.7,1.3c-0.4,0.8-0.6,2.4-0.6,4.6c0,2.3,0.2,3.8,0.6,4.7c0.4,0.9,1,1.3,1.7,1.3C32.9,29.3,33.5,28.9,33.9,28z"/>
			<path class="st10" d="M40.5,29.8c2.5-2.3,4.3-4.2,5.6-5.7s1.9-2.9,1.9-4.2c0-0.8-0.2-1.4-0.6-1.9c-0.4-0.4-1-0.7-1.7-0.7
				c-0.6,0-1.1,0.2-1.5,0.5c-0.5,0.3-1,0.7-1.5,1.3l-2.3-2.3c0.9-1,1.8-1.7,2.7-2.1c0.9-0.4,2-0.7,3.2-0.7c1.2,0,2.2,0.2,3,0.7
				c0.9,0.5,1.6,1.1,2.1,2s0.7,1.8,0.7,3c0,2.5-1.8,5.6-5.4,9.2c1.2-0.2,2.2-0.2,2.9-0.2h3.3v3.6H40.5V29.8z"/>
			<path class="st10" d="M56,28.8h3.8V18.7h-3.3V16c0.9-0.2,1.8-0.4,2.4-0.6c0.7-0.3,1.3-0.6,2-1h3.1v14.4h3.2v3.5H56V28.8z"/>
			<path class="st10" d="M82.8,14.4h4.6l2.8,7.7c0.1,0.4,0.2,0.7,0.3,1.1c0.1,0.3,0.2,0.6,0.3,0.9l0.4,1.2h0.1
				c0.1-0.4,0.3-1,0.5-1.7c0.2-0.6,0.3-1.1,0.5-1.5l2.7-7.7h4.7v17.9h-3.9v-6.1c0-1.3,0.2-3.4,0.6-6.2h-0.1l-1.5,4.3l-2.4,6.5H90
				l-2.4-6.5L86.2,20h-0.1c0.2,1.4,0.3,2.6,0.4,3.6c0.1,1,0.1,1.9,0.1,2.6v6.1h-3.8V14.4z"/>
			<path class="st10" d="M103.8,32.3V14.4h11.3V18h-7v3.3h6v3.6h-6v3.8h7.3v3.6H103.8z"/>
			<path class="st10" d="M119,32.3V14.4h4.3v17.9H119z"/>
			<path class="st10" d="M127.4,32.3V14.4h11.3V18h-7v3.3h6v3.6h-6v3.8h7.3v3.6H127.4z"/>
			<path class="st10" d="M142.5,32.3V14.4h4.3v7.1h0.1l5.1-7.1h4.7l-5.4,7.2l6.4,10.7h-4.7l-4.2-7.3l-1.9,2.6v4.7H142.5z"/>
			<path class="st10" d="M159.5,32.3V14.4h4.3v17.9H159.5z"/>
			<path class="st10" d="M183.2,31.5c-1.3-0.7-2.3-1.7-3-3.1s-1.1-3-1.1-5c0-1.9,0.4-3.6,1.2-5c0.8-1.4,1.8-2.5,3.1-3.2
				c1.3-0.7,2.7-1.1,4.2-1.1c1.1,0,2.1,0.2,3,0.6s1.7,1,2.4,1.7l-2.2,2.7c-0.5-0.4-1-0.8-1.5-1c-0.5-0.2-1-0.4-1.6-0.4
				c-0.8,0-1.5,0.2-2.1,0.7c-0.6,0.4-1.1,1.1-1.5,1.9s-0.6,1.8-0.6,2.9c0,1.8,0.4,3.1,1.1,4.1c0.7,1,1.8,1.5,3,1.5
				c1.3,0,2.4-0.5,3.4-1.6l2.3,2.7c-1.5,1.8-3.5,2.6-5.8,2.6C185.9,32.6,184.5,32.3,183.2,31.5z"/>
			<path class="st10" d="M193.6,32.3l5.5-17.9h5.1l5.5,17.9h-4.5l-1-4.1H199l-1,4.1H193.6z M199.8,24.9h3.6l-0.4-1.5
				c-0.2-0.7-0.4-1.7-0.7-3l-0.7-2.7h-0.1c-0.6,2.7-1.1,4.6-1.4,5.7L199.8,24.9z"/>
			<path class="st10" d="M211.7,14.4h4.6l2.8,7.7c0.1,0.4,0.2,0.7,0.3,1.1c0.1,0.3,0.2,0.6,0.3,0.9l0.4,1.2h0.1
				c0.1-0.4,0.3-1,0.5-1.7c0.2-0.6,0.3-1.1,0.5-1.5l2.7-7.7h4.7v17.9h-3.9v-6.1c0-1.3,0.2-3.4,0.6-6.2h-0.1l-1.5,4.3l-2.4,6.5H219
				l-2.4-6.5l-1.4-4.3H215c0.2,1.4,0.3,2.6,0.4,3.6c0.1,1,0.1,1.9,0.1,2.6v6.1h-3.8V14.4z"/>
			<path class="st10" d="M239.1,14.4c2.2,0,3.9,0.5,5.2,1.4c1.3,0.9,2,2.4,2,4.5c0,1.4-0.3,2.5-0.9,3.4c-0.6,0.9-1.5,1.6-2.5,2
				s-2.3,0.7-3.6,0.7h-2.1v5.9h-4.3V14.4H239.1z M238.9,23c1,0,1.8-0.2,2.3-0.7c0.5-0.5,0.8-1.1,0.8-2c0-0.9-0.3-1.5-0.8-1.9
				c-0.5-0.4-1.3-0.6-2.4-0.6h-1.8V23H238.9z"/>
			<path class="st10" d="M251,30.5c-1.2-1.4-1.8-3.6-1.8-6.6v-9.5h4.3v9.9c0,1.6,0.2,2.8,0.7,3.5s1.2,1.1,2.2,1.1s1.8-0.4,2.3-1.1
				c0.5-0.7,0.8-1.9,0.8-3.5v-9.9h4.1v9.5c0,3-0.6,5.2-1.8,6.6s-3,2.1-5.4,2.1C254,32.6,252.2,31.9,251,30.5z"/>
			<path class="st10" d="M269.5,31.9c-1.2-0.4-2.2-1.1-3.1-1.9l2.4-3c0.6,0.5,1.3,1,2.1,1.3c0.8,0.3,1.5,0.5,2.2,0.5
				c0.8,0,1.3-0.1,1.7-0.4c0.4-0.3,0.6-0.7,0.6-1.2c0-0.3-0.1-0.6-0.3-0.8c-0.2-0.2-0.4-0.4-0.7-0.5c-0.3-0.1-0.8-0.4-1.5-0.7
				l-2.3-1c-1.1-0.4-1.9-1-2.6-1.9c-0.7-0.8-1-1.8-1-3c0-1,0.3-1.9,0.8-2.7c0.6-0.8,1.3-1.5,2.3-2s2.1-0.7,3.3-0.7
				c1.1,0,2.1,0.2,3.1,0.6c1,0.4,1.9,1,2.7,1.8l-2.1,2.7c-0.6-0.5-1.2-0.8-1.8-1c-0.6-0.2-1.2-0.3-1.9-0.3c-0.7,0-1.2,0.1-1.5,0.4
				c-0.4,0.3-0.6,0.6-0.6,1.1c0,0.3,0.1,0.6,0.3,0.8s0.5,0.4,0.8,0.6c0.3,0.2,0.8,0.4,1.6,0.7l2.2,0.9c1.2,0.5,2,1.1,2.6,1.9
				c0.6,0.8,0.9,1.8,0.9,3c0,1-0.3,1.9-0.8,2.8c-0.5,0.8-1.3,1.5-2.4,2c-1,0.5-2.2,0.8-3.6,0.8C271.9,32.6,270.7,32.4,269.5,31.9z"
				/>
			<path class="st10" d="M294.9,32.3V14.4h11.4V18h-7.1v3.9h6.1v3.6h-6.1v6.8H294.9z"/>
			<path class="st10" d="M309.4,32.3V14.4h11.3V18h-7v3.3h6v3.6h-6v3.8h7.3v3.6H309.4z"/>
			<path class="st10" d="M326.5,31.9c-1.2-0.4-2.2-1.1-3.1-1.9l2.4-3c0.6,0.5,1.3,1,2.1,1.3c0.8,0.3,1.5,0.5,2.2,0.5
				c0.8,0,1.3-0.1,1.7-0.4c0.4-0.3,0.6-0.7,0.6-1.2c0-0.3-0.1-0.6-0.3-0.8c-0.2-0.2-0.4-0.4-0.7-0.5c-0.3-0.1-0.8-0.4-1.5-0.7
				l-2.3-1c-1.1-0.4-1.9-1-2.6-1.9c-0.7-0.8-1-1.8-1-3c0-1,0.3-1.9,0.8-2.7c0.6-0.8,1.3-1.5,2.3-2s2.1-0.7,3.3-0.7
				c1.1,0,2.1,0.2,3.1,0.6c1,0.4,1.9,1,2.7,1.8l-2.1,2.7c-0.6-0.5-1.2-0.8-1.8-1c-0.6-0.2-1.2-0.3-1.9-0.3c-0.7,0-1.2,0.1-1.5,0.4
				c-0.4,0.3-0.6,0.6-0.6,1.1c0,0.3,0.1,0.6,0.3,0.8s0.5,0.4,0.8,0.6c0.3,0.2,0.8,0.4,1.6,0.7l2.2,0.9c1.2,0.5,2,1.1,2.6,1.9
				c0.6,0.8,0.9,1.8,0.9,3c0,1-0.3,1.9-0.8,2.8c-0.5,0.8-1.3,1.5-2.4,2c-1,0.5-2.2,0.8-3.6,0.8C328.9,32.6,327.7,32.4,326.5,31.9z"
				/>
			<path class="st10" d="M343.3,32.3V18h-4.8v-3.6h14V18h-4.8v14.3H343.3z"/>
			<path class="st10" d="M355.2,32.3V14.4h4.3v17.9H355.2z"/>
			<path class="st10" d="M361.3,14.4h4.5l2,8.2c0.2,0.7,0.5,1.7,0.8,3.2c0.3,1.3,0.5,2.1,0.6,2.5h0.1c0.1-0.4,0.4-1.4,0.7-3
				c0.2-0.8,0.4-1.7,0.6-2.7l2-8.2h4.4l-5.4,17.9h-5.2L361.3,14.4z"/>
			<path class="st10" d="M375.6,32.3l5.5-17.9h5.1l5.5,17.9h-4.5l-1-4.1H381l-1,4.1H375.6z M381.8,24.9h3.6l-0.4-1.5
				c-0.2-0.7-0.4-1.7-0.7-3l-0.7-2.7h-0.1c-0.6,2.7-1.1,4.6-1.4,5.7L381.8,24.9z"/>
			<path class="st10" d="M393.7,32.3V14.4h4.3v14.3h7v3.6H393.7z"/>
		</g>
	</g>
</g>
</svg>
