<svg xmlns="http://www.w3.org/2000/svg" width="46" height="46" viewBox="0 0 46 46"><g transform="translate(-106 -1350)"><rect width="46" height="46" transform="translate(106 1350)" fill="none"/><g transform="translate(106 1258.101)"><path d="M45.86,120.909l-2.674-11.371a11.56,11.56,0,0,0-11.166-8.568H13.98a11.56,11.56,0,0,0-11.166,8.568L.14,120.909a6.527,6.527,0,0,0,4.369,7.547l.156.05a6.526,6.526,0,0,0,7.675-2.95l2.326-3.44a3.273,3.273,0,0,1,2.835-1.64h11a3.272,3.272,0,0,1,2.834,1.64l2.326,3.44a6.527,6.527,0,0,0,7.676,2.95l.156-.05A6.527,6.527,0,0,0,45.86,120.909Zm-28.7-7.62H13.419v3.746H10.158v-3.746H6.413V110.03h3.745v-3.745h3.261v3.745h3.745v3.259Zm16.5-7.785a2.052,2.052,0,1,1-2.051,2.053A2.052,2.052,0,0,1,33.667,105.5Zm-4.1,8.209a2.052,2.052,0,1,1,2.052-2.053A2.053,2.053,0,0,1,29.563,113.714Zm4.1,4.1a2.052,2.052,0,1,1,2.053-2.051A2.051,2.051,0,0,1,33.667,117.817Zm4.1-4.1a2.052,2.052,0,1,1,2.053-2.053A2.052,2.052,0,0,1,37.771,113.714Z" transform="translate(0)" fill="#1b1b1b"/></g></g></svg>