<svg xmlns="http://www.w3.org/2000/svg" width="46" height="46" viewBox="0 0 46 46"><g transform="translate(-64 -2341)"><rect width="46" height="46" transform="translate(64 2341)" fill="none"/><g transform="translate(-0.362 2341)"><path d="M234.145,3.309a1.654,1.654,0,1,0-1.652-1.656A1.654,1.654,0,0,0,234.145,3.309Z" transform="translate(-147.243)" fill="#1b1b1b"/><path d="M240.631,89.394a.973.973,0,1,0-.973.972A.972.972,0,0,0,240.631,89.394Z" transform="translate(-152.879 -80.476)" fill="#1b1b1b"/><path d="M262.4,48.685a1.163,1.163,0,1,0,1.165-1.161A1.165,1.165,0,0,0,262.4,48.685Z" transform="translate(-174.466 -43.254)" fill="#1b1b1b"/><path d="M103.349,143.915l-9.314-14.877a8.515,8.515,0,0,1-1.3-4.518l.012-9.666H91.1l-.011,9.638v.029a10.166,10.166,0,0,0,1.549,5.391l9.314,14.877a2.678,2.678,0,0,1-2.269,4.1h-.015l-24.633-.027a2.678,2.678,0,0,1-2.264-4.1L82.118,129.9a10.154,10.154,0,0,0,1.56-5.4l.01-9.646H82.044l-.012,9.645a8.522,8.522,0,0,1-1.307,4.525l-9.346,14.858a4.324,4.324,0,0,0,3.656,6.626l24.644.027v0c.038,0,.058,0,.059,0v0a4.322,4.322,0,0,0,3.61-6.616Z" transform="translate(0 -104.535)" fill="#1b1b1b"/><path d="M125.7,326.093l-6.429,10.218a1.41,1.41,0,0,0-.041,1.428,1.432,1.432,0,0,0,1.231.752h21.8a1.407,1.407,0,0,0,1.192-2.154L137.046,326.1a1.4,1.4,0,0,0-1.192-.66l-8.964-.01A1.4,1.4,0,0,0,125.7,326.093Zm8.5,7.1a1.029,1.029,0,1,1-1.029,1.029A1.029,1.029,0,0,1,134.2,333.194Zm-4.941-4.427a1.544,1.544,0,1,1-1.544,1.544A1.544,1.544,0,0,1,129.256,328.767Z" transform="translate(-43.998 -296.197)" fill="#1b1b1b"/></g></g></svg>