<svg xmlns="http://www.w3.org/2000/svg" width="46" height="46" viewBox="0 0 46 46"><g transform="translate(-64 -2341)"><rect width="46" height="46" transform="translate(64 2341)" fill="none"/><path d="M-15.892-39.24H-5.624L4.149-20.378,6.96-14.025A104.713,104.713,0,0,1,6-25.9V-39.24h9.84V.5H5.57L-4.148-18.464l-2.866-6.4.127,1.252a98.208,98.208,0,0,1,.835,10.766V.5h-9.84Zm9.66,1h-8.66V-.5h7.84V-12.844A97.325,97.325,0,0,0-7.88-23.5v-.009l-.42-4.138h1.137l3.923,8.76L6.182-.5H14.84V-38.24H7V-25.9a105.354,105.354,0,0,0,.984,12l.325,2.8H7.162L3.241-19.96Z" transform="translate(87 2384)" fill="#1b1b1b"/></g></svg>