<svg xmlns="http://www.w3.org/2000/svg" width="46" height="46" viewBox="0 0 46 46"><g transform="translate(-106 -1350)"><rect width="46" height="46" transform="translate(106 1350)" fill="none"/><g transform="translate(105.912 1350)"><path d="M307.607,5.454A9.347,9.347,0,0,0,303.934,1.5,10.846,10.846,0,0,0,298.379,0a10.625,10.625,0,0,0-7.04,2.586,9.029,9.029,0,0,0-2.185,2.868,8.267,8.267,0,0,0,.484,8.035,9.436,9.436,0,0,0,2.771,2.809l-1.686,4.212,1.217-.15a39.461,39.461,0,0,0,10.145-2.927,9.967,9.967,0,0,0,4.514-3.2,8.4,8.4,0,0,0,1.825-5.2A8.264,8.264,0,0,0,307.607,5.454Zm-2.064,7.75a8.583,8.583,0,0,1-3.923,2.753l-.022.006-.022.01a39.991,39.991,0,0,1-8.56,2.642l1.206-3.009-.592-.339a8.109,8.109,0,0,1-2.846-2.68,6.614,6.614,0,0,1-1.045-3.552,6.548,6.548,0,0,1,.651-2.845,7.862,7.862,0,0,1,3.1-3.309,9.545,9.545,0,0,1,4.893-1.317,9.319,9.319,0,0,1,6.173,2.247,7.521,7.521,0,0,1,1.818,2.378,6.567,6.567,0,0,1,.652,2.845A6.714,6.714,0,0,1,305.543,13.2Z" transform="translate(-262.352)" fill="#1b1b1b"/><path d="M344.987,89.483a1.225,1.225,0,1,0,1.091,1.217A1.16,1.16,0,0,0,344.987,89.483Z" transform="translate(-312.92 -81.444)" fill="#1b1b1b"/><path d="M391.8,89.483a1.225,1.225,0,1,0,1.091,1.217A1.16,1.16,0,0,0,391.8,89.483Z" transform="translate(-355.527 -81.444)" fill="#1b1b1b"/><path d="M438.623,89.483a1.225,1.225,0,1,0,1.091,1.217A1.16,1.16,0,0,0,438.623,89.483Z" transform="translate(-398.142 -81.444)" fill="#1b1b1b"/><path d="M19.931,347.057a11.365,11.365,0,0,1-7.238,0C4.418,348.415.088,354.5.088,361.876H32.535C32.535,354.5,28.205,348.415,19.931,347.057Z" transform="translate(0 -315.876)" fill="#1b1b1b"/><path d="M90.707,118.924a8.88,8.88,0,0,0,8.88-8.88v-2.519a8.88,8.88,0,0,0-17.76,0v2.519A8.88,8.88,0,0,0,90.707,118.924Z" transform="translate(-74.395 -89.782)" fill="#1b1b1b"/></g></g></svg>