<svg xmlns="http://www.w3.org/2000/svg" width="46" height="46" viewBox="0 0 46 46"><g transform="translate(-106 -1350)"><rect width="46" height="46" transform="translate(106 1350)" fill="none"/><g transform="translate(68.299 1350)"><path d="M57.959,389.057a5.273,5.273,0,0,0-3.732,1.544l-3.26,3.263a4.14,4.14,0,0,1-5.854-5.856l-1.751-1.751a6.617,6.617,0,1,0,9.358,9.359l3.26-3.262a2.8,2.8,0,0,1,4.776,2.1l2.475.107a5.277,5.277,0,0,0-5.272-5.505Z" transform="translate(0 -351.554)" fill="#1b1b1b"/><path d="M309.524,2.787a9.523,9.523,0,0,0-12.835-.575L310.1,15.623A9.522,9.522,0,0,0,309.524,2.787Z" transform="translate(-232.332 0)" fill="#1b1b1b"/><path d="M256.48,43.534,266.648,53.7a9.474,9.474,0,0,0,5.666-2.391L258.872,37.867A9.473,9.473,0,0,0,256.48,43.534Z" transform="translate(-195.736 -34.465)" fill="#1b1b1b"/><path d="M51.637,144.966l6.421,6.421,19.99-18.111-8.3-8.3ZM71.68,132.658l-2.628,2.629-1.314-1.316,2.628-2.626Z" transform="translate(-9.296 -113.748)" fill="#1b1b1b"/></g></g></svg>